<svg width="749" height="651" viewBox="0 0 749 651" fill="none" xmlns="http://www.w3.org/2000/svg">
<path d="M356.641 585.897C433.175 585.897 495.218 576.821 495.218 565.626C495.218 554.43 433.175 545.355 356.641 545.355C280.107 545.355 218.063 554.43 218.063 565.626C218.063 576.821 280.107 585.897 356.641 585.897Z" fill="#C8BFFF"/>
<path opacity="0.5" d="M356.641 585.897C433.175 585.897 495.218 576.821 495.218 565.626C495.218 554.43 433.175 545.355 356.641 545.355C280.107 545.355 218.063 554.43 218.063 565.626C218.063 576.821 280.107 585.897 356.641 585.897Z" fill="white"/>
<path d="M661.156 633.534C704.148 633.534 738.999 624.458 738.999 613.263C738.999 602.067 704.148 592.992 661.156 592.992C618.164 592.992 583.312 602.067 583.312 613.263C583.312 624.458 618.164 633.534 661.156 633.534Z" fill="#C8BFFF"/>
<path opacity="0.5" d="M661.156 633.534C704.148 633.534 738.999 624.458 738.999 613.263C738.999 602.067 704.148 592.992 661.156 592.992C618.164 592.992 583.312 602.067 583.312 613.263C583.312 624.458 618.164 633.534 661.156 633.534Z" fill="white"/>
<path d="M0.376877 146.597C-0.0130163 145.154 -0.101626 143.643 0.116807 142.163C0.335239 140.683 0.855817 139.266 1.64466 138.005C2.43349 136.745 3.4729 135.668 4.6952 134.846C5.9175 134.024 7.29528 133.474 8.73885 133.233C17.4676 132.013 28.1951 144.007 31.5876 151.271C31.881 151.89 35.3651 162.251 35.2551 162.251C35.1451 162.251 19.7781 162.607 13.47 159.792C8.02368 157.371 1.8989 152.772 0.376877 146.597ZM224.591 119.062C223.308 125.294 217.256 130.061 211.92 132.614C206.584 135.166 194.004 135.617 190.905 135.673C189.236 137.719 187.458 139.896 185.55 142.374C182.213 146.747 178.509 151.759 174.823 157.389C173.833 158.91 172.842 160.561 171.834 162.157C174.071 159.829 177.17 156.676 177.5 156.395C183.643 151.383 198.405 145.396 205.74 150.37C206.938 151.231 207.945 152.34 208.696 153.626C209.446 154.913 209.924 156.346 210.097 157.834C210.27 159.321 210.134 160.83 209.7 162.26C209.265 163.691 208.541 165.011 207.574 166.136C203.631 171.054 196.076 172.424 190.208 172.18C184.34 171.936 172.604 166.23 170.037 164.954C167.873 168.52 165.746 172.236 163.729 176.215C160.026 183.43 156.957 190.967 154.56 198.739L155 198.964C156.834 196.561 160.685 191.587 161.051 191.212C166.553 185.581 180.654 177.923 188.558 182.053C189.84 182.775 190.959 183.765 191.842 184.96C192.725 186.154 193.352 187.526 193.683 188.985C194.013 190.444 194.039 191.959 193.76 193.429C193.48 194.899 192.901 196.293 192.06 197.519C188.668 202.849 181.314 205.026 175.556 205.477C168.808 205.965 154.835 200.559 154.321 200.353C152.123 208.17 150.426 216.127 149.242 224.171C148.325 230.102 147.647 236.165 147.023 242.265C148.233 240.538 153.331 234.007 153.753 233.575C159.254 227.944 173.356 220.286 181.259 224.415C182.542 225.138 183.661 226.128 184.544 227.323C185.427 228.517 186.054 229.889 186.384 231.348C186.715 232.807 186.741 234.321 186.461 235.792C186.182 237.262 185.603 238.655 184.762 239.881C181.37 245.212 174.016 247.389 168.258 247.84C161.657 248.309 148.252 243.204 147.133 242.772C146.858 245.531 146.546 248.29 146.29 251.068C145.428 260.115 144.603 269.199 143.521 278.134C143.154 281.231 142.659 284.271 142.2 287.312C144.034 284.778 147.702 280.255 147.995 279.898C153.496 274.267 167.598 266.609 175.501 270.738C176.784 271.461 177.903 272.451 178.786 273.646C179.669 274.84 180.296 276.212 180.626 277.671C180.957 279.13 180.983 280.644 180.703 282.115C180.424 283.585 179.845 284.979 179.004 286.204C175.611 291.535 168.258 293.712 162.408 294.144C156.559 294.576 145.153 290.521 141.98 289.339C141.155 294.407 140.146 299.399 139.101 304.355C138.569 306.457 138.166 308.615 137.543 310.605C136.919 312.594 136.369 314.603 135.709 316.573C134.37 320.59 133.16 324.344 131.821 328.06C131.161 329.937 130.501 331.702 129.822 333.522C131.381 330.669 133.912 326.183 134.205 325.808C138.863 319.333 151.607 309.629 159.878 312.501C161.251 313.015 162.503 313.82 163.553 314.863C164.602 315.905 165.425 317.163 165.968 318.553C166.512 319.943 166.763 321.434 166.705 322.93C166.648 324.426 166.284 325.892 165.636 327.235C163.069 333.034 156.119 336.338 150.397 337.67C144.089 339.134 130.538 336.319 128.869 335.962C127.218 340.411 125.586 344.728 123.973 348.744C118.893 361.433 114.199 371.831 110.806 379.038C110.623 379.451 110.439 379.808 110.256 380.202H134.957L126.43 550.385C126.132 556.669 123.475 562.592 119.012 566.918C114.55 571.244 108.627 573.639 102.481 573.603C96.3905 573.588 90.5367 571.188 86.1207 566.894C81.7048 562.601 79.0616 556.741 78.7337 550.516L70.225 380.277H96.7229C96.5945 379.095 96.4662 377.856 96.3011 376.523C95.4209 368.659 93.9906 357.416 91.6801 344.033C91.0382 340.167 90.2681 336.094 89.4612 331.908C87.7375 332.133 74.0576 333.898 67.8778 331.908C62.2481 330.144 55.5732 326.277 53.446 320.346C52.8957 318.959 52.6372 317.468 52.6873 315.971C52.7374 314.474 53.095 313.005 53.7369 311.659C54.3787 310.314 55.2904 309.121 56.4125 308.16C57.5346 307.199 58.8419 306.491 60.2493 306.081C68.7763 303.848 80.7875 314.49 84.9685 321.322C85.2252 321.754 87.8292 327.272 89.0945 330.125C88.5993 327.591 88.1042 325.076 87.5357 322.448C86.7472 318.694 85.702 314.697 84.8951 310.849C84.345 308.878 83.8132 306.87 83.2631 304.861C82.7129 302.853 82.0161 300.92 81.4293 298.911C80.4574 296.002 79.3021 293.037 78.1652 290.09C74.4977 291.141 63.4951 294.031 57.8838 293.205C52.2724 292.38 44.9007 289.583 41.9117 284.008C41.1637 282.721 40.6888 281.286 40.5179 279.798C40.347 278.31 40.4839 276.802 40.9198 275.371C41.3556 273.941 42.0806 272.621 43.0476 271.496C44.0147 270.371 45.2021 269.467 46.5327 268.843C54.638 265.333 68.0612 273.986 73.214 280.104C73.3791 280.292 74.3326 281.7 75.4512 283.37C74.2593 280.517 73.0673 277.739 71.7837 274.83C68.1162 266.759 64.0636 258.651 60.0659 250.43C59.2407 248.741 58.4339 247.033 57.6087 245.325C54.4729 246.225 42.6452 249.473 36.7588 248.59C30.8724 247.708 23.7757 244.968 20.7867 239.393C20.036 238.108 19.559 236.674 19.3867 235.187C19.2144 233.699 19.3509 232.192 19.787 230.762C20.2232 229.332 20.9493 228.013 21.9179 226.89C22.8865 225.767 24.0757 224.866 25.4078 224.246C33.4947 220.718 46.9362 229.389 52.0891 235.508C52.2724 235.733 53.4094 237.385 54.6747 239.262C52.5658 234.795 50.512 230.328 48.6049 225.842C45.3119 218.136 42.5185 210.217 40.2429 202.136C39.1427 202.474 25.3528 206.566 18.8062 205.589C12.9932 204.726 5.82316 201.967 2.83412 196.392C2.09431 195.113 1.62458 193.689 1.45521 192.213C1.28584 190.736 1.4206 189.24 1.85078 187.82C2.28096 186.4 2.99703 185.088 3.95285 183.968C4.90866 182.849 6.083 181.947 7.4002 181.321C15.5054 177.792 28.9286 186.463 34.0815 192.582C34.4482 193.014 38.5192 199.114 39.9129 201.329C39.905 201.235 39.905 201.141 39.9129 201.047C37.8699 193.053 36.532 184.886 35.9153 176.647C35.3154 169.294 35.1439 161.911 35.4018 154.536C35.5485 147.704 36.0986 141.398 36.6488 135.936C36.9605 132.933 37.2906 130.211 37.639 127.677L37.4923 127.771C37.3456 127.771 34.3932 117.354 34.2832 116.66C32.9812 108.72 35.0534 92.5972 42.8652 88.5055C44.1816 87.8518 45.6179 87.4899 47.0803 87.4434C48.5427 87.3968 49.9982 87.6667 51.3517 88.2354C52.7052 88.8041 53.9262 89.6587 54.9349 90.7435C55.9436 91.8283 56.7172 93.1187 57.2053 94.5305C59.4975 100.443 57.0035 107.857 53.9412 113C50.8788 118.142 40.628 125.613 38.0791 127.396C37.7674 130.042 37.474 132.877 37.2172 136.03C36.7955 141.548 36.3737 147.779 36.3554 154.593C36.3554 156.47 36.3553 158.347 36.447 160.224C37.0522 157.033 37.9324 152.716 38.0608 152.228C40.4813 144.57 49.5585 131.244 58.3789 131.244C59.8407 131.29 61.2766 131.651 62.5935 132.302C63.9103 132.954 65.0787 133.881 66.0228 135.024C66.9669 136.168 67.6656 137.501 68.0736 138.939C68.4817 140.376 68.5899 141.886 68.3912 143.369C67.7494 149.694 62.1931 155.1 57.1686 158.215C52.1441 161.331 39.271 163.189 36.5021 163.527C36.6121 167.731 36.8505 172.03 37.3273 176.516C38.1262 184.657 39.6297 192.709 41.82 200.578H42.3151C42.5168 197.556 43.0853 191.193 43.177 190.687C44.7723 182.803 52.3458 168.539 61.1295 167.563C62.5878 167.444 64.0543 167.64 65.4337 168.139C66.8131 168.637 68.0746 169.427 69.1363 170.458C70.1981 171.488 71.0363 172.735 71.5966 174.118C72.157 175.501 72.4269 176.99 72.3888 178.486C72.3888 184.849 67.4743 190.837 62.8166 194.497C57.3703 198.57 42.8102 201.967 42.2417 202.08C44.6209 209.84 47.4938 217.433 50.8421 224.809C53.2443 230.271 55.995 235.752 58.7456 241.158C58.7456 239.018 59.5525 230.703 59.6809 230.102C61.2762 222.219 68.8497 207.954 77.6151 206.978C79.0724 206.857 80.5385 207.05 81.9179 207.547C83.2973 208.044 84.5591 208.832 85.6211 209.86C86.6832 210.889 87.5218 212.135 88.0823 213.517C88.6428 214.9 88.9127 216.387 88.8744 217.884C88.8744 224.246 83.9782 230.234 79.3205 233.894C74.0759 238.023 60.1393 241.402 58.9657 241.608C60.231 244.067 61.4596 246.545 62.7432 249.003C66.9059 257.037 71.1052 265.07 75.0111 273.141C76.3681 275.938 77.6151 278.772 78.862 281.55C79.0821 278.359 79.6139 272.578 79.7056 272.071C81.3009 264.207 88.8744 249.923 97.6398 248.947C99.0981 248.828 100.565 249.024 101.944 249.523C103.323 250.022 104.585 250.812 105.647 251.842C106.708 252.872 107.547 254.119 108.107 255.502C108.667 256.886 108.937 258.374 108.899 259.871C108.899 266.234 104.003 272.221 99.3452 275.881C94.6874 279.541 83.0063 282.601 79.7056 283.389C81.7594 288.063 83.6848 292.774 85.3719 297.466C86.0504 299.512 86.8756 301.558 87.4257 303.566L89.2595 309.516C90.3231 313.627 91.3316 317.437 92.2118 321.303C92.6886 323.18 93.0737 325.057 93.4955 326.934C93.2571 323.687 92.9637 318.507 92.982 318.037C93.3855 310.004 98.7767 294.707 107.285 292.398C108.715 292.034 110.205 291.984 111.655 292.253C113.105 292.522 114.483 293.104 115.696 293.96C116.91 294.815 117.932 295.925 118.695 297.215C119.458 298.506 119.945 299.948 120.122 301.445C120.244 302.221 120.293 303.006 120.268 303.791C123.748 309.922 125.641 316.861 125.77 323.95C125.77 324.457 124.945 330.538 124.468 333.616C125.421 331.232 126.302 328.849 127.292 326.352C128.667 322.749 130.024 318.845 131.344 315.091C131.95 313.214 132.573 311.149 133.178 309.16C133.783 307.17 134.26 305.162 134.81 303.153C135.58 300.169 136.222 297.053 136.864 293.937C133.197 292.736 122.506 288.964 118.27 285.097C114.034 281.231 109.394 274.736 109.889 268.392C109.962 266.897 110.341 265.434 111.001 264.098C111.662 262.763 112.589 261.584 113.724 260.639C114.858 259.694 116.174 259.003 117.585 258.612C118.997 258.221 120.474 258.139 121.919 258.369C130.574 260.002 137.102 274.811 138.129 282.77C138.129 283.014 138.129 284.647 138.129 286.768C138.679 283.708 139.23 280.667 139.67 277.552C140.935 268.73 141.944 259.683 143.007 250.655C143.209 248.778 143.466 246.901 143.686 245.024C140.605 244.011 129.016 240.032 124.541 235.977C120.067 231.923 115.666 225.617 116.179 219.291C116.247 217.795 116.621 216.331 117.279 214.993C117.936 213.655 118.862 212.474 119.995 211.526C121.128 210.579 122.444 209.886 123.856 209.494C125.268 209.102 126.745 209.019 128.19 209.25C136.864 210.883 143.392 225.71 144.401 233.65C144.401 233.931 144.401 235.977 144.511 238.267C145.153 233.35 145.868 228.47 146.693 223.646C148.097 215.391 150.033 207.239 152.488 199.245C151.406 198.889 137.689 194.516 132.756 190.011C128.374 185.994 123.881 179.65 124.376 173.306C124.449 171.811 124.827 170.348 125.488 169.012C126.148 167.676 127.076 166.498 128.21 165.553C129.345 164.608 130.66 163.917 132.072 163.526C133.484 163.135 134.96 163.052 136.406 163.283C145.061 164.916 151.589 179.725 152.616 187.683C152.616 188.246 152.799 195.623 152.744 198.269V197.988C155.357 190.201 158.634 182.664 162.537 175.464C166.01 168.985 169.849 162.717 174.034 156.695C177.849 151.064 181.681 146.184 185.037 141.886C186.871 139.558 188.705 137.475 190.318 135.542H190.117C189.97 135.542 193.179 125.087 193.454 124.449C196.645 117.11 207.042 104.816 215.808 105.792C217.28 105.978 218.696 106.484 219.961 107.276C221.227 108.068 222.312 109.128 223.144 110.385C223.976 111.642 224.536 113.067 224.785 114.563C225.035 116.06 224.969 117.594 224.591 119.062ZM123.606 335.324C122.121 334.573 110.568 328.717 106.057 323.725C102.165 325.927 98.148 327.889 94.0273 329.599C95.0542 334.236 96.0077 338.778 96.8146 343.038C99.4369 356.496 101.106 367.795 102.169 375.735C102.408 377.424 102.591 378.944 102.774 380.315H103.361L105.195 376.467C108.697 369.41 113.557 359.236 118.856 346.774C120.47 343.114 122.047 339.266 123.606 335.324ZM169.743 163.264C169.89 163.358 172.549 152.753 172.659 152.003C173.741 144.026 171.247 127.978 163.325 124.055C161.981 123.444 160.526 123.132 159.055 123.138C157.585 123.144 156.132 123.469 154.793 124.092C153.454 124.714 152.259 125.62 151.286 126.749C150.314 127.878 149.586 129.205 149.15 130.643C147.023 136.612 149.719 143.951 152.818 149C156.65 154.837 169.743 163.264 169.743 163.264Z" fill="#C8BFFF"/>
<path opacity="0.3" d="M0.376877 146.597C-0.0130163 145.154 -0.101626 143.643 0.116807 142.163C0.335239 140.683 0.855817 139.266 1.64466 138.005C2.43349 136.745 3.4729 135.668 4.6952 134.846C5.9175 134.024 7.29528 133.474 8.73885 133.233C17.4676 132.013 28.1951 144.007 31.5876 151.271C31.881 151.89 35.3651 162.251 35.2551 162.251C35.1451 162.251 19.7781 162.607 13.47 159.792C8.02368 157.371 1.8989 152.772 0.376877 146.597ZM224.591 119.062C223.308 125.294 217.256 130.061 211.92 132.614C206.584 135.166 194.004 135.617 190.905 135.673C189.236 137.719 187.458 139.896 185.55 142.374C182.213 146.747 178.509 151.759 174.823 157.389C173.833 158.91 172.842 160.561 171.834 162.157C174.071 159.829 177.17 156.676 177.5 156.395C183.643 151.383 198.405 145.396 205.74 150.37C206.938 151.231 207.945 152.34 208.696 153.626C209.446 154.913 209.924 156.346 210.097 157.834C210.27 159.321 210.134 160.83 209.7 162.26C209.265 163.691 208.541 165.011 207.574 166.136C203.631 171.054 196.076 172.424 190.208 172.18C184.34 171.936 172.604 166.23 170.037 164.954C167.873 168.52 165.746 172.236 163.729 176.215C160.026 183.43 156.957 190.967 154.56 198.739L155 198.964C156.834 196.561 160.685 191.587 161.051 191.212C166.553 185.581 180.654 177.923 188.558 182.053C189.84 182.775 190.959 183.765 191.842 184.96C192.725 186.154 193.352 187.526 193.683 188.985C194.013 190.444 194.039 191.959 193.76 193.429C193.48 194.899 192.901 196.293 192.06 197.519C188.668 202.849 181.314 205.026 175.556 205.477C168.808 205.965 154.835 200.559 154.321 200.353C152.123 208.17 150.426 216.127 149.242 224.171C148.325 230.102 147.647 236.165 147.023 242.265C148.233 240.538 153.331 234.007 153.753 233.575C159.254 227.944 173.356 220.286 181.259 224.415C182.542 225.138 183.661 226.128 184.544 227.323C185.427 228.517 186.054 229.889 186.384 231.348C186.715 232.807 186.741 234.321 186.461 235.792C186.182 237.262 185.603 238.655 184.762 239.881C181.37 245.212 174.016 247.389 168.258 247.84C161.657 248.309 148.252 243.204 147.133 242.772C146.858 245.531 146.546 248.29 146.29 251.068C145.428 260.115 144.603 269.199 143.521 278.134C143.154 281.231 142.659 284.271 142.2 287.312C144.034 284.778 147.702 280.255 147.995 279.898C153.496 274.267 167.598 266.609 175.501 270.738C176.784 271.461 177.903 272.451 178.786 273.646C179.669 274.84 180.296 276.212 180.626 277.671C180.957 279.13 180.983 280.644 180.703 282.115C180.424 283.585 179.845 284.979 179.004 286.204C175.611 291.535 168.258 293.712 162.408 294.144C156.559 294.576 145.153 290.521 141.98 289.339C141.155 294.407 140.146 299.399 139.101 304.355C138.569 306.457 138.166 308.615 137.543 310.605C136.919 312.594 136.369 314.603 135.709 316.573C134.37 320.59 133.16 324.344 131.821 328.06C131.161 329.937 130.501 331.702 129.822 333.522C131.381 330.669 133.912 326.183 134.205 325.808C138.863 319.333 151.607 309.629 159.878 312.501C161.251 313.015 162.503 313.82 163.553 314.863C164.602 315.905 165.425 317.163 165.968 318.553C166.512 319.943 166.763 321.434 166.705 322.93C166.648 324.426 166.284 325.892 165.636 327.235C163.069 333.034 156.119 336.338 150.397 337.67C144.089 339.134 130.538 336.319 128.869 335.962C127.218 340.411 125.586 344.728 123.973 348.744C118.893 361.433 114.199 371.831 110.806 379.038C110.623 379.451 110.439 379.808 110.256 380.202H134.957L126.43 550.385C126.132 556.669 123.475 562.592 119.012 566.918C114.55 571.244 108.627 573.639 102.481 573.603C96.3905 573.588 90.5367 571.188 86.1207 566.894C81.7048 562.601 79.0616 556.741 78.7337 550.516L70.225 380.277H96.7229C96.5945 379.095 96.4662 377.856 96.3011 376.523C95.4209 368.659 93.9906 357.416 91.6801 344.033C91.0382 340.167 90.2681 336.094 89.4612 331.908C87.7375 332.133 74.0576 333.898 67.8778 331.908C62.2481 330.144 55.5732 326.277 53.446 320.346C52.8957 318.959 52.6372 317.468 52.6873 315.971C52.7374 314.474 53.095 313.005 53.7369 311.659C54.3787 310.314 55.2904 309.121 56.4125 308.16C57.5346 307.199 58.8419 306.491 60.2493 306.081C68.7763 303.848 80.7875 314.49 84.9685 321.322C85.2252 321.754 87.8292 327.272 89.0945 330.125C88.5993 327.591 88.1042 325.076 87.5357 322.448C86.7472 318.694 85.702 314.697 84.8951 310.849C84.345 308.878 83.8132 306.87 83.2631 304.861C82.7129 302.853 82.0161 300.92 81.4293 298.911C80.4574 296.002 79.3021 293.037 78.1652 290.09C74.4977 291.141 63.4951 294.031 57.8838 293.205C52.2724 292.38 44.9007 289.583 41.9117 284.008C41.1637 282.721 40.6888 281.286 40.5179 279.798C40.347 278.31 40.4839 276.802 40.9198 275.371C41.3556 273.941 42.0806 272.621 43.0476 271.496C44.0147 270.371 45.2021 269.467 46.5327 268.843C54.638 265.333 68.0612 273.986 73.214 280.104C73.3791 280.292 74.3326 281.7 75.4512 283.37C74.2593 280.517 73.0673 277.739 71.7837 274.83C68.1162 266.759 64.0636 258.651 60.0659 250.43C59.2407 248.741 58.4339 247.033 57.6087 245.325C54.4729 246.225 42.6452 249.473 36.7588 248.59C30.8724 247.708 23.7757 244.968 20.7867 239.393C20.036 238.108 19.559 236.674 19.3867 235.187C19.2144 233.699 19.3509 232.192 19.787 230.762C20.2232 229.332 20.9493 228.013 21.9179 226.89C22.8865 225.767 24.0757 224.866 25.4078 224.246C33.4947 220.718 46.9362 229.389 52.0891 235.508C52.2724 235.733 53.4094 237.385 54.6747 239.262C52.5658 234.795 50.512 230.328 48.6049 225.842C45.3119 218.136 42.5185 210.217 40.2429 202.136C39.1427 202.474 25.3528 206.566 18.8062 205.589C12.9932 204.726 5.82316 201.967 2.83412 196.392C2.09431 195.113 1.62458 193.689 1.45521 192.213C1.28584 190.736 1.4206 189.24 1.85078 187.82C2.28096 186.4 2.99703 185.088 3.95285 183.968C4.90866 182.849 6.083 181.947 7.4002 181.321C15.5054 177.792 28.9286 186.463 34.0815 192.582C34.4482 193.014 38.5192 199.114 39.9129 201.329C39.905 201.235 39.905 201.141 39.9129 201.047C37.8699 193.053 36.532 184.886 35.9153 176.647C35.3154 169.294 35.1439 161.911 35.4018 154.536C35.5485 147.704 36.0986 141.398 36.6488 135.936C36.9605 132.933 37.2906 130.211 37.639 127.677L37.4923 127.771C37.3456 127.771 34.3932 117.354 34.2832 116.66C32.9812 108.72 35.0534 92.5972 42.8652 88.5055C44.1816 87.8518 45.6179 87.4899 47.0803 87.4434C48.5427 87.3968 49.9982 87.6667 51.3517 88.2354C52.7052 88.8041 53.9262 89.6587 54.9349 90.7435C55.9436 91.8283 56.7172 93.1187 57.2053 94.5305C59.4975 100.443 57.0035 107.857 53.9412 113C50.8788 118.142 40.628 125.613 38.0791 127.396C37.7674 130.042 37.474 132.877 37.2172 136.03C36.7955 141.548 36.3737 147.779 36.3554 154.593C36.3554 156.47 36.3553 158.347 36.447 160.224C37.0522 157.033 37.9324 152.716 38.0608 152.228C40.4813 144.57 49.5585 131.244 58.3789 131.244C59.8407 131.29 61.2766 131.651 62.5935 132.302C63.9103 132.954 65.0787 133.881 66.0228 135.024C66.9669 136.168 67.6656 137.501 68.0736 138.939C68.4817 140.376 68.5899 141.886 68.3912 143.369C67.7494 149.694 62.1931 155.1 57.1686 158.215C52.1441 161.331 39.271 163.189 36.5021 163.527C36.6121 167.731 36.8505 172.03 37.3273 176.516C38.1262 184.657 39.6297 192.709 41.82 200.578H42.3151C42.5168 197.556 43.0853 191.193 43.177 190.687C44.7723 182.803 52.3458 168.539 61.1295 167.563C62.5878 167.444 64.0543 167.64 65.4337 168.139C66.8131 168.637 68.0746 169.427 69.1363 170.458C70.1981 171.488 71.0363 172.735 71.5966 174.118C72.157 175.501 72.4269 176.99 72.3888 178.486C72.3888 184.849 67.4743 190.837 62.8166 194.497C57.3703 198.57 42.8102 201.967 42.2417 202.08C44.6209 209.84 47.4938 217.433 50.8421 224.809C53.2443 230.271 55.995 235.752 58.7456 241.158C58.7456 239.018 59.5525 230.703 59.6809 230.102C61.2762 222.219 68.8497 207.954 77.6151 206.978C79.0724 206.857 80.5385 207.05 81.9179 207.547C83.2973 208.044 84.5591 208.832 85.6211 209.86C86.6832 210.889 87.5218 212.135 88.0823 213.517C88.6428 214.9 88.9127 216.387 88.8744 217.884C88.8744 224.246 83.9782 230.234 79.3205 233.894C74.0759 238.023 60.1393 241.402 58.9657 241.608C60.231 244.067 61.4596 246.545 62.7432 249.003C66.9059 257.037 71.1052 265.07 75.0111 273.141C76.3681 275.938 77.6151 278.772 78.862 281.55C79.0821 278.359 79.6139 272.578 79.7056 272.071C81.3009 264.207 88.8744 249.923 97.6398 248.947C99.0981 248.828 100.565 249.024 101.944 249.523C103.323 250.022 104.585 250.812 105.647 251.842C106.708 252.872 107.547 254.119 108.107 255.502C108.667 256.886 108.937 258.374 108.899 259.871C108.899 266.234 104.003 272.221 99.3452 275.881C94.6874 279.541 83.0063 282.601 79.7056 283.389C81.7594 288.063 83.6848 292.774 85.3719 297.466C86.0504 299.512 86.8756 301.558 87.4257 303.566L89.2595 309.516C90.3231 313.627 91.3316 317.437 92.2118 321.303C92.6886 323.18 93.0737 325.057 93.4955 326.934C93.2571 323.687 92.9637 318.507 92.982 318.037C93.3855 310.004 98.7767 294.707 107.285 292.398C108.715 292.034 110.205 291.984 111.655 292.253C113.105 292.522 114.483 293.104 115.696 293.96C116.91 294.815 117.932 295.925 118.695 297.215C119.458 298.506 119.945 299.948 120.122 301.445C120.244 302.221 120.293 303.006 120.268 303.791C123.748 309.922 125.641 316.861 125.77 323.95C125.77 324.457 124.945 330.538 124.468 333.616C125.421 331.232 126.302 328.849 127.292 326.352C128.667 322.749 130.024 318.845 131.344 315.091C131.95 313.214 132.573 311.149 133.178 309.16C133.783 307.17 134.26 305.162 134.81 303.153C135.58 300.169 136.222 297.053 136.864 293.937C133.197 292.736 122.506 288.964 118.27 285.097C114.034 281.231 109.394 274.736 109.889 268.392C109.962 266.897 110.341 265.434 111.001 264.098C111.662 262.763 112.589 261.584 113.724 260.639C114.858 259.694 116.174 259.003 117.585 258.612C118.997 258.221 120.474 258.139 121.919 258.369C130.574 260.002 137.102 274.811 138.129 282.77C138.129 283.014 138.129 284.647 138.129 286.768C138.679 283.708 139.23 280.667 139.67 277.552C140.935 268.73 141.944 259.683 143.007 250.655C143.209 248.778 143.466 246.901 143.686 245.024C140.605 244.011 129.016 240.032 124.541 235.977C120.067 231.923 115.666 225.617 116.179 219.291C116.247 217.795 116.621 216.331 117.279 214.993C117.936 213.655 118.862 212.474 119.995 211.526C121.128 210.579 122.444 209.886 123.856 209.494C125.268 209.102 126.745 209.019 128.19 209.25C136.864 210.883 143.392 225.71 144.401 233.65C144.401 233.931 144.401 235.977 144.511 238.267C145.153 233.35 145.868 228.47 146.693 223.646C148.097 215.391 150.033 207.239 152.488 199.245C151.406 198.889 137.689 194.516 132.756 190.011C128.374 185.994 123.881 179.65 124.376 173.306C124.449 171.811 124.827 170.348 125.488 169.012C126.148 167.676 127.076 166.498 128.21 165.553C129.345 164.608 130.66 163.917 132.072 163.526C133.484 163.135 134.96 163.052 136.406 163.283C145.061 164.916 151.589 179.725 152.616 187.683C152.616 188.246 152.799 195.623 152.744 198.269V197.988C155.357 190.201 158.634 182.664 162.537 175.464C166.01 168.985 169.849 162.717 174.034 156.695C177.849 151.064 181.681 146.184 185.037 141.886C186.871 139.558 188.705 137.475 190.318 135.542H190.117C189.97 135.542 193.179 125.087 193.454 124.449C196.645 117.11 207.042 104.816 215.808 105.792C217.28 105.978 218.696 106.484 219.961 107.276C221.227 108.068 222.312 109.128 223.144 110.385C223.976 111.642 224.536 113.067 224.785 114.563C225.035 116.06 224.969 117.594 224.591 119.062ZM123.606 335.324C122.121 334.573 110.568 328.717 106.057 323.725C102.165 325.927 98.148 327.889 94.0273 329.599C95.0542 334.236 96.0077 338.778 96.8146 343.038C99.4369 356.496 101.106 367.795 102.169 375.735C102.408 377.424 102.591 378.944 102.774 380.315H103.361L105.195 376.467C108.697 369.41 113.557 359.236 118.856 346.774C120.47 343.114 122.047 339.266 123.606 335.324ZM169.743 163.264C169.89 163.358 172.549 152.753 172.659 152.003C173.741 144.026 171.247 127.978 163.325 124.055C161.981 123.444 160.526 123.132 159.055 123.138C157.585 123.144 156.132 123.469 154.793 124.092C153.454 124.714 152.259 125.62 151.286 126.749C150.314 127.878 149.586 129.205 149.15 130.643C147.023 136.612 149.719 143.951 152.818 149C156.65 154.837 169.743 163.264 169.743 163.264Z" fill="white"/>
<path d="M638.362 581.599C631.721 586.56 624.72 590.996 617.421 594.869C608.784 598.942 607.115 598.942 607.445 601.325C607.775 603.709 617.751 607.444 636.033 603.033C654.316 598.623 662.953 599.617 665.612 590.777C668.271 581.936 663.962 584.32 658.644 584.32C651.841 583.778 645.071 582.87 638.362 581.599Z" fill="#2E353A" stroke="#2E353A" stroke-linecap="round" stroke-linejoin="round"/>
<path d="M664.622 593.123C656.828 595.225 642.782 598.754 631.045 600.631C623.34 602.059 615.419 601.7 607.867 599.58C607.662 599.809 607.517 600.087 607.443 600.389C607.369 600.69 607.37 601.006 607.445 601.307C607.775 603.69 617.751 607.425 636.033 603.015C652.501 599.054 661.119 599.448 664.622 593.123Z" fill="white" stroke="#2E353A" stroke-linecap="round" stroke-linejoin="round"/>
<path d="M728.07 419.149C728.07 419.149 728.749 431.067 720.735 447.397C712.721 463.726 689.213 465.078 682.904 465.078C676.596 465.078 678.577 458.283 678.577 458.283L679.567 452.145L668.931 449.424C668.931 449.424 640.691 487.883 640.691 490.942C640.691 494.001 669.885 564.237 671.553 572.402C673.222 580.566 674.212 582.612 670.545 585.672C667.828 587.633 664.706 588.93 661.422 589.46C658.137 589.991 654.777 589.741 651.602 588.731C646.665 587.15 641.883 585.102 637.317 582.612C637.131 579.556 637.131 576.49 637.317 573.434C637.647 570.374 642.635 572.758 640.306 567.653C637.977 562.548 636.639 561.177 635.318 557.78C633.998 554.383 602.549 500.74 603.887 488.145C605.226 475.551 634.713 431.837 634.713 430.823C635.955 427.636 637.395 424.533 639.022 421.532C639.022 421.532 640.343 417.103 643.68 416.427C647.018 415.751 697.85 416.427 710.814 414.738C723.779 413.049 730.087 413.705 728.07 419.149Z" fill="#C8BFFF" stroke="#2E353A" stroke-linecap="round" stroke-linejoin="round"/>
<path d="M645.202 515.736L647.091 519.847" stroke="#2E353A" stroke-width="0.75" stroke-linecap="round" stroke-linejoin="round"/>
<path d="M651.144 469.057L636.804 488.239C636.804 488.239 618.466 490.51 623.967 490.886C629.468 491.261 634.97 491.261 634.97 491.261C634.97 491.261 630.184 492.763 631.302 493.513C632.59 494.039 633.968 494.295 635.355 494.264L643.185 511.307" stroke="#2E353A" stroke-width="0.75" stroke-linecap="round" stroke-linejoin="round"/>
<path d="M623.124 275.919C623.124 275.919 618.484 278.546 611.498 282.619C604.511 286.692 600.495 288.738 599.541 292.154C598.588 295.57 578.251 338.177 578.251 338.177C578.251 338.177 586.228 342.945 593.545 346.342C599.105 348.681 604.897 350.393 610.819 351.447L617.476 337.164C617.476 337.164 630.312 361.977 635.813 370.836C645.606 386.659 642.451 396.363 641.131 401.806C639.811 407.249 636.143 417.459 637.134 418.811C638.124 420.162 664.053 432.081 680.685 431.067C697.318 430.054 725.814 428.477 727.813 426.093C729.812 423.71 730.142 409.97 730.142 408.938C730.142 407.906 727.208 381.384 724.219 365.393C721.23 349.401 704.946 306.532 699.628 294.97C694.31 283.408 689.322 279.654 675.789 274.905C662.256 270.157 642.213 269.124 633.906 270.138C625.599 271.151 623.124 275.919 623.124 275.919Z" fill="#2E353A" stroke="#2E353A" stroke-linecap="round" stroke-linejoin="round"/>
<path d="M679.072 321.547L699.665 328.323L682.391 330.2" stroke="white" stroke-width="0.75" stroke-linecap="round" stroke-linejoin="round"/>
<path d="M645.257 375.36C645.257 375.36 665.099 391.914 689.378 391.914" stroke="white" stroke-width="0.75" stroke-linecap="round" stroke-linejoin="round"/>
<path d="M651.877 390.413C651.877 390.413 668.381 398.315 685.325 395.687" stroke="white" stroke-width="0.75" stroke-linecap="round" stroke-linejoin="round"/>
<path d="M609.224 316.292L617.476 337.164L600.036 311.393" stroke="white" stroke-width="0.75" stroke-linecap="round" stroke-linejoin="round"/>
<path d="M621.712 278.302C621.263 282.139 621.153 286.008 621.382 289.864C621.712 297.016 624.041 302.121 622.042 307.226C620.043 312.332 622.39 314.734 624.371 312.332C626.351 309.929 629.689 300.751 630.367 299.062C631.046 297.372 645.037 294.294 646.981 294.294C648.925 294.294 655.288 304.505 658.277 305.856C661.266 307.208 660.606 304.505 658.607 299.062C656.608 293.618 654.298 274.661 649.64 268.768C644.982 262.874 626.443 264.357 621.712 278.302Z" fill="white" stroke="#2E353A" stroke-linecap="round" stroke-linejoin="round"/>
<path d="M625.122 284.421C623.289 283.764 634.75 301.783 639.407 310.961C644.065 320.14 648.375 317.775 649.053 310.624C649.731 303.472 646.724 279.654 646.724 279.654C646.724 279.654 634.75 287.837 625.122 284.421Z" fill="white" stroke="#2E353A" stroke-linecap="round" stroke-linejoin="round"/>
<path d="M648.925 302.065C644.637 303.948 639.89 304.445 635.318 303.491C636.877 306.231 638.325 308.84 639.407 310.999C644.065 320.177 648.375 317.812 649.053 310.661C649.196 307.796 649.153 304.924 648.925 302.065Z" fill="#C8BFFF" stroke="#2E353A" stroke-linecap="round" stroke-linejoin="round"/>
<path d="M658.68 428.796V470.859" stroke="#2E353A" stroke-width="4" stroke-linecap="round" stroke-linejoin="round"/>
<path d="M693.925 438.275C693.736 438.293 693.546 438.293 693.357 438.275L631.541 430.767C630.316 430.568 629.213 429.891 628.464 428.879C627.715 427.867 627.378 426.598 627.522 425.337C627.667 424.076 628.282 422.921 629.24 422.114C630.197 421.307 631.422 420.91 632.659 421.007L694.475 428.515C695.722 428.617 696.879 429.215 697.7 430.181C698.521 431.146 698.941 432.402 698.869 433.679C698.797 434.957 698.24 436.155 697.316 437.017C696.392 437.88 695.175 438.338 693.925 438.294V438.275Z" fill="white" stroke="#2E353A" stroke-linecap="round" stroke-linejoin="round"/>
<path d="M694.2 436.717C695.851 436.717 697.189 435.103 697.189 433.113C697.189 431.123 695.851 429.509 694.2 429.509C692.55 429.509 691.211 431.123 691.211 433.113C691.211 435.103 692.55 436.717 694.2 436.717Z" fill="white" stroke="#2E353A" stroke-width="0.75" stroke-linecap="round" stroke-linejoin="round"/>
<path d="M638.069 614.164L675.129 632.839C675.343 632.937 675.574 632.987 675.808 632.987C676.041 632.987 676.273 632.937 676.486 632.839L698.73 624.412C699.047 624.292 699.322 624.078 699.521 623.797C699.719 623.516 699.831 623.182 699.843 622.835C699.855 622.489 699.765 622.147 699.587 621.853C699.408 621.559 699.148 621.326 698.84 621.183L664.108 604.723C663.753 604.554 663.352 604.514 662.971 604.61L638.436 610.898C638.093 610.979 637.784 611.168 637.55 611.436C637.316 611.705 637.168 612.041 637.128 612.399C637.088 612.756 637.157 613.118 637.325 613.434C637.494 613.75 637.753 614.005 638.069 614.164Z" fill="white" stroke="#2E353A" stroke-linecap="round" stroke-linejoin="round"/>
<path d="M667.556 620.376H660.221C658.554 620.371 656.957 619.692 655.778 618.485C654.6 617.279 653.936 615.644 653.931 613.938L649.328 476.358C649.328 474.81 649.929 473.325 650.998 472.23C652.068 471.136 653.519 470.521 655.031 470.521H663.558C665.071 470.521 666.521 471.136 667.591 472.23C668.66 473.325 669.261 474.81 669.261 476.358L673.864 613.938C673.864 614.785 673.701 615.624 673.383 616.407C673.066 617.189 672.601 617.899 672.015 618.497C671.429 619.095 670.734 619.569 669.968 619.892C669.203 620.214 668.383 620.379 667.556 620.376Z" fill="white" stroke="#2E353A" stroke-linecap="round" stroke-linejoin="round"/>
<path d="M685.563 615.609C679.987 620.969 674.102 625.984 667.941 630.625C660.606 635.73 659.964 635.054 661.633 638.451C663.301 641.849 668.271 643.895 682.244 640.835C696.218 637.776 700.857 635.392 708.504 630.962C716.151 626.533 718.461 626.533 716.481 623.811C714.5 621.09 685.563 615.609 685.563 615.609Z" fill="#2E353A" stroke="#2E353A" stroke-linecap="round" stroke-linejoin="round"/>
<path d="M708.504 630.925C716.132 626.495 718.461 626.495 716.481 623.774C715.955 623.272 715.33 622.894 714.647 622.666C704.513 628.796 693.782 633.829 682.629 637.682C668.326 642.093 661.358 636.987 661.358 636.987L661.193 637.269C661.337 637.641 661.503 638.005 661.688 638.357C663.338 641.755 668.326 643.801 682.299 640.741C696.273 637.682 700.857 635.354 708.504 630.925Z" fill="white" stroke="#2E353A" stroke-linecap="round" stroke-linejoin="round"/>
<path d="M738.119 343.62C735.742 338.292 733.636 332.842 731.811 327.291C726.236 330.012 709.201 344.615 709.201 344.615L724.164 365.355C724.164 365.355 709.879 386.452 703.222 398.371C698.331 406.503 692.28 413.842 685.27 420.143L668.931 419.937C668.21 420.406 667.602 421.036 667.154 421.781C666.706 422.526 666.429 423.365 666.345 424.235C666.345 426.863 663.448 436.116 664.732 437.768C666.015 439.42 673.772 439.739 673.772 439.739C673.772 439.739 686.352 441.071 688.607 437.768C688.607 437.768 684.738 433.47 685.05 431.499C685.362 429.528 689.249 428.196 689.249 428.196L693.467 427.876C693.467 427.876 694.915 428.909 696.126 422.246C699.39 420.031 711.254 411.885 717.526 405.466C724.861 397.958 746.444 373.145 748.095 368.377C749.745 363.61 742.447 353.493 738.119 343.62Z" fill="white" stroke="#2E353A" stroke-linecap="round" stroke-linejoin="round"/>
<path d="M736.579 339.998C733.333 332.208 731.811 327.291 731.811 327.291C726.236 330.012 709.201 344.615 709.201 344.615L716.316 354.469C724.281 351.725 731.313 346.703 736.579 339.998Z" fill="#C8BFFF" stroke="#2E353A" stroke-linecap="round" stroke-linejoin="round"/>
<path d="M690.588 319.126L708.21 351.034L718.516 343.883C724.336 339.468 729.489 334.2 733.81 328.248C726.653 316.644 718.654 305.608 709.879 295.233C695.906 278.903 689.268 277.89 683.289 278.227" fill="#2E353A"/>
<path d="M690.588 319.126L708.21 351.034L718.516 343.883C724.336 339.468 729.489 334.2 733.81 328.248C726.653 316.644 718.654 305.608 709.879 295.233C695.906 278.903 689.268 277.89 683.289 278.227" stroke="#2E353A" stroke-linecap="round" stroke-linejoin="round"/>
<path d="M647.641 429.885C647.641 428.552 642.14 414.7 642.14 414.7L625.636 405.409C618.833 391.407 608.38 368.997 606.583 365.055C605.242 362.321 604.125 359.476 603.246 356.552L606.051 350.434C601.792 349.467 597.63 348.098 593.618 346.342C590.519 344.915 587.328 343.245 584.669 341.781C583.202 347.524 580.69 357.416 581.644 362.333C582.597 367.251 604.291 395.368 615.128 409.576C615.128 409.576 619.658 429.228 621.602 432.193L623.545 435.159C623.545 435.159 626.754 438.8 628.368 438.462C629.754 438.016 631.06 437.344 632.237 436.473C633.384 436.857 634.599 436.972 635.795 436.811C637.368 436.118 638.789 435.109 639.976 433.845C639.976 433.845 641.59 435.722 645.477 434.84C649.365 433.958 647.641 431.199 647.641 429.885Z" fill="white" stroke="#2E353A" stroke-linecap="round" stroke-linejoin="round"/>
<path d="M582.652 349.946C588.872 354.257 596.032 356.939 603.502 357.754C603.264 357.022 603.172 356.646 603.172 356.646L605.978 350.527C601.719 349.561 597.556 348.191 593.545 346.436C590.446 345.009 587.255 343.339 584.596 341.875C584.009 344.052 583.203 346.942 582.652 349.946Z" fill="#C8BFFF" stroke="#2E353A" stroke-linecap="round" stroke-linejoin="round"/>
<path d="M344.813 440.039V428.552" stroke="#2E353A" stroke-width="6" stroke-linecap="round" stroke-linejoin="round"/>
<path d="M659.176 593.067L645.294 595.432C645.294 595.432 636.822 597.797 635.282 605.68C631.577 624.656 612.396 631.788 596.039 635.542C572.893 641.02 549.409 644.877 525.751 647.085C489.662 650.37 453.005 649.751 417.265 643.332C396.745 639.578 365.461 635.523 350.168 619.532C348.877 618.322 347.906 616.798 347.344 615.102C346.115 610.485 350.296 606.281 354.33 603.841C361.74 599.781 369.637 596.733 377.821 594.775C398.818 588.881 425.04 587.755 444.607 578.408C450.328 575.686 453.776 571.332 447.944 566.076C429.79 549.615 344.813 546.706 344.813 515.755V440.039" stroke="#2E353A" stroke-width="3" stroke-linecap="round" stroke-linejoin="round"/>
<path d="M608.289 261.147C607.633 257.589 606.485 254.144 604.878 250.918C602.604 246.957 596.351 240.576 595.214 234.532C594.077 228.488 602.842 221.393 602.842 221.393C602.842 221.393 598.056 221.393 599.175 219.291C600.293 217.189 605.776 218.127 605.776 218.127C605.404 217.033 605.314 215.859 605.513 214.719C605.712 213.578 606.194 212.509 606.913 211.614C609.407 208.593 610.324 214.411 610.324 214.411C613.011 208.777 617.184 204.025 622.372 200.691C630.55 195.792 645.111 202.568 646.706 206.734C648.301 210.901 644.45 209.475 644.45 209.475C644.45 209.475 663.998 218.54 665.355 231.998C666.712 245.456 655.361 243.166 655.361 243.166C655.361 243.166 656.04 251.087 654.444 253.883C652.849 256.68 652.171 257.637 644.212 251.087C636.253 244.536 619.896 246.901 618.979 252.025C618.063 257.149 615.312 264.807 611.259 263.887C607.207 262.968 608.289 261.147 608.289 261.147Z" fill="#2E353A" stroke="#2E353A" stroke-linecap="round" stroke-linejoin="round"/>
<path d="M619.529 230.497C619.529 230.497 611.663 223.552 620.245 222.107C628.827 220.661 632.017 236.353 640.948 239.637C646.464 241.541 652.49 241.15 657.727 238.549" stroke="white" stroke-width="0.5" stroke-linecap="round" stroke-linejoin="round"/>
<path d="M618.191 229.277C618.191 229.277 609.187 223.27 609.957 219.254C610.727 215.237 625.251 210.019 633.081 214.843C640.911 219.667 641.315 229.69 651.107 232.092C660.899 234.495 659.34 228.882 658.167 227.268" stroke="white" stroke-width="0.5" stroke-linecap="round" stroke-linejoin="round"/>
<path d="M600.953 236.109C599.376 234.1 598.991 226.48 605.263 225.279C611.534 224.077 616.632 230.909 616.632 230.909C615.44 231.698 608.398 233.706 607.225 239.731C606.051 245.756 611.919 245.737 609.187 250.993" stroke="white" stroke-width="0.5" stroke-linecap="round" stroke-linejoin="round"/>
<path d="M609.425 261.297C609.425 261.297 609.095 260.866 608.6 260.34C607.39 259.064 603.979 258.144 602.934 260.697C601.467 264.319 605.465 271.189 608.435 272.09C609.248 272.367 610.115 272.436 610.959 272.288C611.804 272.141 612.6 271.783 613.276 271.245C613.276 271.245 621.455 288.138 631.742 292.098C642.03 296.058 647.109 283.595 650.355 275.206C653.601 266.816 652.409 263.775 652.409 263.775C652.409 263.775 657.91 265.108 659.616 258.482C661.321 251.856 658.589 249.322 656.828 249.623C655.171 250.098 653.585 250.806 652.116 251.725L649.475 244.499C649.475 244.499 644.469 247.52 635.942 244.198C627.415 240.876 623.289 232.768 621.272 233.368C619.254 233.969 619.438 239.374 619.438 239.374C619.438 239.374 615.624 237.272 614.157 239.074C612.69 240.876 616.504 242.997 614.743 249.623C612.983 256.248 610.892 258.275 610.892 258.275C610.892 258.275 612.359 261.279 611.186 261.279L609.425 261.297Z" fill="white" stroke="#2E353A" stroke-linecap="round" stroke-linejoin="round"/>
<path d="M626.443 256.886C626.718 258.163 626.351 259.308 625.654 259.458C624.957 259.608 624.15 258.726 623.82 257.45C623.49 256.173 623.912 255.028 624.627 254.878C625.342 254.728 626.186 255.629 626.443 256.886Z" fill="#2E353A"/>
<path d="M640.544 255.235C640.544 256.53 640.031 257.619 639.297 257.637C638.564 257.656 637.959 256.624 637.922 255.329C637.885 254.034 638.417 252.964 639.151 252.945C639.884 252.926 640.489 253.94 640.544 255.235Z" fill="#2E353A"/>
<path d="M619.016 252.814C619.527 251.559 620.349 250.463 621.401 249.634C622.452 248.804 623.697 248.27 625.012 248.084" stroke="#2E353A" stroke-linecap="round" stroke-linejoin="round"/>
<path d="M636.657 247.22C637.975 246.895 639.357 246.97 640.634 247.437C641.911 247.904 643.027 248.742 643.845 249.848" stroke="#2E353A" stroke-linecap="round" stroke-linejoin="round"/>
<path d="M639.041 274.023C639.041 274.023 628.955 277.871 623.985 270.682" stroke="#2E353A" stroke-linecap="round" stroke-linejoin="round"/>
<path d="M627.213 273.854C627.213 273.854 627.561 280.855 631.155 282.263C634.75 283.671 636.455 274.755 636.455 274.755C633.349 275.225 630.177 274.916 627.213 273.854Z" fill="#2E353A" stroke="#2E353A" stroke-linecap="round" stroke-linejoin="round"/>
<path d="M628.038 278.115C628.239 278.996 628.624 279.823 629.165 280.538C629.706 281.254 630.391 281.842 631.174 282.263C633.008 282.995 634.42 280.874 635.3 278.697C632.985 277.789 630.463 277.587 628.038 278.115Z" fill="white" stroke="#2E353A" stroke-linecap="round" stroke-linejoin="round"/>
<path d="M636.143 249.66C635.065 253.427 635.002 257.422 635.96 261.222C637.684 266.665 640.251 266.853 639.224 267.529C638.197 268.204 633.723 269.105 632.714 268.242" fill="white"/>
<path d="M636.143 249.66C635.065 253.427 635.002 257.422 635.96 261.222C637.684 266.665 640.251 266.853 639.224 267.529C638.197 268.204 633.723 269.105 632.714 268.242" stroke="#2E353A" stroke-linecap="round" stroke-linejoin="round"/>
<path d="M677.917 445.032C677.917 445.032 659.01 491.28 658.387 501.49C657.763 511.701 686.26 598.942 686.92 602.695C687.58 606.449 682.281 605.755 682.281 609.49C682.349 612.079 682.909 614.629 683.931 616.998C684.261 618.011 710.521 626.176 714.849 626.514C719.176 626.852 721.157 625.838 721.157 622.76C721.157 619.682 719.176 610.166 719.176 609.152C719.176 608.139 724.494 601.644 722.495 592.485C720.497 583.325 701.902 525.309 699.573 519.171C697.244 513.034 694.585 506.596 694.585 506.596C695.608 505.064 696.29 503.321 696.584 501.49C696.786 499.908 696.786 498.305 696.584 496.723C696.584 496.723 725.393 449.48 725.429 434.784" fill="#C8BFFF"/>
<path d="M677.917 445.032C677.917 445.032 659.01 491.28 658.387 501.49C657.763 511.701 686.26 598.942 686.92 602.695C687.58 606.449 682.281 605.755 682.281 609.49C682.349 612.079 682.909 614.629 683.931 616.998C684.261 618.011 710.521 626.176 714.849 626.514C719.176 626.852 721.157 625.838 721.157 622.76C721.157 619.682 719.176 610.166 719.176 609.152C719.176 608.139 724.494 601.644 722.495 592.485C720.497 583.325 701.902 525.309 699.573 519.171C697.244 513.034 694.585 506.596 694.585 506.596C695.608 505.064 696.29 503.321 696.584 501.49C696.786 499.908 696.786 498.305 696.584 496.723C696.584 496.723 725.393 449.48 725.429 434.784" stroke="#2E353A" stroke-linecap="round" stroke-linejoin="round"/>
<path d="M698.088 542.84C705.606 566.977 714.482 595.713 715.105 599.993C716.206 607.5 714.005 609.04 714.739 612.793C715.472 616.547 716.939 621.822 716.939 621.822" stroke="#2E353A" stroke-width="0.75" stroke-linecap="round" stroke-linejoin="round"/>
<path d="M714.72 440.339C708.999 454.623 698.473 480.975 696.383 486.4C693.43 493.907 688.277 499.951 689.396 500.702C690.514 501.453 693.43 501.453 691.23 504.081C689.029 506.708 687.562 507.478 687.562 508.604C687.562 508.998 690.936 519.772 695.301 533.793" stroke="#2E353A" stroke-width="0.75" stroke-linecap="round" stroke-linejoin="round"/>
<path d="M718.406 431.048L716.572 435.76" stroke="#2E353A" stroke-width="0.75" stroke-linecap="round" stroke-linejoin="round"/>
<path d="M668.986 438.782C668.986 438.782 670.05 426.713 671.132 425.249" stroke="#2E353A" stroke-width="0.75" stroke-linecap="round" stroke-linejoin="round"/>
<path d="M677.568 425.324C677.568 425.324 672.837 440.846 673.772 439.851" stroke="#2E353A" stroke-width="0.75" stroke-linecap="round" stroke-linejoin="round"/>
<path d="M681.144 426.337L678.998 438.05C678.998 438.05 678.632 439.157 681.859 439.514" stroke="#2E353A" stroke-width="0.75" stroke-linecap="round" stroke-linejoin="round"/>
<path d="M639.903 433.845L637.885 431.461" stroke="#2E353A" stroke-width="0.75" stroke-linecap="round" stroke-linejoin="round"/>
<path d="M632.164 436.473L630.367 435.121" stroke="#2E353A" stroke-width="0.75" stroke-linecap="round" stroke-linejoin="round"/>
<path d="M628.295 438.463L625.728 434.389" stroke="#2E353A" stroke-width="0.75" stroke-linecap="round" stroke-linejoin="round"/>
<path d="M517.187 390.919C528.687 378.162 538.767 364.136 547.242 349.101" stroke="#2E353A" stroke-linecap="round" stroke-linejoin="round"/>
<path d="M368.652 465.115C421.506 460.732 471.185 437.519 509.045 399.516" stroke="#2E353A" stroke-linecap="round" stroke-linejoin="round"/>
<path d="M316.28 463.37C323.634 464.501 331.04 465.253 338.468 465.622" stroke="#2E353A" stroke-linecap="round" stroke-linejoin="round"/>
<path d="M246.908 436.586C251.615 439.088 256.389 441.422 261.23 443.587" stroke="#2E353A" stroke-linecap="round" stroke-linejoin="round"/>
<path d="M125.715 250.993C128.949 287.489 140.533 322.694 159.53 353.756C178.527 384.818 204.403 410.866 235.062 429.791" stroke="#2E353A" stroke-linecap="round" stroke-linejoin="round"/>
<path d="M478.091 42.4263C445.715 19.5081 408.093 5.56095 368.888 1.94281C329.683 -1.67533 290.23 5.15884 254.372 21.7799" stroke="#2E353A" stroke-linecap="round" stroke-linejoin="round"/>
<path d="M558.337 139.183C556.075 133.928 553.63 128.785 551.002 123.755" stroke="#2E353A" stroke-linecap="round" stroke-linejoin="round"/>
<path d="M470.573 394.917C482.843 385.589 494.055 374.887 504.002 363.009" stroke="#2E353A" stroke-linecap="round" stroke-linejoin="round"/>
<path d="M326.805 435.441C374.387 440.544 422.211 428.41 461.954 401.149" stroke="#2E353A" stroke-linecap="round" stroke-linejoin="round"/>
<path d="M280.631 424.986C286.915 427.201 293.351 429.122 299.941 430.748" stroke="#2E353A" stroke-linecap="round" stroke-linejoin="round"/>
<path d="M151.241 286.786C152.622 291.479 154.156 296.108 155.843 300.676" stroke="#2E353A" stroke-linecap="round" stroke-linejoin="round"/>
<path d="M191.969 89.7631C170.983 114.895 156.073 144.731 148.446 176.856C140.82 208.982 140.69 242.494 148.068 274.68" stroke="#2E353A" stroke-linecap="round" stroke-linejoin="round"/>
<path d="M434.466 35.857C402.24 20.5721 366.695 14.0942 331.296 17.0547C295.897 20.0152 261.851 32.313 232.477 52.7496" stroke="#2E353A" stroke-linecap="round" stroke-linejoin="round"/>
<path d="M539.027 149.638C522.194 105.889 491.562 69.152 451.997 45.2605" stroke="#2E353A" stroke-linecap="round" stroke-linejoin="round"/>
<path d="M547.884 178.693C546.747 173.644 545.409 168.67 543.905 163.771" stroke="#2E353A" stroke-linecap="round" stroke-linejoin="round"/>
<path d="M539.449 228.638C539.449 226.161 541.613 223.646 541.521 221.131C541.429 218.616 539.082 216.307 538.917 213.867C538.752 211.427 540.751 208.724 540.457 206.359C540.164 203.994 537.67 201.742 537.322 199.302C536.973 196.862 538.752 194.046 538.294 191.625C537.835 189.204 535.194 187.233 534.626 184.83C534.058 182.428 535.653 179.481 535.048 177.097C534.443 174.714 531.619 172.968 530.904 170.603C530.188 168.238 531.545 165.179 530.757 162.87C529.968 160.562 527.089 159.004 526.154 156.714C525.219 154.424 526.392 151.252 525.439 149C524.485 146.747 521.441 145.433 520.396 143.219C519.351 141.004 520.231 137.757 519.112 135.579C517.994 133.402 514.876 132.351 513.611 130.211C512.346 128.072 513.061 124.787 511.777 122.703C510.494 120.62 507.303 119.794 505.946 117.767C504.589 115.74 504.992 112.399 503.562 110.409C502.132 108.42 498.904 107.857 497.401 105.924C495.897 103.99 496.062 100.649 494.485 98.7724C492.908 96.8954 489.644 96.5763 488.012 94.7745C486.38 92.9726 486.288 89.6129 484.583 87.8673C482.877 86.1217 479.595 85.9903 477.834 84.3574C476.074 82.7245 475.744 79.3459 473.928 77.7318C472.113 76.1176 468.812 76.2865 466.942 74.7474C465.071 73.2083 464.484 69.9049 462.559 68.4409C460.634 66.9769 457.37 67.3898 455.371 66.0008C453.372 64.6119 452.583 61.346 450.53 60.0321C448.476 58.7183 445.285 59.394 443.194 58.1552C441.104 56.9164 440.077 53.7444 437.95 52.5244C435.823 51.3043 432.65 52.2804 430.487 51.2105C428.323 50.1406 427.057 47.0437 424.839 46.0489C422.62 45.0541 419.557 46.2178 417.302 45.3169C415.046 44.4159 413.634 41.4316 411.287 40.6057C408.94 39.7799 406.042 41.1876 403.732 40.4556C401.421 39.7236 399.716 36.8706 397.387 36.2324C395.058 35.5943 392.197 37.2085 389.832 36.6454C387.466 36.0823 385.578 33.3795 383.194 32.8915C380.81 32.4035 378.096 34.2616 375.694 33.8863C373.291 33.5109 371.219 30.9582 368.817 30.6767C366.415 30.3951 363.811 32.441 361.482 32.2533C359.153 32.0656 356.788 29.6819 354.367 29.5881C351.946 29.4942 349.526 31.7278 347.032 31.7278C344.538 31.7278 342.172 29.4942 339.697 29.5881C337.221 29.6819 334.984 32.0844 332.582 32.2533C330.18 32.4222 327.576 30.3764 325.247 30.6767C322.918 30.977 320.736 33.5296 318.37 33.8863C316.005 34.2429 313.236 32.4222 310.87 32.8915C308.504 33.3607 306.579 36.0635 304.232 36.6454C301.885 37.2272 299.006 35.5943 296.677 36.2324C294.348 36.8706 292.624 39.7236 290.332 40.4556C288.04 41.1876 285.032 39.7986 282.758 40.6057C280.485 41.4128 279.091 44.3596 276.762 45.3169C274.433 46.2741 271.426 45.0729 269.225 46.0489C267.025 47.0249 265.741 50.1406 263.577 51.2105C261.413 52.2804 258.241 51.3794 256.114 52.5244C253.987 53.6693 252.941 56.8601 250.869 58.1552C248.797 59.4503 245.551 58.7371 243.534 60.0321C241.517 61.3272 240.692 64.5931 238.711 65.9821C236.731 67.371 233.467 66.9581 231.523 68.4221C229.579 69.8861 229.029 73.1896 227.14 74.7474C225.252 76.3053 221.987 76.0988 220.154 77.713C218.32 79.3272 218.008 82.6682 216.248 84.3386C214.487 86.0091 211.205 86.103 209.499 87.8485C207.794 89.5941 207.666 92.9538 206.07 94.7557C204.475 96.5576 201.229 96.8579 199.652 98.7348C198.075 100.612 198.24 103.953 196.736 105.886C195.233 107.819 192.005 108.382 190.575 110.372C189.145 112.361 189.548 115.684 188.191 117.711C186.834 119.738 183.643 120.564 182.36 122.666C181.076 124.768 181.736 128.034 180.526 130.174C179.316 132.313 176.198 133.365 175.025 135.561C173.851 137.757 174.786 140.966 173.741 143.181C172.696 145.396 169.67 146.71 168.698 148.962C167.726 151.214 168.863 154.368 167.983 156.676C167.103 158.985 164.169 160.43 163.38 162.833C162.592 165.235 163.93 168.201 163.234 170.566C162.537 172.931 159.713 174.676 159.089 177.06C158.466 179.444 160.043 182.39 159.511 184.793C158.979 187.195 156.32 189.147 155.844 191.587C155.367 194.028 157.201 196.824 156.834 199.264C156.467 201.704 153.973 203.844 153.698 206.322C153.423 208.799 155.422 211.427 155.238 213.829C155.055 216.232 152.708 218.616 152.634 221.093C152.561 223.571 154.707 226.067 154.707 228.601C154.707 231.135 152.543 233.575 152.634 236.109C152.726 238.643 155.073 240.932 155.238 243.391C155.403 245.85 153.405 248.515 153.698 250.899C153.991 253.283 156.485 255.516 156.834 257.938C157.182 260.359 155.403 263.212 155.844 265.633C156.284 268.054 158.961 270.006 159.511 272.409C160.061 274.811 158.466 277.777 159.089 280.142C159.713 282.507 162.518 284.29 163.234 286.636C163.949 288.982 162.592 292.061 163.38 294.388C164.169 296.715 167.048 298.236 167.983 300.544C168.918 302.853 167.745 305.987 168.698 308.24C169.652 310.492 172.696 311.806 173.741 314.021C174.786 316.236 173.888 319.483 175.025 321.66C176.162 323.837 179.261 324.907 180.526 327.047C181.791 329.187 181.076 332.471 182.36 334.555C183.643 336.638 186.834 337.464 188.191 339.491C189.548 341.518 189.145 344.859 190.575 346.849C192.005 348.838 195.233 349.401 196.736 351.335C198.24 353.268 198.075 356.628 199.652 358.486C201.229 360.344 204.493 360.682 206.125 362.502C207.757 364.323 207.849 367.664 209.555 369.41C211.26 371.155 214.542 371.287 216.303 372.901C218.063 374.515 218.393 377.931 220.209 379.526C222.024 381.122 225.307 380.972 227.195 382.511C229.084 384.05 229.653 387.353 231.578 388.817C233.503 390.281 236.768 389.868 238.766 391.257C240.765 392.646 241.554 395.912 243.608 397.226C245.661 398.54 248.852 397.864 250.943 399.103C253.033 400.342 254.06 403.533 256.187 404.734C258.314 405.935 261.468 404.978 263.651 406.048C265.833 407.117 267.08 410.214 269.299 411.209C271.517 412.204 274.58 411.04 276.835 411.941C279.091 412.842 280.503 415.845 282.85 416.652C285.197 417.459 288.095 416.089 290.405 416.803C292.716 417.516 294.421 420.406 296.75 421.044C299.079 421.683 301.94 420.068 304.305 420.613C306.671 421.157 308.559 423.879 310.943 424.367C313.327 424.855 316.041 422.978 318.443 423.353C320.846 423.728 322.918 426.281 325.32 426.563C327.722 426.844 330.326 424.798 332.655 424.986C334.984 425.174 337.35 427.576 339.77 427.67C342.191 427.764 344.611 425.53 347.105 425.53C349.599 425.53 351.983 427.745 354.44 427.67C356.898 427.595 359.153 425.174 361.537 424.986C363.921 424.798 366.561 426.863 368.872 426.563C371.183 426.262 373.383 423.71 375.767 423.353C378.151 422.996 380.902 424.817 383.267 424.367C385.633 423.916 387.558 421.176 389.905 420.613C392.252 420.05 395.132 421.683 397.46 421.044C399.789 420.406 401.513 417.535 403.805 416.803C406.097 416.07 409.105 417.459 411.379 416.652C413.653 415.845 415.138 412.898 417.375 411.941C419.612 410.984 422.711 412.204 424.912 411.209C427.112 410.214 428.396 407.117 430.56 406.048C432.724 404.978 435.896 405.897 438.023 404.734C440.15 403.57 441.196 400.398 443.268 399.103C445.34 397.808 448.567 398.54 450.603 397.226C452.638 395.912 453.445 392.646 455.426 391.257C457.406 389.868 460.67 390.281 462.614 388.817C464.558 387.353 465.108 384.05 466.997 382.511C468.886 380.972 472.15 381.141 473.983 379.526C475.817 377.912 476.129 374.571 477.889 372.901C479.65 371.23 482.932 371.136 484.638 369.391C486.343 367.645 486.471 364.304 488.067 362.484C489.662 360.663 492.963 360.344 494.54 358.486C496.117 356.628 495.952 353.268 497.456 351.335C498.959 349.401 502.187 348.838 503.617 346.849C505.047 344.859 504.644 341.537 506.001 339.491C507.358 337.445 510.549 336.638 511.832 334.555C513.116 332.471 512.456 329.168 513.666 327.047C514.876 324.926 517.975 323.856 519.167 321.679C520.359 319.501 519.406 316.273 520.451 314.04C521.496 311.806 524.522 310.53 525.494 308.259C526.466 305.987 525.329 302.853 526.209 300.544C527.089 298.236 530.005 296.79 530.812 294.407C531.619 292.023 530.243 289.02 530.958 286.655C531.674 284.29 534.479 282.563 535.103 280.161C535.726 277.758 534.149 274.849 534.681 272.428C535.213 270.006 537.872 268.073 538.349 265.652C538.825 263.231 537.01 260.415 537.377 257.956C537.743 255.498 540.237 253.377 540.512 250.918C540.787 248.459 538.789 245.794 538.972 243.41C539.155 241.026 541.484 238.605 541.576 236.127C541.668 233.65 539.449 231.116 539.449 228.638Z" fill="#C8BFFF" stroke="#2E353A" stroke-width="2" stroke-linecap="round" stroke-linejoin="round"/>
<path d="M289.507 41.2251L292.899 50.9477" stroke="#2E353A" stroke-width="2" stroke-linecap="round" stroke-linejoin="round"/>
<path d="M276.597 46.443L279.659 54.0822" stroke="#2E353A" stroke-width="2" stroke-linecap="round" stroke-linejoin="round"/>
<path d="M512.878 130.53C507.329 135.4 501.018 139.277 494.21 141.999" stroke="#2E353A" stroke-width="2" stroke-linecap="round" stroke-linejoin="round"/>
<path d="M519.663 143.387C517.135 145.024 514.528 146.528 511.851 147.892" stroke="#2E353A" stroke-width="2" stroke-linecap="round" stroke-linejoin="round"/>
<path d="M237.904 391.539C237.904 391.539 246.046 382.154 247.403 375.209" stroke="#2E353A" stroke-width="2" stroke-linecap="round" stroke-linejoin="round"/>
<path d="M215.147 372.356C215.147 372.356 221.951 363.685 223.308 362.296" stroke="#2E353A" stroke-width="2" stroke-linecap="round" stroke-linejoin="round"/>
<path d="M389.649 419.618L386.935 404.34" stroke="#2E353A" stroke-width="2" stroke-linecap="round" stroke-linejoin="round"/>
<path d="M404.575 416.502L402.54 407.812" stroke="#2E353A" stroke-width="2" stroke-linecap="round" stroke-linejoin="round"/>
<path d="M466.703 382.098L455.169 368.884" stroke="#2E353A" stroke-width="2" stroke-linecap="round" stroke-linejoin="round"/>
<path d="M521.02 313.983L503.709 304.617" stroke="#2E353A" stroke-width="2" stroke-linecap="round" stroke-linejoin="round"/>
<path d="M156.082 228.864L170.679 229.201" stroke="#2E353A" stroke-width="2" stroke-linecap="round" stroke-linejoin="round"/>
<path d="M176.785 229.558L183.918 229.896" stroke="#2E353A" stroke-width="2" stroke-linecap="round" stroke-linejoin="round"/>
<path d="M174.75 315.034C176.455 314.34 187.586 311.281 187.586 311.281" stroke="#2E353A" stroke-width="2" stroke-linecap="round" stroke-linejoin="round"/>
<path d="M389.758 36.9457C388.732 39.0479 386.678 51.1542 386.678 51.1542" stroke="#2E353A" stroke-width="2" stroke-linecap="round" stroke-linejoin="round"/>
<path d="M403.109 41.6756L401.568 49.5775" stroke="#2E353A" stroke-width="2" stroke-linecap="round" stroke-linejoin="round"/>
<path d="M456.031 67.4462L451.923 72.7015" stroke="#2E353A" stroke-width="2" stroke-linecap="round" stroke-linejoin="round"/>
<path d="M187.843 117.936L198.112 123.717" stroke="#2E353A" stroke-width="2" stroke-linecap="round" stroke-linejoin="round"/>
<path d="M204.292 126.87L212.507 131.6" stroke="#2E353A" stroke-width="2" stroke-linecap="round" stroke-linejoin="round"/>
<path d="M401.458 171.26C401.458 171.26 398.322 166.286 382.479 156.057C366.635 145.827 325.632 136.105 309.476 127.17C293.321 117.955 275.313 100.574 269.023 92.2217C262.734 83.8693 263.706 77.5627 258.644 77.056C253.583 76.5492 248.522 78.9329 245.001 89.7817C241.48 100.63 245.79 127.809 248.669 136.161C251.548 144.514 260.001 149.807 265.374 152.021C270.747 154.236 282.758 160.073 282.74 165.31C282.722 170.547 282.08 171.579 279.861 171.973C277.642 172.367 228.864 179.763 221.346 181.996C213.827 184.23 210.581 198.251 212.727 209.306C214.872 220.361 223.381 223.833 220.814 231.679C218.246 239.525 213.827 248.722 218.191 259.139C222.556 269.556 230.753 267.942 227.562 276.031C224.371 284.121 224.335 293.581 228.406 299.662C232.477 305.743 237.849 309.685 237.813 317.061C237.776 324.438 250.356 340.673 258.259 342.982C262.165 344.183 297.63 348.162 332.16 348.519C366.671 349.42 400.248 346.642 400.193 346.642C400.608 288.144 401.03 229.683 401.458 171.26Z" fill="white" stroke="#2E353A" stroke-width="3" stroke-linecap="round" stroke-linejoin="round"/>
<path d="M470.371 341.162C449.833 344.34 429.221 346.68 408.536 348.181C407.199 348.242 405.864 348.014 404.618 347.512C403.372 347.01 402.243 346.246 401.304 345.27C400.366 344.293 399.638 343.125 399.168 341.841C398.699 340.558 398.498 339.188 398.579 337.821C398.787 285.003 398.995 232.211 399.202 179.444C399.151 178.057 399.372 176.673 399.853 175.375C400.334 174.077 401.065 172.891 402.002 171.888C402.939 170.885 404.064 170.085 405.31 169.535C406.555 168.986 407.895 168.698 409.252 168.689C429.936 169.289 450.548 170.146 471.086 171.26C473.762 171.454 476.267 172.676 478.1 174.681C479.933 176.686 480.958 179.326 480.97 182.071C480.75 231.11 480.536 280.186 480.328 329.299C480.247 332.145 479.214 334.876 477.402 337.035C475.589 339.194 473.107 340.651 470.371 341.162Z" fill="#2E353A" stroke="#2E353A" stroke-width="3" stroke-linecap="round" stroke-linejoin="round"/>
<path d="M424.453 329.28C424.503 328.25 424.342 327.22 423.979 326.257C423.616 325.294 423.059 324.42 422.345 323.692C421.632 322.963 420.776 322.395 419.835 322.026C418.893 321.657 417.887 321.494 416.88 321.547C414.758 321.781 412.799 322.817 411.384 324.452C409.97 326.087 409.203 328.204 409.233 330.388C409.172 331.424 409.326 332.461 409.684 333.432C410.043 334.403 410.598 335.285 411.313 336.021C412.029 336.757 412.888 337.329 413.835 337.701C414.781 338.072 415.794 338.235 416.807 338.177C418.925 337.911 420.873 336.857 422.283 335.217C423.693 333.577 424.465 331.465 424.453 329.28Z" fill="white" stroke="#2E353A" stroke-width="3" stroke-linecap="round" stroke-linejoin="round"/>
<path d="M400.816 151.928C421.152 151.928 437.638 135.054 437.638 114.238C437.638 93.4232 421.152 76.5493 400.816 76.5493C380.48 76.5493 363.994 93.4232 363.994 114.238C363.994 135.054 380.48 151.928 400.816 151.928Z" fill="white"/>
<path d="M462.881 170.034C468.223 164.566 468.223 155.701 462.881 150.233C457.539 144.764 448.877 144.764 443.535 150.233C438.192 155.701 438.192 164.566 443.535 170.034C448.877 175.503 457.539 175.503 462.881 170.034Z" fill="white"/>
<path opacity="0.2" d="M333.334 419.036C335.644 419.205 337.845 421.532 340.192 421.626C342.539 421.72 344.886 419.562 347.215 419.562C349.544 419.562 351.928 421.701 354.257 421.626C356.586 421.551 358.805 419.205 361.115 419.036C363.426 418.867 365.956 420.913 368.267 420.556C370.577 420.2 372.631 417.816 374.923 417.459C377.216 417.103 379.893 418.867 382.259 418.435C384.624 418.004 386.403 415.357 388.658 414.832C390.914 414.306 393.72 415.864 395.993 415.245C398.267 414.625 399.899 411.866 402.118 411.153C404.337 410.44 407.234 411.791 409.453 411.003C411.672 410.214 413.121 407.249 415.266 406.461C417.412 405.672 420.419 406.705 422.601 405.747C424.784 404.79 425.957 401.806 428.103 400.755C430.248 399.703 433.256 400.604 435.309 399.497C437.363 398.39 438.372 395.293 440.389 394.11C442.406 392.928 445.523 393.547 447.486 392.233C449.448 390.919 450.236 387.804 452.162 386.471C454.087 385.138 457.223 385.533 459.093 384.106C460.964 382.68 461.514 379.489 463.329 378.006C465.145 376.523 468.317 376.692 470.078 375.134C471.838 373.576 472.15 370.348 473.855 368.734C475.561 367.12 478.733 367.026 480.383 365.337C482.034 363.647 482.107 360.419 483.684 358.673C485.261 356.928 488.434 356.609 489.956 354.788C491.478 352.967 491.313 349.758 492.761 347.881C494.21 346.004 497.327 345.46 498.721 343.545C500.115 341.631 499.711 338.421 501.032 336.45C502.352 334.48 505.414 333.691 506.643 331.664C507.871 329.637 507.266 326.465 508.477 324.4C509.687 322.336 512.658 321.322 513.74 319.22C514.821 317.118 513.978 313.983 514.986 311.844C515.995 309.704 518.929 308.446 519.864 306.213C520.799 303.979 519.699 300.995 520.561 298.705C521.423 296.415 524.229 294.951 524.999 292.755C525.769 290.559 524.449 287.556 525.146 285.247C525.842 282.939 528.538 281.287 529.143 278.978C529.748 276.67 528.208 273.835 528.74 271.47C529.271 269.105 531.82 267.266 532.261 264.92C532.701 262.574 530.959 259.871 531.307 257.412C531.655 254.953 534.076 252.964 534.333 250.599C534.589 248.234 532.664 245.662 532.847 243.26C533.031 240.857 535.286 238.643 535.36 236.24C535.433 233.838 533.342 231.435 533.342 229.051C533.342 226.668 535.451 224.228 535.36 221.844C535.268 219.46 533.012 217.189 532.847 214.824C532.682 212.459 534.589 209.869 534.333 207.504C534.076 205.139 531.637 203.037 531.307 200.691C530.977 198.345 532.682 195.604 532.261 193.183C531.839 190.762 529.253 188.941 528.74 186.632C528.635 186.12 528.604 185.596 528.648 185.074C399.551 297.691 238.913 289.001 165.764 277.345C165.732 277.831 165.776 278.319 165.893 278.79C166.498 281.099 169.193 282.788 169.89 285.06C170.587 287.331 169.267 290.296 170.037 292.567C170.807 294.838 173.704 296.321 174.475 298.498C175.245 300.676 174.236 303.773 175.171 306.006C176.107 308.24 179.022 309.46 180.049 311.637C181.076 313.814 180.196 316.911 181.278 319.013C182.36 321.116 185.385 322.148 186.541 324.213C187.696 326.277 187.091 329.449 188.375 331.458C189.658 333.466 192.702 334.273 194.004 336.244C195.306 338.215 194.921 341.424 196.315 343.357C197.708 345.291 200.826 345.816 202.274 347.693C203.723 349.57 203.558 352.78 205.08 354.6C206.602 356.421 209.756 356.721 211.333 358.467C212.91 360.213 213.002 363.46 214.652 365.149C216.303 366.838 219.457 366.894 221.162 368.527C222.868 370.16 223.179 373.37 224.958 374.928C226.737 376.486 229.873 376.317 231.706 377.799C233.54 379.282 234.072 382.492 235.942 383.9C237.813 385.307 240.949 384.913 242.874 386.265C244.799 387.616 245.57 390.75 247.55 392.027C249.531 393.303 252.63 392.646 254.647 393.904C256.664 395.161 257.654 398.164 259.708 399.291C261.762 400.417 264.824 399.516 266.915 400.567C269.005 401.618 270.234 404.584 272.416 405.541C274.598 406.498 277.514 405.372 279.751 406.254C281.988 407.136 283.419 410.008 285.564 410.796C287.71 411.585 290.644 410.252 292.899 410.946C295.155 411.641 296.768 414.419 299.024 415.038C301.279 415.658 304.048 414.1 306.359 414.625C308.67 415.151 310.485 417.778 312.777 418.229C315.069 418.679 317.71 416.896 320.021 417.253C322.331 417.61 324.367 420.087 326.677 420.35C328.988 420.613 330.986 418.867 333.334 419.036Z" fill="black"/>
</svg>
