<svg width="727" height="545" viewBox="0 0 727 545" fill="none" xmlns="http://www.w3.org/2000/svg">
<path d="M727 478.938H0V479.303H727V478.938Z" fill="#EBEBEB"/>
<path d="M654.155 502.475H605.998V502.841H654.155V502.475Z" fill="#EBEBEB"/>
<path d="M481.594 506.454H468.959V506.82H481.594V506.454Z" fill="#EBEBEB"/>
<path d="M604.544 488.9H576.642V489.265H604.544V488.9Z" fill="#EBEBEB"/>
<path d="M139.075 491.357H76.2768V491.723H139.075V491.357Z" fill="#EBEBEB"/>
<path d="M161.234 491.357H152.03V491.723H161.234V491.357Z" fill="#EBEBEB"/>
<path d="M327.368 497.53H191.157V497.896H327.368V497.53Z" fill="#EBEBEB"/>
<path d="M344.598 413.694H63.8451C61.6457 413.691 59.5377 412.809 57.9839 411.243C56.4301 409.677 55.5573 407.554 55.5573 405.342V8.27974C55.5765 6.07965 56.4577 3.976 58.0094 2.42573C59.5612 0.875456 61.6583 0.00376887 63.8451 0H344.598C346.8 0 348.912 0.880034 350.469 2.4465C352.026 4.01297 352.9 6.13756 352.9 8.35288V405.342C352.9 407.557 352.026 409.682 350.469 411.248C348.912 412.814 346.8 413.694 344.598 413.694ZM63.8451 0.292571C61.7422 0.296447 59.7266 1.13966 58.2409 2.63712C56.7553 4.13459 55.9208 6.16394 55.9208 8.27974V405.342C55.9208 407.457 56.7553 409.487 58.2409 410.984C59.7266 412.482 61.7422 413.325 63.8451 413.329H344.598C346.702 413.325 348.719 412.482 350.207 410.985C351.695 409.488 352.533 407.459 352.537 405.342V8.27974C352.533 6.1626 351.695 4.13328 350.207 2.63623C348.719 1.13918 346.702 0.296438 344.598 0.292571H63.8451Z" fill="#EBEBEB"/>
<path d="M659.113 413.694H378.345C376.145 413.691 374.035 412.809 372.479 411.244C370.923 409.678 370.047 407.556 370.043 405.342V8.27974C370.066 6.07831 370.95 3.97468 372.504 2.42481C374.059 0.874944 376.157 0.00372777 378.345 0H659.113C661.297 0.00761341 663.39 0.881001 664.939 2.43086C666.488 3.98072 667.367 6.08218 667.386 8.27974V405.342C667.386 407.552 666.515 409.672 664.965 411.238C663.414 412.803 661.31 413.687 659.113 413.694ZM378.345 0.292571C376.241 0.296438 374.224 1.13918 372.736 2.63623C371.248 4.13328 370.41 6.1626 370.406 8.27974V405.342C370.41 407.459 371.248 409.488 372.736 410.985C374.224 412.482 376.241 413.325 378.345 413.329H659.113C661.217 413.325 663.234 412.482 664.722 410.985C666.21 409.488 667.048 407.459 667.052 405.342V8.27974C667.048 6.1626 666.21 4.13328 664.722 2.63623C663.234 1.13918 661.217 0.296438 659.113 0.292571H378.345Z" fill="#EBEBEB"/>
<path d="M613.719 105.998H381.064V260.753H613.719V105.998Z" fill="#E0E0E0"/>
<path d="M605.736 114.38H389.032V252.386H605.736V114.38Z" fill="#EBEBEB"/>
<path d="M444.284 123.728H403.18V181.101H444.284V123.728Z" fill="#F5F5F5"/>
<path d="M497.384 129.126H451.482V192.701H497.384V129.126Z" fill="#F5F5F5"/>
<path d="M547.547 123.728H509.54V178.702H547.547V123.728Z" fill="#F5F5F5"/>
<path d="M590.571 127.809H557.115V189.6H590.571V127.809Z" fill="#F5F5F5"/>
<path d="M590.571 201.508H517.45V246.637H590.571V201.508Z" fill="#F5F5F5"/>
<path d="M433.307 207.418H405.928V234.963H433.307V207.418Z" fill="#F5F5F5"/>
<path d="M471.125 213.518H443.412V241.4H471.125V213.518Z" fill="#F5F5F5"/>
<path d="M358.164 103.731H175.105V477.899H358.164V103.731Z" fill="#E0E0E0"/>
<path d="M243.138 138.4H207.471V174.284H243.138V138.4Z" fill="#F0F0F0"/>
<path d="M284.461 138.4H248.794V174.284H284.461V138.4Z" fill="#F0F0F0"/>
<path d="M325.783 138.4H290.117V174.284H325.783V138.4Z" fill="#F0F0F0"/>
<path d="M243.138 180.136H207.471V216.019H243.138V180.136Z" fill="#F0F0F0"/>
<path d="M284.461 180.136H248.794V216.019H284.461V180.136Z" fill="#F0F0F0"/>
<path d="M325.783 180.136H290.117V216.019H325.783V180.136Z" fill="#F0F0F0"/>
<path d="M343.566 275.133C343.566 276.502 343.162 277.839 342.407 278.977C341.651 280.115 340.577 281.002 339.32 281.526C338.063 282.049 336.681 282.186 335.346 281.919C334.012 281.652 332.787 280.993 331.825 280.026C330.863 279.058 330.208 277.825 329.943 276.483C329.678 275.141 329.814 273.749 330.334 272.485C330.855 271.221 331.736 270.14 332.867 269.38C333.998 268.62 335.328 268.214 336.688 268.214C337.592 268.212 338.487 268.389 339.322 268.737C340.158 269.084 340.917 269.593 341.556 270.236C342.195 270.879 342.701 271.643 343.046 272.483C343.391 273.323 343.568 274.224 343.566 275.133Z" fill="#F0F0F0"/>
<path d="M167.414 103.965H98.2758V136.747H167.414V103.965Z" fill="#E0E0E0"/>
<path d="M167.414 145.949H111.536V165.273H167.414V145.949Z" fill="#E0E0E0"/>
<path d="M167.414 103.965H104.732V136.747H167.414V103.965Z" fill="#EBEBEB"/>
<path d="M167.414 145.949H116.742V165.273H167.414V145.949Z" fill="#EBEBEB"/>
<path d="M275.879 86.2543C287.112 81.5734 292.446 68.6177 287.793 57.3171C283.141 46.0164 270.263 40.65 259.031 45.3309C247.799 50.0118 242.465 62.9674 247.117 74.2681C251.77 85.5688 264.647 90.9352 275.879 86.2543Z" fill="#F0F0F0"/>
<path d="M274.027 81.7539C282.788 78.1026 286.949 67.9965 283.32 59.1814C279.691 50.3663 269.646 46.1802 260.884 49.8315C252.122 53.4829 247.961 63.5889 251.591 72.4041C255.22 81.2192 265.265 85.4053 274.027 81.7539Z" fill="#FAFAFA"/>
<path d="M261.953 71.1531L261.037 70.0121L266.736 65.4334V54.1401H268.19V66.1355L261.953 71.1531Z" fill="#F0F0F0"/>
<path d="M494.476 431.702C494.476 431.205 496.163 381.643 504.174 373.802C511.968 366.181 520.91 373.524 521.288 373.802L522.088 372.837C522 372.749 511.91 364.469 503.302 372.837C494.927 381.029 493.299 429.537 493.226 431.6L494.476 431.702Z" fill="#E0E0E0"/>
<path d="M493.793 441.445C493.793 440.845 499.275 381.951 477.886 357.258L476.941 358.092C497.966 382.36 492.601 440.728 492.543 441.313L493.793 441.445Z" fill="#E0E0E0"/>
<path d="M494.578 435.213L495.829 435.125C495.829 434.452 491.656 368.156 507.33 353.644L506.486 352.723C490.362 367.644 494.36 432.463 494.578 435.213Z" fill="#E0E0E0"/>
<path d="M492.543 435.169H493.793C493.793 433.341 493.284 390.377 481.158 383.384C480.005 382.635 478.69 382.174 477.324 382.042C475.958 381.91 474.58 382.109 473.306 382.623C466.036 385.666 462.343 398.803 462.183 399.359L463.39 399.695C463.39 399.563 467.025 386.529 473.786 383.794C474.883 383.358 476.068 383.193 477.242 383.313C478.416 383.432 479.544 383.833 480.532 384.481C492.034 391.123 492.543 434.73 492.543 435.169Z" fill="#E0E0E0"/>
<path d="M497.268 435.198L498.518 435.125C498.518 434.789 496.686 401.187 505.701 389.353C507.882 386.427 510.252 385.11 512.768 385.286C518.671 385.71 523.614 394.399 523.673 394.487L524.763 393.873C524.545 393.478 519.427 384.496 512.855 384.028C509.947 383.823 507.17 385.359 504.712 388.577C495.407 400.821 497.181 433.809 497.268 435.198Z" fill="#E0E0E0"/>
<path d="M495.291 439.777C495.538 436.515 501.179 359.788 491.248 346.257L490.231 347.018C499.9 360.183 494.098 438.885 494.04 439.675L495.291 439.777Z" fill="#E0E0E0"/>
<path d="M470.602 390.391C470.602 390.391 476.563 392.615 474.789 397.823C473.015 403.03 454.171 411.632 454.171 411.632C454.171 411.632 446.276 404.318 453.532 392.512C460.787 380.707 470.442 386.661 470.602 390.391Z" fill="#EBEBEB"/>
<path d="M496.512 380.459C496.512 380.459 490.172 380.195 489.809 385.696C489.445 391.196 503.564 406.424 503.564 406.424C503.564 406.424 513.625 402.767 511.473 389.031C509.322 375.295 498.097 377.079 496.512 380.459Z" fill="#EBEBEB"/>
<path d="M501.892 354.112C501.892 354.112 497.661 353.659 497.995 351.07C498.329 348.48 514.454 341.795 523.963 352.532C523.963 352.532 517.871 363.05 509.074 363.182C500.278 363.314 501.892 354.112 501.892 354.112Z" fill="#EBEBEB"/>
<path d="M494.011 347.822C494.011 347.822 497.835 349.68 498.911 347.296C499.987 344.911 489.824 330.678 476.083 334.788C476.083 334.788 475.72 346.945 483.106 351.743C490.492 356.541 494.011 347.822 494.011 347.822Z" fill="#EBEBEB"/>
<path d="M514.047 388.299C514.047 388.299 511.139 385.929 514.28 384.774C517.42 383.618 532.891 383.94 533.051 399.402C533.051 399.402 515.036 402.416 512.811 396.477C510.587 390.537 514.047 388.299 514.047 388.299Z" fill="#EBEBEB"/>
<path d="M477.305 353.732C477.305 353.732 480.213 351.362 477.072 350.192C473.931 349.022 458.461 349.373 458.301 364.821C458.301 364.821 476.316 367.834 478.54 361.968C480.765 356.102 477.305 353.732 477.305 353.732Z" fill="#EBEBEB"/>
<path d="M486.828 366.152C486.828 366.152 487.09 363.226 484.778 364.396C482.466 365.567 474.397 374.271 482.757 382.58C482.757 382.58 494.011 374.197 491.975 369.823C489.94 365.45 486.828 366.152 486.828 366.152Z" fill="#EBEBEB"/>
<path d="M516.65 370.248C516.65 370.248 514.905 367.951 517.464 367.673C520.023 367.395 531.481 370.467 528.805 381.965C528.805 381.965 514.847 380.912 514.265 376.114C513.684 371.316 516.65 370.248 516.65 370.248Z" fill="#EBEBEB"/>
<path d="M469.482 477.899H517.391L522.553 425.134H464.32L469.482 477.899Z" fill="#F0F0F0"/>
<path d="M461.761 430.956H525.112V419.312H461.761V430.956Z" fill="#E6E6E6"/>
<path d="M363.5 545C519.198 545 645.416 537.586 645.416 528.441C645.416 519.295 519.198 511.881 363.5 511.881C207.802 511.881 81.5839 519.295 81.5839 528.441C81.5839 537.586 207.802 545 363.5 545Z" fill="#F5F5F5"/>
<path d="M362.511 64.0289H320.752C317.34 64.0289 314.067 65.3929 311.653 67.8208C309.24 70.2487 307.885 73.5416 307.885 76.9752V113.546C307.885 116.98 309.24 120.273 311.653 122.701C314.067 125.129 317.34 126.493 320.752 126.493H337.328L344.598 138.035L346.052 126.493H362.584C364.273 126.493 365.946 126.158 367.506 125.507C369.067 124.856 370.484 123.902 371.678 122.7C372.872 121.498 373.818 120.07 374.463 118.5C375.108 116.929 375.439 115.246 375.437 113.546V76.9752C375.437 75.2701 375.103 73.5819 374.452 72.0073C373.802 70.4328 372.849 69.003 371.648 67.8001C370.447 66.5971 369.021 65.6447 367.454 64.9976C365.886 64.3504 364.206 64.0212 362.511 64.0289Z" fill="#A69ED9" fill-opacity="0.8"/>
<path opacity="0.7" d="M362.511 64.0289H320.752C317.34 64.0289 314.067 65.3929 311.653 67.8208C309.24 70.2487 307.885 73.5416 307.885 76.9752V113.546C307.885 116.98 309.24 120.273 311.653 122.701C314.067 125.129 317.34 126.493 320.752 126.493H337.328L344.598 138.035L346.052 126.493H362.584C364.273 126.493 365.946 126.158 367.506 125.507C369.067 124.856 370.484 123.902 371.678 122.7C372.872 121.498 373.818 120.07 374.463 118.5C375.108 116.929 375.439 115.246 375.437 113.546V76.9752C375.437 75.2701 375.103 73.5819 374.452 72.0073C373.802 70.4328 372.849 69.003 371.648 67.8001C370.447 66.5971 369.021 65.6447 367.454 64.9976C365.886 64.3504 364.206 64.0212 362.511 64.0289Z" fill="white"/>
<path d="M356.296 109.847C364.393 101.701 364.393 88.493 356.296 80.3466C348.198 72.2002 335.07 72.2002 326.973 80.3466C318.876 88.493 318.876 101.701 326.973 109.847C335.07 117.994 348.198 117.994 356.296 109.847Z" fill="#A69ED9" fill-opacity="0.8"/>
<path d="M339.451 104.418C339.174 104.421 338.9 104.362 338.649 104.246C338.398 104.129 338.175 103.958 337.997 103.745L329.854 94.105C329.527 93.717 329.365 93.214 329.406 92.7064C329.447 92.1989 329.687 91.7285 330.073 91.3987C330.458 91.069 330.958 90.9068 331.463 90.948C331.967 90.9891 332.435 91.2302 332.762 91.6182L339.436 99.5468L350.472 86.4689C350.804 86.1009 351.264 85.8768 351.757 85.8438C352.25 85.8109 352.736 85.9716 353.113 86.2922C353.49 86.6128 353.729 87.0682 353.778 87.5623C353.828 88.0565 353.685 88.5508 353.38 88.9411L340.89 103.745C340.713 103.955 340.492 104.124 340.244 104.24C339.995 104.356 339.725 104.417 339.451 104.418Z" fill="white"/>
<path d="M598.946 263.079L596.169 262.948C596.169 262.948 591.429 297.456 588.288 300.163C585.148 302.869 539.071 293.902 536.381 291.941C536.288 291.86 536.223 291.753 536.192 291.634C534.171 286.558 542.168 229.302 545.105 226.64C548.042 223.977 557.013 226.64 557.013 226.64C557.013 226.64 576.424 231.218 587.547 234.261C590.079 234.863 592.562 235.655 594.977 236.631C597.885 238.357 598.946 263.079 598.946 263.079Z" fill="#263238"/>
<path opacity="0.2" d="M588.623 260.475C588.623 260.475 583.868 294.984 580.742 297.69C578.299 299.797 550.005 294.867 536.192 291.634C534.171 286.558 542.168 229.302 545.105 226.64C548.042 223.977 557.013 226.64 557.013 226.64C557.013 226.64 576.424 231.218 587.547 234.261C590.324 236.587 588.623 260.475 588.623 260.475Z" fill="white"/>
<path d="M507.809 170.013L505.439 160.299L516.228 162.552C516.228 162.552 517.828 171.329 513.32 171.988L507.809 170.013Z" fill="#EEC1BB"/>
<path d="M508.406 150.864L517.028 155.969L516.228 162.552L505.439 160.299L508.406 150.864Z" fill="#EEC1BB"/>
<path d="M545.788 227.634C544.102 228.459 542.368 229.182 540.597 229.799C539.318 229.317 538.067 228.819 536.831 228.337C536.206 228.073 535.566 227.825 534.956 227.547C532.687 226.61 530.463 225.601 528.253 224.533L525.621 223.246C524.894 222.866 524.167 222.5 523.425 222.105C521.768 221.198 520.11 220.306 518.467 219.325C517.333 218.667 516.199 217.965 515.08 217.234C513.96 216.502 512.782 215.668 511.619 214.791L510.936 214.279C509.447 213.162 508.056 211.919 506.777 210.563C506.003 209.772 505.298 208.915 504.669 208.003C504.284 207.461 503.934 206.894 503.622 206.306C503.535 206.131 503.433 205.94 503.346 205.736C503.128 205.238 502.924 204.726 502.793 204.273C502.162 202.246 501.834 200.136 501.819 198.012C501.784 195.137 501.989 192.265 502.43 189.425C502.43 188.927 502.575 188.415 502.648 187.962C503.252 184.416 504.044 180.905 505.018 177.444C505.745 174.85 506.574 172.266 507.504 169.691L514.658 171.271C514.542 173.641 514.396 176.01 514.309 178.38C514.149 181.95 514.033 185.49 514.033 188.942V190.405C514.033 192.438 514.163 194.428 514.382 196.256C514.382 196.505 514.454 196.768 514.483 197.017C514.607 197.922 514.846 198.807 515.196 199.65C515.269 199.796 515.196 199.65 515.283 199.738C515.37 199.826 515.283 199.811 515.487 199.943C515.69 200.074 515.981 200.455 516.359 200.777C518.289 202.352 520.357 203.748 522.539 204.946H522.669C525.01 206.262 527.482 207.564 530.041 208.778L530.579 209.027C534.156 210.753 537.849 212.435 541.615 214.015C543.069 214.63 544.523 215.244 545.875 215.815C545.875 215.815 550.601 217.117 552.273 220.393C553.625 223.144 549.496 225.835 545.788 227.634Z" fill="#A69ED9" fill-opacity="0.8"/>
<path opacity="0.2" d="M545.788 227.634C544.102 228.459 542.368 229.182 540.597 229.799C539.318 229.317 538.067 228.819 536.831 228.337C536.206 228.073 535.566 227.825 534.956 227.547C532.687 226.61 530.463 225.601 528.253 224.533C536.221 220.744 542.458 224.577 545.788 227.634Z" fill="black"/>
<path d="M494.011 510.726L484.836 507.376L489.882 485.126L499.071 488.476L494.011 510.726Z" fill="#EEC1BB"/>
<path d="M566.42 522.999H556.678L553.901 500.296H563.643L566.42 522.999Z" fill="#EEC1BB"/>
<path d="M555.428 521.858H567.307C567.5 521.86 567.687 521.927 567.838 522.049C567.988 522.171 568.093 522.341 568.136 522.531L570.157 531.308C570.198 531.522 570.191 531.742 570.137 531.953C570.083 532.164 569.982 532.36 569.843 532.527C569.703 532.694 569.529 532.827 569.331 532.918C569.134 533.008 568.92 533.053 568.703 533.049C564.879 532.975 562.087 532.756 557.275 532.756C554.367 532.756 545.381 533.063 541.281 533.063C537.18 533.063 536.628 528.997 538.373 528.675C545.861 527.022 551.459 524.74 553.872 522.56C554.29 522.145 554.842 521.896 555.428 521.858Z" fill="#263238"/>
<path d="M484.502 505.503L494.927 507.741C495.116 507.786 495.285 507.892 495.408 508.042C495.532 508.193 495.603 508.38 495.61 508.575L495.756 517.499C495.759 517.715 495.715 517.93 495.626 518.127C495.537 518.324 495.406 518.499 495.242 518.639C495.078 518.779 494.885 518.88 494.677 518.936C494.469 518.992 494.252 519.001 494.04 518.962C490.289 518.084 484.894 516.679 480.169 515.67C474.644 514.471 471.212 513.344 464.727 511.954C460.802 511.106 460.525 506.893 462.241 506.878C470.049 506.878 474.775 508.341 482.045 505.796C482.818 505.462 483.672 505.36 484.502 505.503Z" fill="#263238"/>
<path opacity="0.2" d="M489.882 485.126L487.279 496.594L496.468 499.959L499.071 488.49L489.882 485.126Z" fill="black"/>
<path opacity="0.2" d="M563.658 500.296H553.901L555.341 511.998H565.083L563.658 500.296Z" fill="black"/>
<path d="M484.589 493.215L500.176 498.833C500.176 498.833 512.317 445.044 518.773 415.216C521.611 403.431 525.111 391.816 529.256 380.429C535.159 363.694 542.197 345.672 547.882 331.585C553.887 316.752 558.351 306.278 558.351 306.278L524.734 299.431C524.734 299.431 499.1 373.671 493.328 403.016C487.395 433.531 484.589 493.215 484.589 493.215Z" fill="#263238"/>
<g opacity="0.3">
<path opacity="0.3" d="M484.589 493.215L500.176 498.833C500.176 498.833 512.317 445.044 518.773 415.216C521.611 403.431 525.111 391.816 529.256 380.429C535.159 363.694 542.197 345.672 547.882 331.585C553.887 316.752 558.351 306.278 558.351 306.278L524.734 299.431C524.734 299.431 499.1 373.671 493.328 403.016C487.395 433.531 484.589 493.215 484.589 493.215Z" fill="white"/>
</g>
<path opacity="0.2" d="M529.256 380.429C535.159 363.694 542.197 345.672 547.882 331.585L545.279 323.495C535.726 332.448 529.721 363.299 529.256 380.429Z" fill="black"/>
<path d="M542.924 303.132C542.924 303.132 536.933 387.773 536.57 416.547C536.162 448.042 550.804 509.731 550.804 509.731H568.659C568.659 509.731 561.52 454.069 563.905 422.867C566.551 387.963 575.915 309.847 575.915 309.847L542.924 303.132Z" fill="#263238"/>
<g opacity="0.3">
<path opacity="0.3" d="M542.924 303.132C542.924 303.132 536.933 387.773 536.57 416.547C536.162 448.042 550.804 509.731 550.804 509.731H568.659C568.659 509.731 561.52 454.069 563.905 422.867C566.551 387.963 575.915 309.847 575.915 309.847L542.924 303.132Z" fill="white"/>
</g>
<path d="M548.681 510.126H569.692L569.634 503.806L547.693 502.534L548.681 510.126Z" fill="#263238"/>
<path d="M482.51 493.01L501.121 499.506L503.157 493.464L482.801 486.003L482.51 493.01Z" fill="#263238"/>
<path d="M552.186 523.569C551.522 523.624 550.86 523.449 550.31 523.072C550.137 522.921 550.002 522.731 549.916 522.517C549.831 522.304 549.796 522.073 549.816 521.843C549.812 521.707 549.847 521.573 549.917 521.457C549.986 521.34 550.087 521.246 550.208 521.185C551.27 520.629 554.439 522.648 554.803 522.794C554.839 522.82 554.868 522.856 554.886 522.897C554.904 522.938 554.91 522.984 554.905 523.028C554.899 523.074 554.879 523.118 554.848 523.152C554.817 523.186 554.775 523.209 554.73 523.218C553.897 523.43 553.044 523.547 552.186 523.569ZM550.732 521.551C550.636 521.526 550.536 521.526 550.441 521.551C550.368 521.551 550.295 521.638 550.295 521.814C550.276 521.971 550.294 522.13 550.35 522.278C550.406 522.426 550.497 522.558 550.615 522.662C551.704 523.164 552.942 523.227 554.076 522.838C553.05 522.193 551.909 521.755 550.717 521.551H550.732Z" fill="#A69ED9" fill-opacity="0.8"/>
<path d="M554.686 523.233H554.57C553.552 522.677 551.589 520.527 551.778 519.444C551.812 519.274 551.902 519.12 552.034 519.008C552.166 518.896 552.333 518.833 552.505 518.83C552.681 518.808 552.86 518.822 553.03 518.873C553.2 518.923 553.358 519.008 553.494 519.122C554.628 520.059 554.948 522.882 554.948 523.014C554.953 523.054 554.947 523.095 554.928 523.132C554.91 523.168 554.882 523.198 554.846 523.218C554.823 523.235 554.797 523.245 554.768 523.247C554.74 523.25 554.712 523.245 554.686 523.233ZM552.68 519.313H552.52C552.229 519.313 552.2 519.488 552.186 519.547C552.069 520.205 553.334 521.829 554.338 522.589C554.259 521.47 553.849 520.4 553.16 519.517C553.026 519.398 552.858 519.326 552.68 519.313Z" fill="#A69ED9" fill-opacity="0.8"/>
<path d="M483.281 506.615C481.681 506.615 478.919 506.381 478.017 505.225C477.887 505.058 477.801 504.86 477.766 504.651C477.73 504.442 477.746 504.227 477.813 504.026C477.843 503.904 477.904 503.792 477.991 503.702C478.078 503.612 478.187 503.547 478.308 503.514C479.602 503.104 483.048 505.883 483.426 506.205C483.466 506.234 483.495 506.276 483.508 506.324C483.521 506.372 483.518 506.423 483.499 506.469C483.485 506.515 483.456 506.555 483.416 506.582C483.376 506.609 483.328 506.62 483.281 506.615ZM478.511 503.938H478.366C478.318 503.949 478.274 503.974 478.24 504.011C478.207 504.048 478.184 504.093 478.177 504.143C478.129 504.274 478.115 504.415 478.135 504.553C478.155 504.691 478.21 504.821 478.293 504.933C478.773 505.591 480.329 506.015 482.51 506.118C481.274 505.079 479.282 503.835 478.511 503.938Z" fill="#A69ED9" fill-opacity="0.8"/>
<path d="M483.281 506.615C483.256 506.629 483.229 506.636 483.201 506.636C483.172 506.636 483.145 506.629 483.121 506.615C482.074 505.854 480.213 503.28 480.605 502.226C480.707 501.978 480.954 501.7 481.579 501.773C481.809 501.798 482.032 501.869 482.234 501.982C482.437 502.095 482.614 502.248 482.757 502.431C483.409 503.658 483.663 505.06 483.484 506.439C483.484 506.481 483.471 506.521 483.448 506.555C483.425 506.589 483.392 506.615 483.353 506.63L483.281 506.615ZM481.289 502.226C481.237 502.229 481.187 502.245 481.143 502.273C481.1 502.301 481.065 502.341 481.041 502.387C480.809 503.016 482.03 504.991 483.062 505.942C483.176 504.825 482.942 503.701 482.394 502.724C482.294 502.586 482.165 502.471 482.017 502.388C481.869 502.305 481.705 502.255 481.536 502.241L481.289 502.226Z" fill="#A69ED9" fill-opacity="0.8"/>
<path d="M594.89 226.815C593.397 230.453 592.025 234.115 590.775 237.801C590.44 238.781 590.12 239.747 589.801 240.727C588.812 243.784 587.896 246.842 587.053 249.87C586.762 250.938 586.471 252.006 586.195 253.059C585.744 254.727 585.322 256.38 584.915 258.018C584.697 258.94 584.479 259.847 584.275 260.739C583.766 262.904 583.301 265.025 582.821 267.117C582.342 269.209 582.007 271.096 581.644 272.968C581.28 274.841 580.858 277.05 580.524 279.01C580.19 280.97 579.87 282.857 579.579 284.7C579.288 286.544 578.954 288.709 578.692 290.552C578.358 292.907 578.052 295.116 577.791 297.135C576.947 303.205 576.337 307.667 575.886 309.788L524.778 299.373C524.778 295.335 524.778 291.459 524.952 287.67C525.054 285.168 525.17 282.725 525.345 280.356C525.432 278.79 525.548 277.254 525.679 275.748C525.883 273.451 526.101 271.227 526.348 269.062C526.624 266.634 526.93 264.294 527.279 262.041C527.889 257.872 528.602 254.01 529.358 250.426C530.288 246.037 531.277 242.161 532.266 238.65C533.531 234.261 534.825 230.487 536.017 227.4C537.428 223.54 539.17 219.811 541.222 216.254C545.393 216.023 549.574 216.053 553.741 216.341C554.614 216.341 555.515 216.502 556.417 216.59C563.764 217.63 571.046 219.096 578.227 220.979C579.579 221.33 580.96 221.725 582.298 222.12C589.03 224.314 594.89 226.815 594.89 226.815Z" fill="#A69ED9" fill-opacity="0.8"/>
<path d="M580.757 196.022C578.038 202.781 574.199 215.39 578.198 221.081C575.605 222.908 572.65 224.15 569.535 224.72C566.421 225.291 563.22 225.177 560.153 224.387C554.163 223.027 554.672 218.726 556.46 216.663C564.617 216.371 565.533 210.505 565.184 204.77L580.757 196.022Z" fill="#EEC1BB"/>
<path opacity="0.2" d="M574.417 199.65L565.228 204.799C565.313 206.14 565.289 207.485 565.155 208.822C568.209 208.998 572.934 206.54 573.879 203.468C574.291 202.24 574.473 200.945 574.417 199.65Z" fill="black"/>
<path d="M563.018 171.607C560.357 174.533 557.696 181.847 563.498 181.774C569.299 181.701 567.583 166.59 563.018 171.607Z" fill="#263238"/>
<path d="M585.366 187.713C581.818 196.754 580.19 202.225 574.039 205.399C564.777 210.168 554.846 202.108 555.646 192.233C556.359 183.266 562.058 169.998 572.207 169.369C574.446 169.235 576.682 169.672 578.708 170.64C580.734 171.607 582.484 173.074 583.796 174.904C585.109 176.733 585.941 178.866 586.215 181.106C586.489 183.345 586.197 185.618 585.366 187.713Z" fill="#EEC1BB"/>
<path d="M586.762 170.32H580.146L583.316 176.332C584.392 176.493 582.254 180.165 583.185 180.18C583.185 180.18 578.823 188.167 581.542 193.565C591.313 192.775 598.219 185.051 593.785 179.477C596.62 174.591 591.662 170.964 586.762 170.32Z" fill="#263238"/>
<path d="M586.413 196.564C585.712 197.544 584.824 198.374 583.8 199.005C582.776 199.635 581.638 200.054 580.451 200.235C577.282 200.704 576.089 197.734 577.267 194.911C578.358 192.365 581.309 189.059 584.348 189.893C585.009 190.085 585.613 190.439 586.105 190.924C586.597 191.408 586.961 192.008 587.166 192.669C587.371 193.33 587.409 194.032 587.277 194.712C587.146 195.392 586.849 196.028 586.413 196.564Z" fill="#EEC1BB"/>
<path d="M564.777 184.012C563.141 185.926 561.247 187.6 559.15 188.986C559.551 189.505 560.056 189.934 560.632 190.244C561.208 190.554 561.843 190.738 562.494 190.785L564.777 184.012Z" fill="#D4827D"/>
<path d="M574.141 183.734C574.057 183.718 573.98 183.68 573.916 183.623C573.852 183.566 573.804 183.494 573.777 183.413C573.605 182.855 573.304 182.346 572.9 181.927C572.496 181.508 572 181.19 571.451 180.999C571.392 180.983 571.336 180.957 571.287 180.92C571.239 180.883 571.197 180.836 571.166 180.783C571.135 180.73 571.115 180.672 571.106 180.611C571.098 180.55 571.101 180.488 571.117 180.428C571.132 180.369 571.159 180.313 571.196 180.264C571.232 180.215 571.278 180.173 571.331 180.142C571.384 180.111 571.442 180.09 571.502 180.082C571.563 180.073 571.625 180.077 571.684 180.092C572.37 180.332 572.991 180.731 573.496 181.257C574.002 181.783 574.377 182.421 574.592 183.12C574.634 183.236 574.629 183.365 574.577 183.477C574.525 183.59 574.431 183.677 574.315 183.72C574.258 183.732 574.2 183.737 574.141 183.734Z" fill="#263238"/>
<path d="M559.543 178.585C559.452 178.571 559.369 178.524 559.31 178.454C559.224 178.366 559.176 178.248 559.176 178.124C559.176 178.001 559.224 177.883 559.31 177.795C559.802 177.251 560.417 176.834 561.103 176.579C561.788 176.325 562.525 176.24 563.25 176.332C563.373 176.357 563.481 176.429 563.552 176.533C563.622 176.637 563.65 176.764 563.629 176.888C563.604 177.008 563.534 177.113 563.433 177.181C563.333 177.249 563.21 177.276 563.091 177.254C562.515 177.173 561.929 177.236 561.384 177.438C560.838 177.64 560.351 177.973 559.964 178.41C559.917 178.475 559.853 178.526 559.778 178.557C559.704 178.588 559.622 178.598 559.543 178.585Z" fill="#263238"/>
<path d="M561.433 192.57C562.114 194.116 562.682 195.71 563.134 197.339L564.007 197.236C567.991 196.739 569.677 195.188 570.346 193.623C570.657 192.849 570.777 192.011 570.695 191.18C570.664 190.71 570.566 190.247 570.404 189.805C568.456 191.268 564.777 192.072 562.785 192.394C561.956 192.526 561.433 192.57 561.433 192.57Z" fill="#263238"/>
<path d="M562.785 192.394L563.323 193.784C567.075 193.316 569.648 192.467 570.695 191.18C570.664 190.71 570.566 190.247 570.404 189.805C568.514 191.326 564.777 192.072 562.785 192.394Z" fill="white"/>
<path d="M564.007 197.236C567.991 196.739 569.677 195.188 570.346 193.623C568.817 193.845 567.34 194.341 565.984 195.086C565.121 195.582 564.431 196.332 564.007 197.236Z" fill="#DE5753"/>
<path d="M591.996 172.295C591.996 172.295 586.296 163.43 572.891 162.874C559.485 162.318 559.078 171.3 563.614 174.387L564.007 173.07C565.093 174.391 566.459 175.451 568.005 176.171V174.387C569.898 176.145 572.077 177.565 574.446 178.585V176.332C574.446 176.332 577.936 179.258 585.191 180.077C592.447 180.896 595.311 177.927 591.996 172.295Z" fill="#263238"/>
<path d="M570.71 186.104C570.636 186.105 570.565 186.083 570.505 186.041C570.445 185.999 570.399 185.939 570.375 185.87C570.325 185.662 570.23 185.468 570.096 185.301C569.963 185.134 569.795 184.999 569.605 184.905C569.362 184.804 569.091 184.804 568.848 184.905C568.765 184.949 568.667 184.96 568.576 184.936C568.484 184.911 568.405 184.853 568.354 184.773C568.322 184.691 568.32 184.599 568.349 184.516C568.379 184.433 568.437 184.363 568.514 184.319C568.716 184.2 568.942 184.126 569.176 184.103C569.409 184.081 569.645 184.11 569.866 184.188C570.168 184.32 570.435 184.522 570.647 184.775C570.859 185.029 571.01 185.329 571.088 185.651C571.117 185.742 571.11 185.841 571.07 185.928C571.029 186.015 570.958 186.083 570.869 186.119L570.71 186.104Z" fill="#263238"/>
<path d="M562.451 183.924C562.378 183.923 562.308 183.901 562.248 183.859C562.188 183.817 562.143 183.759 562.116 183.69C562.066 183.483 561.971 183.288 561.838 183.122C561.704 182.955 561.537 182.819 561.346 182.725C561.098 182.653 560.833 182.679 560.604 182.798C560.519 182.847 560.418 182.86 560.323 182.836C560.228 182.811 560.147 182.75 560.095 182.666C560.054 182.581 560.045 182.485 560.069 182.393C560.093 182.302 560.149 182.222 560.226 182.169C560.43 182.053 560.656 181.981 560.888 181.959C561.121 181.936 561.356 181.963 561.578 182.037C561.88 182.17 562.148 182.371 562.359 182.625C562.571 182.879 562.722 183.178 562.8 183.5C562.829 183.591 562.822 183.69 562.782 183.777C562.742 183.864 562.67 183.932 562.582 183.968L562.451 183.924Z" fill="#263238"/>
<path d="M586.326 222.953C586.326 222.953 576.729 252.635 583.912 280.005L582.065 281.731C582.065 281.731 570.157 252.62 580.175 221.681L586.326 222.953Z" fill="#263238"/>
<path d="M552.52 216.224C552.52 216.224 530.274 244.823 526.115 271.418L526.522 265.244C526.522 265.244 526.377 241.517 545.861 215.917L552.52 216.224Z" fill="#263238"/>
<path d="M583.243 277.225L587.009 283.764L584.508 292.292C582.716 287.868 581.49 283.233 580.858 278.498L583.243 277.225Z" fill="#263238"/>
<path d="M598.147 302.913L573.967 292.673L572.411 313.153C572.411 313.153 599.659 313.665 600.037 313.826C600.415 313.987 598.147 302.913 598.147 302.913Z" fill="#263238"/>
<path opacity="0.4" d="M598.147 302.913L573.967 292.673L572.411 313.153C572.411 313.153 599.659 313.665 600.037 313.826C600.415 313.987 598.147 302.913 598.147 302.913Z" fill="white"/>
<path d="M573.937 311.953L575.537 294.384L579.637 287.787L595.806 301.918L592.999 311.617L573.937 311.953Z" fill="#263238"/>
<path opacity="0.7" d="M573.937 311.953L575.537 294.384L579.637 287.787L595.806 301.918L592.999 311.617L573.937 311.953Z" fill="white"/>
<path d="M578.169 285.871L577.878 308.457L572.411 313.241L604.53 326.728L610.084 320.95L610.317 300.572L578.169 285.871Z" fill="#263238"/>
<path opacity="0.5" d="M578.169 285.871L577.878 308.457L572.411 313.241L604.53 326.728L610.084 320.95L610.317 300.572L578.169 285.871Z" fill="white"/>
<path d="M598.365 308.267L597.492 318.214L588.012 312.568C588.012 312.568 589.335 303.791 593.828 304.61L598.365 308.267Z" fill="#EEC1BB"/>
<path d="M591.647 326.187L585.133 318.536L588.012 312.568L597.492 318.214L591.647 326.187Z" fill="#EEC1BB"/>
<path opacity="0.2" d="M589.801 240.727C588.812 243.784 587.896 246.842 587.052 249.87C586.762 250.938 586.471 252.006 586.195 253.059C584.159 248.817 585.133 241.663 585.133 241.663L589.801 240.727Z" fill="black"/>
<path d="M600.938 231.262C603.848 234.204 606.504 237.39 608.877 240.786C612.446 245.803 615.625 251.09 618.386 256.599C620.288 260.296 621.865 264.153 623.097 268.126C623.571 269.63 623.854 271.188 623.94 272.763C624.042 276.07 621.032 281.701 617.034 287.582C614.78 290.932 612.221 294.37 609.764 297.515C604.37 304.405 599.586 309.876 599.586 309.876L592.316 304.756C592.316 304.756 595.907 298.173 599.586 291.064C601.549 287.304 603.526 283.384 604.98 280.224C606.006 278.307 606.788 276.267 607.307 274.153C607.327 273.506 607.278 272.859 607.161 272.222C606.609 269.136 597.609 249.914 585.25 241.663L589.612 225.572C592.65 224.709 596.722 227.093 600.938 231.262Z" fill="#A69ED9" fill-opacity="0.8"/>
<path d="M453.314 268.389C459.231 272.281 447.643 288.869 434.223 286.543C420.802 284.217 422.402 273.451 424.83 269.472C427.258 265.493 439.617 259.378 453.314 268.389Z" fill="#A69ED9" fill-opacity="0.8"/>
<path opacity="0.3" d="M453.314 268.389C459.231 272.281 447.643 288.869 434.223 286.543C420.802 284.217 422.402 273.451 424.83 269.472C427.258 265.493 439.617 259.378 453.314 268.389Z" fill="black"/>
<path d="M435.575 264.498C435.575 264.498 451.482 276.289 453.212 286.543C454.942 296.798 435.095 304.844 420.715 303.132C406.335 301.421 393.671 275.879 393.671 275.879C393.671 275.879 421.66 276.479 435.575 264.498Z" fill="#A69ED9" fill-opacity="0.8"/>
<path opacity="0.2" d="M435.575 264.498C435.575 264.498 451.482 276.289 453.212 286.543C454.942 296.798 435.095 304.844 420.715 303.132C406.335 301.421 393.671 275.879 393.671 275.879C393.671 275.879 421.66 276.479 435.575 264.498Z" fill="black"/>
<path d="M433.292 271.315C433.292 271.315 432.362 257.067 453.343 268.389C453.343 268.389 443.717 261.807 434.673 263.035C425.629 264.264 416.208 273.963 406.262 273.012C396.317 272.061 401.522 283.925 401.522 283.925C401.522 283.925 423.681 282.213 433.292 271.315Z" fill="#A69ED9" fill-opacity="0.8"/>
<path d="M390.733 203.658C395.43 193.147 399.395 182.32 402.598 171.256C403.543 167.306 403.005 163.137 402.598 158.909C401.973 153.599 401.013 148.026 400.024 142.599L406.8 140.126C411.111 148.125 414.059 156.792 415.524 165.77C416.014 169.244 415.871 172.778 415.102 176.2C412.817 187.887 409.06 199.233 403.921 209.963L390.835 203.658H390.733Z" fill="#FFB573"/>
<path d="M385.31 204.536C391.78 199.986 397.262 187.889 397.262 187.889L410.566 196.095C410.566 196.095 404.416 210.036 403.078 219.077C402.322 224.562 385.31 204.536 385.31 204.536Z" fill="#263238"/>
<path opacity="0.2" d="M396.506 216.297C399.894 219.369 402.816 221.271 403.151 219.062C403.41 217.36 403.769 215.675 404.227 214.015C402.272 211.863 399.947 210.084 397.364 208.764C396.689 211.214 396.399 213.756 396.506 216.297Z" fill="black"/>
<path d="M378.912 481.146L388.48 481.688L393.612 459.628L384.06 459.087L378.912 481.146Z" fill="#FFB573"/>
<path d="M388.596 479.494L380.686 472.179C380.547 472.059 380.369 471.993 380.185 471.993C380.001 471.993 379.823 472.059 379.683 472.179L373.009 477.65C372.848 477.794 372.719 477.971 372.63 478.169C372.542 478.367 372.496 478.582 372.496 478.799C372.496 479.016 372.542 479.23 372.63 479.428C372.719 479.626 372.848 479.803 373.009 479.947C375.801 482.463 377.284 483.531 380.759 486.764C382.911 488.739 388.843 494.663 391.809 497.413C394.776 500.164 397.625 497.413 396.622 495.951C392.26 489.631 389.817 484.379 389.352 481.088C389.299 480.482 389.03 479.916 388.596 479.494Z" fill="#263238"/>
<g opacity="0.2">
<path opacity="0.2" d="M393.612 459.628L390.966 471.009L381.399 470.468L384.045 459.101L393.612 459.628Z" fill="black"/>
</g>
<path d="M394.034 205.457C394.034 205.457 407.454 222.295 408.123 263.884C393.147 267.658 377.589 268.623 370.319 270.467C367.106 254.858 364.852 245.291 349.614 215.434C354.571 213.015 359.698 210.966 364.954 209.305C370.552 207.434 376.276 205.967 382.082 204.916C386.053 204.153 390.147 204.338 394.034 205.457Z" fill="#FFB573"/>
<path d="M361.857 189.483C364.314 194.749 367.935 204.638 364.998 209.305C364.998 209.305 367.906 214.556 378.084 211.967C389.352 209.129 382.068 204.989 382.068 204.989C375.554 205.063 374.565 200.44 374.565 195.861L361.857 189.483Z" fill="#FFB573"/>
<path d="M364.954 209.319C370.55 207.442 376.275 205.975 382.082 204.931L383.231 204.77C385.252 207.023 386.59 210.943 384.787 217.658C384.787 217.658 368.24 215.361 362.729 209.978C363.5 209.787 364.256 209.539 364.954 209.319Z" fill="#FFB573"/>
<path opacity="0.2" d="M367.062 192.087L374.623 195.847C374.597 196.92 374.674 197.993 374.856 199.05C372.413 199.299 368.545 197.587 367.673 195.101C367.293 194.141 367.086 193.12 367.062 192.087Z" fill="black"/>
<path d="M408.196 264.893C408.196 264.893 414.724 339.206 413.692 368.58C412.616 399.125 392.769 468.566 392.769 468.566L379.814 468.376C379.814 468.376 390.559 400.602 389.832 370.584C389.032 337.846 379.654 264.498 379.654 264.498L408.196 264.893Z" fill="#A69ED9" fill-opacity="0.8"/>
<path opacity="0.2" d="M408.196 264.893C408.196 264.893 414.724 339.206 413.692 368.58C412.616 399.125 392.769 468.566 392.769 468.566L379.814 468.376C379.814 468.376 390.559 400.602 389.832 370.584C389.032 337.846 379.654 264.498 379.654 264.498L408.196 264.893Z" fill="white"/>
<path d="M378.68 468.829L393.874 469.049L395.066 464.177L378.055 463.358L378.68 468.829Z" fill="#A69ED9" fill-opacity="0.8"/>
<path opacity="0.2" d="M391.126 283.12C400.402 302.591 392.289 337.743 388.727 350.821C387.273 331.087 384.685 306.935 382.649 289.235C384.278 279.258 386.88 274.138 391.126 283.12Z" fill="black"/>
<path d="M296.761 394.078L299.873 403.191L321.988 399.3L318.891 390.186L296.761 394.078Z" fill="#FFB573"/>
<path d="M302.432 403.513L301.821 392.703C301.81 392.508 301.735 392.323 301.609 392.175C301.483 392.027 301.313 391.925 301.123 391.883L292.487 390.026C292.279 389.977 292.062 389.979 291.856 390.033C291.649 390.086 291.458 390.189 291.3 390.333C291.141 390.476 291.02 390.657 290.945 390.858C290.871 391.059 290.846 391.275 290.873 391.488C291.134 395.263 291.469 397.091 291.731 401.845C291.891 404.771 292.05 413.153 292.283 417.191C292.516 421.228 296.514 421.726 296.79 420.116C297.983 412.7 299.931 407.551 301.923 405.166C302.113 404.939 302.257 404.675 302.344 404.391C302.431 404.108 302.461 403.809 302.432 403.513Z" fill="#263238"/>
<g opacity="0.2">
<path opacity="0.2" d="M321.988 399.3L310.589 401.304L307.477 392.191L318.877 390.186L321.988 399.3Z" fill="black"/>
</g>
<path d="M397.436 264.776C397.436 264.776 385.804 341.225 378.156 369.941C370.261 399.797 314.369 401.582 314.369 401.582L308.844 389.791C308.844 389.791 341.574 381.526 355.925 361.997C362.453 329.815 369.011 264.381 369.011 264.381L397.436 264.776Z" fill="#A69ED9" fill-opacity="0.8"/>
<path opacity="0.2" d="M397.436 264.776C397.436 264.776 385.804 341.225 378.156 369.941C370.261 399.797 314.369 401.582 314.369 401.582L308.844 389.791C308.844 389.791 341.574 381.526 355.925 361.997C362.453 329.815 369.011 264.381 369.011 264.381L397.436 264.776Z" fill="white"/>
<path d="M308.204 388.65L312.988 403.162L318.15 403.294L313.366 386.924L308.204 388.65Z" fill="#A69ED9" fill-opacity="0.8"/>
<path d="M300.978 406.995C300.954 407.846 301.204 408.682 301.691 409.379C301.832 409.541 302.006 409.669 302.202 409.755C302.398 409.841 302.611 409.882 302.825 409.876C302.946 409.878 303.066 409.846 303.171 409.784C303.276 409.722 303.363 409.633 303.421 409.525C304.002 408.399 301.821 404.42 301.574 403.966C301.55 403.923 301.513 403.888 301.47 403.865C301.426 403.841 301.376 403.831 301.327 403.835C301.284 403.838 301.243 403.855 301.212 403.884C301.18 403.914 301.159 403.953 301.153 403.996C301 404.987 300.942 405.992 300.978 406.995ZM303.057 408.867C303.1 409 303.1 409.143 303.057 409.277C303.038 409.321 303.005 409.359 302.963 409.382C302.921 409.406 302.872 409.415 302.825 409.408C302.686 409.42 302.546 409.399 302.417 409.345C302.288 409.292 302.173 409.208 302.083 409.101C301.516 408.472 301.342 406.892 301.574 404.712C302.299 406.004 302.805 407.408 303.072 408.867H303.057Z" fill="#A69ED9" fill-opacity="0.8"/>
<path d="M301.167 404.04C301.16 404.073 301.16 404.108 301.167 404.142C301.749 405.327 303.959 407.741 305.035 407.653C305.296 407.653 305.602 407.463 305.631 406.834C305.641 406.599 305.606 406.364 305.526 406.143C305.446 405.922 305.324 405.72 305.166 405.546C304.097 404.619 302.784 404.024 301.385 403.835C301.348 403.827 301.309 403.829 301.273 403.842C301.237 403.855 301.205 403.878 301.182 403.908C301.169 403.927 301.161 403.949 301.159 403.972C301.156 403.995 301.159 404.018 301.167 404.04ZM305.195 406.673V406.804C305.195 407.214 305.006 407.229 304.962 407.229C304.308 407.229 302.592 405.634 301.807 404.42C302.938 404.606 303.992 405.114 304.846 405.883C305.044 406.101 305.167 406.378 305.195 406.673Z" fill="#A69ED9" fill-opacity="0.8"/>
<path d="M390.108 483.195C390.664 483.802 391.407 484.203 392.216 484.336C392.422 484.339 392.625 484.291 392.807 484.197C392.99 484.102 393.146 483.964 393.263 483.794C393.347 483.701 393.403 483.585 393.427 483.462C393.45 483.338 393.438 483.21 393.394 483.092C392.973 481.819 388.843 480.649 388.363 480.532C388.318 480.518 388.27 480.519 388.225 480.534C388.181 480.55 388.142 480.58 388.116 480.62C388.092 480.659 388.079 480.705 388.079 480.752C388.079 480.798 388.092 480.844 388.116 480.883C388.709 481.713 389.376 482.486 390.108 483.195ZM392.711 482.887C392.826 482.977 392.912 483.099 392.958 483.238C392.986 483.279 393 483.328 393 483.377C393 483.427 392.986 483.475 392.958 483.516C392.881 483.628 392.779 483.719 392.661 483.783C392.542 483.846 392.409 483.88 392.275 483.882C391.489 483.882 390.268 482.858 388.945 481.161C390.288 481.519 391.561 482.102 392.711 482.887Z" fill="#A69ED9" fill-opacity="0.8"/>
<path d="M388.218 480.912C388.229 480.919 388.242 480.922 388.254 480.922C388.267 480.922 388.28 480.919 388.291 480.912C389.483 481.322 392.551 481.322 393.147 480.4C393.292 480.181 393.38 479.83 392.958 479.347C392.808 479.176 392.625 479.037 392.42 478.939C392.215 478.84 391.993 478.785 391.766 478.777C390.429 478.971 389.187 479.586 388.218 480.532C388.201 480.566 388.193 480.604 388.193 480.642C388.193 480.68 388.201 480.717 388.218 480.752C388.207 480.777 388.202 480.804 388.202 480.832C388.202 480.86 388.207 480.887 388.218 480.912ZM392.58 479.596C392.617 479.626 392.652 479.661 392.682 479.698C392.958 480.006 392.856 480.152 392.827 480.196C392.464 480.752 390.239 480.912 388.901 480.635C389.706 479.89 390.724 479.419 391.809 479.289C392.054 479.32 392.283 479.427 392.464 479.596H392.58Z" fill="#A69ED9" fill-opacity="0.8"/>
<path d="M368.56 265.654L368.211 269.048C368.124 269.325 368.502 269.56 368.953 269.53L408.865 266.605C409.214 266.605 409.475 266.385 409.461 266.18L409.17 262.83C409.17 262.596 408.807 262.421 408.429 262.45L369.171 265.376C369.053 265.359 368.933 265.376 368.825 265.425C368.717 265.475 368.625 265.554 368.56 265.654Z" fill="#A69ED9" fill-opacity="0.8"/>
<path opacity="0.7" d="M368.56 265.654L368.211 269.048C368.124 269.325 368.502 269.56 368.953 269.53L408.865 266.605C409.214 266.605 409.475 266.385 409.461 266.18L409.17 262.83C409.17 262.596 408.807 262.421 408.429 262.45L369.171 265.376C369.053 265.359 368.933 265.376 368.825 265.425C368.717 265.475 368.625 265.554 368.56 265.654Z" fill="white"/>
<path d="M371.962 269.589L370.915 269.662C370.697 269.662 370.523 269.589 370.508 269.457L370.174 265.069C370.174 264.937 370.319 264.82 370.537 264.806H371.584C371.788 264.806 371.977 264.806 371.977 265.01L372.326 269.399C372.34 269.457 372.224 269.574 371.962 269.589Z" fill="#A69ED9" fill-opacity="0.8"/>
<g opacity="0.2">
<path opacity="0.2" d="M371.962 269.589L370.915 269.662C370.697 269.662 370.523 269.589 370.508 269.457L370.174 265.069C370.174 264.937 370.319 264.82 370.537 264.806H371.584C371.788 264.806 371.977 264.806 371.977 265.01L372.326 269.399C372.34 269.457 372.224 269.574 371.962 269.589Z" fill="#A69ED9" fill-opacity="0.8"/>
</g>
<path d="M403.296 267.263L402.235 267.351C402.031 267.351 401.857 267.263 401.842 267.146L401.493 262.757C401.493 262.626 401.653 262.509 401.857 262.494L402.918 262.421C403.121 262.421 403.311 262.494 403.311 262.611L403.659 267C403.659 267.131 403.5 267.248 403.296 267.263Z" fill="#A69ED9" fill-opacity="0.8"/>
<path opacity="0.2" d="M403.296 267.263L402.235 267.351C402.031 267.351 401.857 267.263 401.842 267.146L401.493 262.757C401.493 262.626 401.653 262.509 401.857 262.494L402.918 262.421C403.121 262.421 403.311 262.494 403.311 262.611L403.659 267C403.659 267.131 403.5 267.248 403.296 267.263Z" fill="#A69ED9" fill-opacity="0.8"/>
<path d="M387.622 268.433L386.575 268.506C386.371 268.506 386.182 268.433 386.182 268.302L385.833 263.913C385.833 263.781 385.993 263.664 386.197 263.65L387.244 263.577C387.462 263.577 387.636 263.65 387.651 263.781L387.985 268.17C388 268.302 387.84 268.419 387.622 268.433Z" fill="#A69ED9" fill-opacity="0.8"/>
<path opacity="0.2" d="M387.622 268.433L386.575 268.506C386.371 268.506 386.182 268.433 386.182 268.302L385.833 263.913C385.833 263.781 385.993 263.664 386.197 263.65L387.244 263.577C387.462 263.577 387.636 263.65 387.651 263.781L387.985 268.17C388 268.302 387.84 268.419 387.622 268.433Z" fill="#A69ED9" fill-opacity="0.8"/>
<g opacity="0.2">
<path opacity="0.2" d="M371.962 269.589L370.915 269.662C370.697 269.662 370.523 269.589 370.508 269.457L370.174 265.069C370.174 264.937 370.319 264.82 370.537 264.806H371.584C371.788 264.806 371.977 264.806 371.977 265.01L372.326 269.399C372.34 269.457 372.224 269.574 371.962 269.589Z" fill="white"/>
<g opacity="0.2">
<path opacity="0.2" d="M371.962 269.589L370.915 269.662C370.697 269.662 370.523 269.589 370.508 269.457L370.174 265.069C370.174 264.937 370.319 264.82 370.537 264.806H371.584C371.788 264.806 371.977 264.806 371.977 265.01L372.326 269.399C372.34 269.457 372.224 269.574 371.962 269.589Z" fill="white"/>
</g>
<path opacity="0.2" d="M403.296 267.263L402.235 267.351C402.031 267.351 401.856 267.263 401.842 267.146L401.493 262.757C401.493 262.626 401.653 262.509 401.856 262.494L402.918 262.421C403.121 262.421 403.31 262.494 403.31 262.611L403.659 267C403.659 267.131 403.499 267.248 403.296 267.263Z" fill="white"/>
<path opacity="0.2" d="M403.296 267.263L402.235 267.351C402.031 267.351 401.856 267.263 401.842 267.146L401.493 262.757C401.493 262.626 401.653 262.509 401.856 262.494L402.918 262.421C403.121 262.421 403.31 262.494 403.31 262.611L403.659 267C403.659 267.131 403.499 267.248 403.296 267.263Z" fill="white"/>
<path opacity="0.2" d="M387.622 268.433L386.575 268.506C386.371 268.506 386.182 268.433 386.182 268.302L385.833 263.913C385.833 263.781 385.993 263.664 386.197 263.65L387.244 263.577C387.462 263.577 387.636 263.65 387.651 263.781L387.985 268.17C388 268.302 387.84 268.419 387.622 268.433Z" fill="white"/>
<path opacity="0.2" d="M387.622 268.433L386.575 268.506C386.371 268.506 386.182 268.433 386.182 268.302L385.833 263.913C385.833 263.781 385.993 263.664 386.197 263.65L387.244 263.577C387.462 263.577 387.636 263.65 387.651 263.781L387.985 268.17C388 268.302 387.84 268.419 387.622 268.433Z" fill="white"/>
</g>
<path d="M357.321 162.216C351.286 165.741 341.53 175.776 352.028 187.23C362.526 198.684 383.827 186.616 380.163 172.499C376.499 158.383 365.943 157.183 357.321 162.216Z" fill="#263238"/>
<path d="M353.511 181.394C357.873 189.893 359.531 193.594 365.87 196.139C375.423 199.957 384.845 192.716 383.1 183.076C381.544 174.401 374.681 161.967 364.663 162.245C362.454 162.298 360.295 162.918 358.391 164.047C356.487 165.175 354.901 166.775 353.784 168.693C352.667 170.611 352.055 172.785 352.008 175.008C351.96 177.23 352.477 179.429 353.511 181.394Z" fill="#FFB573"/>
<path d="M355.198 172.28C359.08 173.962 359.923 183.427 356.652 187.23C349.891 187.245 343.624 167.248 355.198 172.28Z" fill="#263238"/>
<path d="M374.463 176.391C375.804 177.733 377.32 178.885 378.971 179.814C378.726 180.235 378.392 180.596 377.992 180.871C377.592 181.147 377.137 181.33 376.659 181.408L374.463 176.391Z" fill="#ED893E"/>
<path d="M354.66 190.419C355.948 191.742 357.704 192.499 359.545 192.526C361.973 192.526 362.555 190.185 361.334 188.137C360.112 186.089 357.669 184.217 355.518 185.212C355.039 185.421 354.621 185.748 354.3 186.161C353.98 186.575 353.767 187.063 353.682 187.581C353.597 188.099 353.641 188.629 353.812 189.125C353.983 189.621 354.274 190.066 354.66 190.419Z" fill="#FFB573"/>
<path d="M364.46 177.341C364.552 177.314 364.634 177.259 364.694 177.183C364.754 177.107 364.789 177.014 364.794 176.917C364.925 176.183 365.208 175.485 365.624 174.868C366.039 174.251 366.579 173.728 367.208 173.333C367.308 173.267 367.378 173.164 367.403 173.046C367.427 172.928 367.404 172.805 367.339 172.704C367.273 172.603 367.17 172.533 367.053 172.508C366.936 172.483 366.814 172.507 366.713 172.572C365.949 173.036 365.294 173.661 364.792 174.403C364.29 175.145 363.954 175.988 363.805 176.873C363.801 176.995 363.845 177.114 363.926 177.204C364.008 177.294 364.121 177.348 364.242 177.356L364.46 177.341Z" fill="#263238"/>
<path d="M377.153 169.252C377.228 169.228 377.296 169.186 377.352 169.13C377.407 169.074 377.449 169.005 377.473 168.93C377.504 168.812 377.489 168.686 377.429 168.579C377.369 168.472 377.27 168.394 377.153 168.359C376.464 168.149 375.736 168.107 375.028 168.236C374.32 168.366 373.652 168.664 373.082 169.106C373.037 169.145 373 169.193 372.974 169.246C372.947 169.3 372.932 169.358 372.928 169.418C372.924 169.478 372.931 169.538 372.95 169.595C372.969 169.652 372.999 169.704 373.038 169.749C373.077 169.794 373.125 169.831 373.178 169.858C373.232 169.885 373.29 169.9 373.349 169.904C373.408 169.909 373.468 169.901 373.525 169.882C373.581 169.863 373.633 169.832 373.678 169.793C374.133 169.449 374.664 169.218 375.225 169.122C375.786 169.025 376.363 169.065 376.906 169.237C376.986 169.264 377.071 169.269 377.153 169.252Z" fill="#263238"/>
<path d="M377.866 183.705C377.558 185.068 377.344 186.452 377.226 187.845H376.499C373.184 188.079 371.57 187.084 370.785 185.914C370.415 185.332 370.191 184.67 370.13 183.983C370.072 183.595 370.072 183.2 370.13 182.812C372.237 183.581 374.482 183.89 376.717 183.719C377.429 183.749 377.866 183.705 377.866 183.705Z" fill="#263238"/>
<path d="M376.731 183.778L376.513 184.992C373.402 185.197 371.163 184.919 370.13 184.041C370.072 183.654 370.072 183.259 370.13 182.871C372.242 183.642 374.492 183.951 376.731 183.778Z" fill="white"/>
<path d="M376.499 187.903C373.184 188.137 371.57 187.143 370.785 185.972C372.048 185.91 373.312 186.069 374.521 186.441C375.316 186.708 376.008 187.22 376.499 187.903Z" fill="#DE5753"/>
<path d="M369.941 176.391L370.901 175.586C370.901 175.586 370.668 176.947 369.781 176.903C369.304 176.789 368.801 176.863 368.376 177.111C367.952 177.359 367.638 177.76 367.498 178.234C367.455 175.864 369.316 176.2 369.941 176.391Z" fill="#263238"/>
<path d="M377.473 173.114L378.433 172.309C378.433 172.309 378.2 173.67 377.313 173.626C376.836 173.516 376.335 173.592 375.911 173.839C375.487 174.086 375.172 174.486 375.03 174.957C374.987 172.617 376.833 172.924 377.473 173.114Z" fill="#263238"/>
<path d="M358.178 179.17C358.178 179.17 361.232 173.114 358.527 167.804C360.078 169.472 361.03 171.614 361.232 173.889C362.441 172.331 363.849 170.939 365.419 169.749C365.078 167.745 364.363 165.824 363.311 164.088C364.164 164.71 364.88 165.503 365.413 166.417C365.946 167.33 366.285 168.346 366.408 169.398C366.534 167.506 366.077 165.621 365.099 164C366.697 165.066 367.882 166.652 368.458 168.491L371.701 167.277C371.701 167.277 370.974 164.264 369.461 163.444C370.91 164.253 372.221 165.29 373.344 166.516C373.344 166.516 376.382 166.297 377.08 167.204C376.447 165.791 375.499 164.543 374.308 163.559C373.118 162.574 371.718 161.879 370.217 161.528C372.862 161.747 375.407 162.649 377.604 164.147C377.604 164.147 373.518 157.344 362.38 160.241C351.243 163.137 348.96 171.154 348.829 174.518C348.698 177.883 358.178 179.17 358.178 179.17Z" fill="#263238"/>
<path d="M352.028 168.228C349.517 166.445 346.587 165.351 343.527 165.053C340.468 164.756 337.384 165.265 334.58 166.531C324.227 170.773 329.593 193.067 341.486 202.181C353.38 211.294 359.836 205.692 359.836 205.692C359.836 205.692 353.409 208.354 347.448 201.142C349.23 202.392 351.26 203.239 353.398 203.625C355.537 204.012 357.733 203.928 359.836 203.38L356.419 202.517L359.836 201.245C358.338 201.493 356.805 201.433 355.331 201.069C353.856 200.704 352.47 200.042 351.257 199.123C351.257 199.123 355.256 200.279 357.858 199.123C357.858 199.123 344.554 198.538 340.905 186.206C337.255 173.875 350.399 175.703 350.399 175.703L352.028 168.228Z" fill="#263238"/>
<path d="M399.341 141.092L395.095 134.348L404.794 135.255C404.794 135.255 407.265 140.916 404.794 144.032L403.863 143.915C402.949 143.81 402.069 143.503 401.287 143.015C400.505 142.526 399.84 141.87 399.341 141.092Z" fill="#FFB573"/>
<path d="M394.63 127.21L402.787 126.712L404.794 135.255L395.095 134.348L394.63 127.21Z" fill="#FFB573"/>
<path d="M411.119 256.262L367.949 268.389C365.491 259.232 362.441 250.245 358.818 241.488C356.797 236.47 354.849 232.023 353.249 228.322C353.249 228.176 353.133 228.029 353.06 227.883C350.152 220.964 348.408 216.546 349.629 215.478C352.537 212.947 362.802 209.159 362.802 209.159C362.802 209.159 375.452 216.59 382.867 213.445C387.825 211.338 384.321 204.668 384.321 204.668C389.934 200.118 392.376 200.411 395.125 203.614C396.666 205.59 397.938 207.765 398.905 210.08C404.808 223.246 409.519 247.456 410.799 254.405C410.886 254.858 410.959 255.253 411.002 255.546C411.002 255.707 411.002 255.838 411.002 255.941C411.002 256.043 411.119 256.262 411.119 256.262Z" fill="#263238"/>
<path opacity="0.7" d="M411.119 256.262L367.949 268.389C365.491 259.232 362.441 250.245 358.818 241.488C356.797 236.47 354.849 232.023 353.249 228.322C353.237 228.154 353.192 227.99 353.118 227.839L359.138 228.205L360.679 228.293C360.679 228.293 361.363 215.361 363.834 211.967C363.834 211.967 376.019 217.936 383.085 214.893C390.152 211.85 386.866 205.721 386.866 205.721C391.144 206.207 395.246 207.712 398.832 210.11H398.905C405.477 224.402 410.115 250.704 410.93 255.458C410.93 255.619 410.93 255.75 410.93 255.853C410.93 255.955 411.119 256.262 411.119 256.262Z" fill="white"/>
<path opacity="0.2" d="M358.818 241.488C356.797 236.47 354.849 232.023 353.249 228.322C353.249 228.176 353.133 228.029 353.06 227.883C354.784 226.888 356.764 226.435 358.745 226.581C358.745 226.581 358.92 227.195 359.123 228.263C360.02 232.638 359.915 237.16 358.818 241.488Z" fill="black"/>
<path d="M360.592 226.04C353.933 236.645 345.499 246.344 334.042 251.888C333.026 252.382 331.921 252.663 330.794 252.713C329.667 252.764 328.541 252.583 327.486 252.182C326.43 251.781 325.467 251.169 324.654 250.381C323.842 249.594 323.197 248.648 322.759 247.602C320.491 242.848 320.025 238.401 319.357 233.632C318.721 227.956 318.482 222.241 318.644 216.531L325.798 215.727C327.252 220.993 328.706 226.332 330.16 231.438C331.192 234.744 332.195 238.606 333.867 241.239C333.955 241.341 333.984 241.341 333.94 241.239C333.201 240.438 332.224 239.898 331.155 239.7C330.086 239.502 328.982 239.657 328.008 240.142C336.063 235.197 342.751 226.362 348.189 218.389L360.607 226.011L360.592 226.04Z" fill="#FFB573"/>
<path d="M350.487 215.039C346.648 216.414 339.931 226.961 339.931 226.961L352.115 241.078C352.115 241.078 361.159 232.681 360.737 227.356C360.316 222.032 354.849 213.43 350.487 215.039Z" fill="#263238"/>
<path d="M358.658 210.3C358.658 210.3 415.815 229.521 437.291 267.351L435.371 273.012C435.371 273.012 423.943 237.904 356.419 211.719L358.658 210.3Z" fill="#A69ED9" fill-opacity="0.8"/>
<path opacity="0.3" d="M358.658 210.3C358.658 210.3 415.815 229.521 437.291 267.351L435.371 273.012C435.371 273.012 423.943 237.904 356.419 211.719L358.658 210.3Z" fill="black"/>
<path d="M316.478 197.441L342.911 207.813L341.646 232.315L311.258 220.349L313.541 198.055L316.478 197.441Z" fill="#A69ED9" fill-opacity="0.8"/>
<path opacity="0.2" d="M316.478 197.441L342.911 207.813L341.646 232.315L311.258 220.349L313.541 198.055L316.478 197.441Z" fill="black"/>
<path d="M341.705 208.822L339.887 230.048L333.606 231.891L332.908 208.354L341.705 208.822Z" fill="#A69ED9" fill-opacity="0.8"/>
<path opacity="0.7" d="M341.705 208.822L339.887 230.048L333.606 231.891L332.908 208.354L341.705 208.822Z" fill="white"/>
<path d="M342.911 207.813L338.738 209.846L336.688 232.754L309.12 221.593L313.541 198.055L316.478 197.441L342.911 207.813Z" fill="#A69ED9" fill-opacity="0.8"/>
<path d="M332.021 237.289C331.352 235.446 330.712 233.456 330.131 231.438C328.677 226.332 327.223 220.993 325.769 215.727L318.615 216.531C318.453 222.241 318.691 227.956 319.327 233.632C319.661 236.588 320.181 239.519 320.883 242.409C321.304 244.185 321.923 245.908 322.73 247.544C323.031 248.141 323.386 248.709 323.791 249.241C324.443 250.132 325.251 250.895 326.176 251.493L326.67 251.786L327.295 252.093L327.95 252.342C328.207 252.429 328.47 252.502 328.735 252.561C329.832 252.803 330.968 252.803 332.065 252.561C332.562 252.449 333.049 252.292 333.519 252.093L334.042 251.844L334.609 251.581C335.147 251.318 335.656 251.04 336.165 250.777C336.15 250.82 333.431 236.148 332.021 237.289Z" fill="#FFB573"/>
<path d="M318.586 217.716L317.626 206.16L326.728 211.806C326.728 211.806 326.408 218.594 322.454 220.481L318.586 217.716Z" fill="#FFB573"/>
<path d="M321.974 198.421L329.346 203.571L326.728 211.806L317.626 206.174L321.974 198.421Z" fill="#FFB573"/>
<path d="M242.542 294.033C242.542 294.033 219.147 303.63 207.442 301.889C195.737 300.148 192.495 329.683 207.442 336.236C222.389 342.79 239.75 341.152 245.988 337.056C252.225 332.96 242.542 294.033 242.542 294.033Z" fill="#A69ED9" fill-opacity="0.8"/>
<path opacity="0.2" d="M242.542 294.033C242.542 294.033 219.147 303.63 207.442 301.889C195.737 300.148 192.495 329.683 207.442 336.236C222.389 342.79 239.75 341.152 245.988 337.056C252.225 332.96 242.542 294.033 242.542 294.033Z" fill="black"/>
<path d="M242.542 294.033C242.542 294.033 261.895 311.149 263.058 316.356C264.221 321.564 250.204 338.153 243.501 336.997C236.798 335.841 239.139 295.789 239.139 295.789L242.542 294.033Z" fill="#A69ED9" fill-opacity="0.8"/>
<path opacity="0.2" d="M242.542 294.033C242.542 294.033 261.895 311.149 263.058 316.356C264.221 321.564 250.204 338.153 243.501 336.997C236.798 335.841 239.139 295.789 239.139 295.789L242.542 294.033Z" fill="white"/>
<path d="M195.418 232.828C205.901 224.914 217.228 217.351 227.566 209.422C230.474 205.648 231.491 200.864 232.742 196.125C234.196 190.083 235.315 183.661 236.246 177.371L243.051 177.488C243.676 184.266 243.676 191.087 243.051 197.865C242.149 205.107 240.942 213.693 235.374 219.179C225.218 228.065 214.572 236.368 203.487 244.048L195.49 232.784L195.418 232.828Z" fill="#DC897C"/>
<path d="M202.106 252.064C211.092 252.43 230.081 229.843 230.081 229.843L217.46 217.394C210.341 221.158 203.734 225.828 197.802 231.291C189.02 239.908 192.117 251.61 202.106 252.064Z" fill="#263238"/>
<path opacity="0.2" d="M202.106 252.064C211.092 252.43 230.081 229.843 230.081 229.843L217.46 217.394C210.341 221.158 203.734 225.828 197.802 231.291C189.02 239.908 192.117 251.61 202.106 252.064Z" fill="white"/>
<path opacity="0.1" d="M203.226 252.02C200.463 248.977 200.652 244.574 206.134 238.518C211.581 232.902 217.877 228.187 224.788 224.548L230.168 229.843C230.168 229.843 212.56 250.879 203.226 252.02Z" fill="black"/>
<path d="M236.013 184.319L233.687 171.007L245.421 170.846C245.421 170.846 248.329 179.916 242.295 184.89L236.013 184.319Z" fill="#E4897B"/>
<path d="M236.639 161.908L245.421 163.883V170.89L233.687 171.051L236.639 161.908Z" fill="#E4897B"/>
<path d="M179.002 513.973L166.774 514.178C166.575 514.18 166.382 514.251 166.229 514.379C166.076 514.507 165.97 514.684 165.93 514.88L164.084 523.92C164.042 524.114 164.039 524.314 164.076 524.508C164.113 524.703 164.189 524.888 164.299 525.052C164.409 525.216 164.551 525.356 164.717 525.463C164.882 525.57 165.068 525.643 165.262 525.676C165.373 525.69 165.485 525.69 165.596 525.676C169.551 525.544 172.415 525.266 177.388 525.178C180.441 525.178 189.674 525.31 193.905 525.178C198.137 525.047 198.602 520.907 196.813 520.556C189.035 518.976 183.16 516.709 180.645 514.514C180.181 514.138 179.597 513.946 179.002 513.973Z" fill="#263238"/>
<path d="M282.076 513.973L269.862 514.178C269.661 514.177 269.465 514.247 269.309 514.375C269.152 514.503 269.045 514.681 269.005 514.88L267.172 523.92C267.13 524.113 267.127 524.312 267.163 524.505C267.199 524.699 267.274 524.883 267.382 525.047C267.491 525.211 267.632 525.351 267.795 525.459C267.959 525.567 268.143 525.641 268.336 525.676C268.447 525.69 268.559 525.69 268.67 525.676C272.625 525.544 275.504 525.266 280.462 525.178C283.515 525.178 292.748 525.31 296.979 525.178C301.211 525.047 301.69 520.907 299.887 520.556C292.109 518.976 286.234 516.709 283.719 514.514C283.255 514.138 282.671 513.946 282.076 513.973Z" fill="#263238"/>
<path d="M164.055 514.602H180.703C180.703 514.602 201.902 444.297 203.72 426.363C205.537 408.428 206.206 363.46 206.206 363.46V363.548C206.933 364.513 213.215 373.407 220.455 383.75C229.921 397.281 241.03 413.285 243.371 417.205C250.233 428.762 267.042 514.543 267.042 514.543H283.675C283.675 514.543 279.488 437.758 270.938 412.451C262.389 387.144 225.428 331.877 223.829 328.908C221.779 325.119 216.748 313.094 216.748 313.094L166.861 320.072C166.861 320.072 166.047 328.571 166.105 336.002C166.338 363.884 171.572 401.567 172.415 411.705C174.058 431.029 164.055 514.602 164.055 514.602Z" fill="#A69ED9" fill-opacity="0.8"/>
<path d="M205.014 232.14C205.014 232.14 219.947 258.925 216.777 313.153L166.905 320.13C165.451 312.48 165.116 274.226 152.714 238.957C158.081 237.141 163.56 235.676 169.115 234.568C176.119 233.179 183.197 232.202 190.314 231.642C195.219 231.425 200.134 231.591 205.014 232.14Z" fill="#263238"/>
<path opacity="0.2" d="M216.82 313.153L166.934 320.13C166.047 315.347 165.567 298.553 162.295 278C161.423 272.515 160.347 266.751 158.995 260.9C157.319 253.474 155.232 246.148 152.743 238.957C158.108 237.134 163.587 235.668 169.144 234.568C176.153 233.179 183.236 232.202 190.358 231.642C195.266 231.469 200.18 231.669 205.058 232.242C205.058 232.242 219.976 258.925 216.82 313.153Z" fill="white"/>
<path d="M166.192 210.153C168.998 216.634 173.041 228.732 169.318 234.29C176.37 235.622 181.43 236.441 187.973 240.142C189.005 235.548 190.227 229.624 190.227 229.624C182.332 229.492 181.285 223.772 181.503 218.301L166.192 210.153Z" fill="#E4897B"/>
<path opacity="0.2" d="M172.415 213.489L181.43 218.316C181.385 219.611 181.443 220.907 181.605 222.193C178.697 222.412 174.029 220.13 173.055 217.175C172.615 215.997 172.398 214.747 172.415 213.489Z" fill="black"/>
<path opacity="0.5" d="M164.055 514.602H180.703C180.703 514.602 201.902 444.297 203.72 426.363C205.537 408.428 206.206 363.46 206.206 363.46V363.548C206.933 364.513 213.215 373.407 220.455 383.75C229.921 397.281 241.03 413.285 243.371 417.205C250.233 428.762 267.042 514.543 267.042 514.543H283.675C283.675 514.543 279.488 437.758 270.938 412.451C262.389 387.144 225.428 331.877 223.829 328.908C221.779 325.119 216.748 313.094 216.748 313.094L166.861 320.072C166.861 320.072 166.047 328.571 166.105 336.002C166.338 363.884 171.572 401.567 172.415 411.705C174.058 431.029 164.055 514.602 164.055 514.602Z" fill="white"/>
<path d="M162.906 235.914L167.05 230.706L180.47 233.31L187.29 241.166L188.148 232.096L190.663 229.068L196.174 231.452V237.128L192.248 235.841L188.86 243.77L178.144 239.337L175.76 242.394L162.906 235.914Z" fill="#263238"/>
<path opacity="0.3" d="M162.906 235.914L167.05 230.706L180.47 233.31L187.29 241.166L188.148 232.096L190.663 229.068L196.174 231.452V237.128L192.248 235.841L188.86 243.77L178.144 239.337L175.76 242.394L162.906 235.914Z" fill="white"/>
<path opacity="0.1" d="M188.86 243.77L190.154 234.29L196.174 237.128L192.248 235.841L188.86 243.77Z" fill="black"/>
<path opacity="0.1" d="M188.86 243.77L178.929 236.411L175.759 242.395L178.144 239.337L188.86 243.77Z" fill="black"/>
<path opacity="0.1" d="M162.295 277.942C161.423 272.456 160.347 266.693 158.995 260.841C160.604 258.833 162.892 257.489 165.422 257.067C165.422 257.067 166.788 270.408 162.295 277.942Z" fill="black"/>
<path opacity="0.2" d="M206.206 363.489V363.577C206.933 364.543 213.215 373.437 220.455 383.779C221.172 378.181 220.226 372.496 217.737 367.438C215.248 362.38 211.327 358.176 206.468 355.356L206.206 363.489Z" fill="black"/>
<path d="M180.965 182.93C185.967 184.217 190.837 196.856 185.443 200.733C180.049 204.609 171.572 180.516 180.965 182.93Z" fill="#263238"/>
<path d="M162.354 200.864C165.96 209.641 167.617 215.025 173.738 218.257C175.718 219.327 177.95 219.831 180.194 219.717C182.438 219.603 184.608 218.873 186.47 217.609C188.332 216.344 189.816 214.591 190.759 212.539C191.703 210.488 192.072 208.216 191.826 205.969C191.027 197.295 185.283 184.319 175.222 183.442C173.05 183.19 170.851 183.517 168.845 184.39C166.838 185.264 165.096 186.653 163.792 188.418C162.488 190.184 161.669 192.263 161.417 194.447C161.164 196.632 161.487 198.845 162.354 200.864Z" fill="#E4897B"/>
<path d="M169.013 188.079L167.006 180.165C165.172 181.489 162.968 182.196 160.711 182.184C150.882 181.73 144.804 189.161 150.169 193.638C146.083 196.417 149.675 202.078 153.382 205.428C158.515 210.08 163.386 211.806 165.974 208.778C168.431 206.935 167.123 197.397 165.567 194.047C163.241 189.03 169.013 188.079 169.013 188.079Z" fill="#263238"/>
<path d="M161.946 210.812C163.735 212.344 165.995 213.207 168.344 213.255C171.252 213.255 171.485 210.431 169.565 208.105C167.835 206.013 164.215 203.497 161.772 204.638C159.329 205.779 159.678 208.895 161.946 210.812Z" fill="#E4897B"/>
<path d="M176.908 199.211C177.155 199.943 177.752 200.425 178.231 200.279C178.711 200.133 178.9 199.416 178.653 198.685C178.406 197.953 177.81 197.485 177.33 197.631C176.85 197.778 176.661 198.48 176.908 199.211Z" fill="#263238"/>
<path d="M185.225 196.695C185.472 197.427 186.068 197.895 186.548 197.748C187.028 197.602 187.217 196.885 186.97 196.154C186.723 195.422 186.127 194.954 185.647 195.101C185.167 195.247 184.978 196.022 185.225 196.695Z" fill="#263238"/>
<path d="M182.71 197.851C184.347 199.827 186.239 201.573 188.337 203.044C187.949 203.557 187.453 203.977 186.885 204.276C186.317 204.574 185.691 204.743 185.051 204.77L182.71 197.851Z" fill="#DE5753"/>
<path d="M173.433 197.324C173.362 197.346 173.286 197.346 173.215 197.324C173.158 197.304 173.106 197.274 173.061 197.233C173.017 197.193 172.98 197.144 172.955 197.09C172.929 197.035 172.914 196.976 172.912 196.916C172.909 196.856 172.918 196.796 172.939 196.739C173.157 196.062 173.536 195.448 174.043 194.951C174.549 194.454 175.168 194.089 175.847 193.886C175.905 193.874 175.965 193.872 176.024 193.883C176.083 193.894 176.139 193.916 176.189 193.949C176.239 193.982 176.282 194.024 176.315 194.073C176.349 194.123 176.373 194.179 176.385 194.237C176.407 194.354 176.385 194.474 176.323 194.574C176.261 194.675 176.164 194.748 176.05 194.779C175.516 194.942 175.028 195.234 174.631 195.629C174.233 196.024 173.937 196.51 173.768 197.046C173.74 197.117 173.694 197.18 173.636 197.228C173.577 197.277 173.508 197.31 173.433 197.324Z" fill="#263238"/>
<path d="M187.842 192.76C187.769 192.769 187.695 192.762 187.624 192.739C187.554 192.716 187.489 192.679 187.435 192.628C187.042 192.201 186.558 191.87 186.019 191.66C185.479 191.45 184.9 191.366 184.324 191.414C184.206 191.435 184.085 191.409 183.987 191.34C183.888 191.272 183.821 191.167 183.8 191.048C183.783 190.928 183.813 190.806 183.884 190.708C183.954 190.61 184.06 190.543 184.178 190.522C184.896 190.442 185.623 190.533 186.299 190.787C186.976 191.041 187.584 191.451 188.075 191.985C188.117 192.027 188.151 192.077 188.173 192.132C188.196 192.187 188.208 192.247 188.208 192.306C188.208 192.366 188.196 192.425 188.173 192.481C188.151 192.536 188.117 192.586 188.075 192.628C188.014 192.696 187.932 192.742 187.842 192.76Z" fill="#263238"/>
<path d="M160.333 183.31C160.333 183.31 165.378 169.574 178.086 170.642C176.911 171.055 175.825 171.691 174.887 172.514C174.887 172.514 185.574 170.203 189.892 177.415L187.668 176.464C187.668 176.464 191.201 182.432 188.497 187.011L187.639 184.992C187.639 184.992 183.902 191.063 177.097 190.332L179.235 188.869C179.235 188.869 167.821 189.951 164.695 187.406C163.092 186.21 161.629 184.836 160.333 183.31Z" fill="#263238"/>
<path d="M187.232 207.096C183.356 206.803 179.462 206.876 175.6 207.315C176.806 209.831 178.842 211.792 183.219 211.397C183.77 211.402 184.316 211.293 184.822 211.075C185.329 210.857 185.786 210.536 186.163 210.132C186.54 209.728 186.83 209.249 187.014 208.727C187.198 208.204 187.272 207.649 187.232 207.096Z" fill="#263238"/>
<path d="M181.008 209.524C182.684 209.29 184.389 209.598 185.879 210.402C185.11 211.002 184.176 211.349 183.204 211.397C181.534 211.638 179.83 211.33 178.348 210.519C179.111 209.919 180.041 209.572 181.008 209.524Z" fill="#A02724"/>
<path d="M186.839 207.052C186.793 207.389 186.652 207.706 186.433 207.965C186.214 208.224 185.926 208.415 185.603 208.515C183.068 208.721 180.52 208.721 177.984 208.515C177.579 208.512 177.18 208.407 176.825 208.211C176.469 208.014 176.168 207.731 175.949 207.388C179.565 207.004 183.206 206.891 186.839 207.052Z" fill="white"/>
<path d="M177.577 279.405L165.611 265.478L157.177 293.799C157.177 293.799 161.801 304.185 161.976 303.673C162.15 303.161 177.577 279.405 177.577 279.405Z" fill="#A69ED9" fill-opacity="0.8"/>
<path d="M176.007 279.683L165.611 267.994L159.693 266.605L157.992 290.99L164.84 295.789L176.007 279.683Z" fill="#A69ED9" fill-opacity="0.8"/>
<path opacity="0.7" d="M176.007 279.683L165.611 267.994L159.693 266.605L157.992 290.99L164.84 295.789L176.007 279.683Z" fill="white"/>
<path d="M159.504 263.928L170.191 277.693L177.577 279.331L166.323 316.927L155.651 318.068L148.904 302.444L159.504 263.928Z" fill="#A69ED9" fill-opacity="0.8"/>
<path opacity="0.2" d="M159.504 263.928L170.191 277.693L177.577 279.331L166.323 316.927L155.651 318.068L148.904 302.444L159.504 263.928Z" fill="white"/>
<path d="M169.784 279.946L156.698 267.014L150.504 295.92C150.504 295.92 155.941 305.897 156.072 305.37C156.203 304.844 169.784 279.946 169.784 279.946Z" fill="#A69ED9" fill-opacity="0.8"/>
<path opacity="0.4" d="M169.784 279.946L156.698 267.014L150.504 295.92C150.504 295.92 155.941 305.897 156.072 305.37C156.203 304.844 169.784 279.946 169.784 279.946Z" fill="black"/>
<path d="M168.257 280.429L156.974 269.589L150.969 268.682L151.172 293.126L158.384 297.369L168.257 280.429Z" fill="#A69ED9" fill-opacity="0.8"/>
<path opacity="0.7" d="M168.257 280.429L156.974 269.589L150.969 268.682L151.172 293.126L158.384 297.369L168.257 280.429Z" fill="white"/>
<path d="M150.576 266.02L162.31 278.907L169.784 279.946L161.525 318.331L150.969 320.291L143.015 305.268L150.576 266.02Z" fill="#A69ED9" fill-opacity="0.8"/>
<path opacity="0.2" d="M150.576 266.02L162.31 278.907L169.784 279.946L161.525 318.331L150.969 320.291L143.015 305.268L150.576 266.02Z" fill="black"/>
<path d="M159.809 251.61C151.579 260.285 142.448 268.901 135.731 278.79C135.455 279.244 135.164 279.785 135.047 280.004C135.097 279.729 135.097 279.446 135.047 279.171C135.047 278.893 134.844 278.849 134.888 278.98C135.426 280.326 137.796 282.008 139.25 283.018C144.068 285.996 149.109 288.593 154.328 290.786L152.67 297.354C146.301 296.61 140.071 294.945 134.175 292.409C126.149 289.016 119.49 281.789 124.739 272.646C128.341 266.307 132.632 260.39 137.534 255.004C141.62 250.338 145.778 245.935 150.271 241.619L159.853 251.537L159.809 251.61Z" fill="#DC897C"/>
<path d="M159.678 237.977C145.444 235.051 128.185 262.143 128.185 262.143L142.492 273.553C149.832 268.886 156.794 263.642 163.313 257.872C172.314 249.504 169.144 239.908 159.678 237.977Z" fill="#263238"/>
<path opacity="0.2" d="M159.678 237.977C145.444 235.051 128.185 262.143 128.185 262.143L142.492 273.553C149.832 268.886 156.794 263.642 163.313 257.872C172.314 249.504 169.144 239.908 159.678 237.977Z" fill="white"/>
<path d="M150.678 289.381L164.04 287.918L163.386 299.724C163.386 299.724 154.197 302.035 149.675 295.598L150.678 289.381Z" fill="#E4897B"/>
<path d="M172.91 291.576L170.322 300.25L163.386 299.768L164.04 287.962L172.91 291.576Z" fill="#E4897B"/>
<path d="M194.414 230.516C194.414 230.516 223.901 258.486 239.488 296.681L242.484 294.033C242.484 294.033 223.916 254.244 199.518 229.902L194.414 230.516Z" fill="#A69ED9" fill-opacity="0.8"/>
</svg>
