<svg width="814" height="606" viewBox="0 0 814 606" fill="none" xmlns="http://www.w3.org/2000/svg">
<path d="M813.292 532.543H0V532.95H813.292V532.543Z" fill="#EBEBEB"/>
<path d="M731.8 558.715H677.927V559.122H731.8V558.715Z" fill="#EBEBEB"/>
<path d="M538.757 563.139H524.622V563.546H538.757V563.139Z" fill="#EBEBEB"/>
<path d="M676.301 543.621H598.762V544.027H676.301V543.621Z" fill="#EBEBEB"/>
<path d="M123.848 546.353H85.3306V546.76H123.848V546.353Z" fill="#EBEBEB"/>
<path d="M180.372 546.353H138.325V546.76H180.372V546.353Z" fill="#EBEBEB"/>
<path d="M318.989 553.217H213.847V553.624H318.989V553.217Z" fill="#EBEBEB"/>
<path d="M385.5 459.998H71.4233C68.9628 459.994 66.6046 459.013 64.8663 457.272C63.128 455.53 62.1517 453.171 62.1517 450.71V9.20646C62.1732 6.76012 63.1589 4.42102 64.8949 2.69723C66.6308 0.973442 68.9768 0.00419071 71.4233 0H385.5C387.964 0 390.326 0.978533 392.068 2.72033C393.81 4.46213 394.788 6.82452 394.788 9.28779V450.71C394.788 453.173 393.81 455.536 392.068 457.278C390.326 459.019 387.964 459.998 385.5 459.998ZM71.4233 0.325318C69.0707 0.329627 66.8159 1.26721 65.1539 2.93229C63.4918 4.59736 62.5584 6.85385 62.5584 9.20646V450.71C62.5584 453.063 63.4918 455.319 65.1539 456.984C66.8159 458.649 69.0707 459.587 71.4233 459.591H385.5C387.854 459.587 390.111 458.65 391.775 456.985C393.44 455.321 394.377 453.064 394.381 450.71V9.20646C394.377 6.85236 393.44 4.5959 391.775 2.93129C390.111 1.26669 387.854 0.329618 385.5 0.325318H71.4233Z" fill="#EBEBEB"/>
<path d="M737.347 459.998H423.253C420.791 459.994 418.432 459.014 416.691 457.273C414.95 455.532 413.97 453.172 413.966 450.71V9.20646C413.991 6.75864 414.981 4.41955 416.719 2.69621C418.458 0.972874 420.805 0.00414501 423.253 0H737.347C739.79 0.00846555 742.132 0.979609 743.865 2.70294C745.597 4.42627 746.581 6.76293 746.602 9.20646V450.71C746.602 453.168 745.628 455.525 743.893 457.266C742.158 459.007 739.804 459.989 737.347 459.998ZM423.253 0.325318C420.899 0.329618 418.643 1.26669 416.978 2.93129C415.314 4.5959 414.376 6.85236 414.372 9.20646V450.71C414.376 453.064 415.314 455.321 416.978 456.985C418.643 458.65 420.899 459.587 423.253 459.591H737.347C739.701 459.587 741.957 458.65 743.622 456.985C745.286 455.321 746.224 453.064 746.228 450.71V9.20646C746.224 6.85236 745.286 4.5959 743.622 2.93129C741.957 1.26669 739.701 0.329618 737.347 0.325318H423.253Z" fill="#EBEBEB"/>
<path d="M717.99 42.2913H461.039V532.544H717.99V42.2913Z" fill="#EBEBEB"/>
<path d="M698.878 58.2804H480.151V532.543H698.878V58.2804Z" fill="#F5F5F5"/>
<path d="M620.281 97.6113H558.78V114.609H620.281V97.6113Z" fill="white"/>
<path d="M647.982 266.467H681.343C682.724 266.467 684.048 267.015 685.024 267.991C686 268.968 686.548 270.292 686.548 271.672C686.548 273.052 686 274.376 685.024 275.353C684.048 276.329 682.724 276.877 681.343 276.877H647.982C646.602 276.877 645.278 276.329 644.302 275.353C643.326 274.376 642.777 273.052 642.777 271.672C642.777 270.292 643.326 268.968 644.302 267.991C645.278 267.015 646.602 266.467 647.982 266.467Z" fill="white"/>
<path d="M285.368 94.4558H114.479V232.179H285.368V94.4558Z" fill="#EBEBEB"/>
<path d="M276.178 223.005V103.63L123.637 103.63V223.005H276.178Z" fill="#FAFAFA"/>
<path d="M258.399 164.887V159.177H141.431V164.887H258.399Z" fill="#E0E0E0"/>
<path d="M258.399 177.883V172.174H141.431V177.883H258.399Z" fill="#E0E0E0"/>
<path d="M258.399 190.863V185.154H141.431V190.863H258.399Z" fill="#E0E0E0"/>
<path d="M229.072 203.86V198.15H170.759V203.86H229.072Z" fill="#E0E0E0"/>
<path d="M141.513 103.63C141.513 105.974 141.049 108.295 140.149 110.46C139.248 112.624 137.928 114.589 136.265 116.242C134.602 117.894 132.629 119.201 130.459 120.088C128.289 120.975 125.965 121.423 123.62 121.408C120.386 121.416 117.212 120.533 114.446 118.855V94.4558H138.845C140.555 97.2131 141.477 100.386 141.513 103.63Z" fill="#EBEBEB"/>
<path d="M285.368 94.4558V118.855C281.967 120.9 277.98 121.749 274.041 121.266C270.103 120.784 266.439 118.997 263.633 116.191C260.827 113.385 259.04 109.721 258.557 105.782C258.075 101.843 258.924 97.8563 260.969 94.4558H285.368Z" fill="#EBEBEB"/>
<path d="M141.513 223.021C141.518 226.248 140.641 229.415 138.975 232.178H114.577V207.78C117.275 206.164 120.354 205.292 123.499 205.253C126.644 205.215 129.744 206.01 132.481 207.559C135.219 209.108 137.497 211.355 139.083 214.071C140.67 216.787 141.508 219.875 141.513 223.021Z" fill="#EBEBEB"/>
<path d="M285.368 207.764V232.162H260.969C259.291 229.403 258.407 226.234 258.415 223.005C258.419 219.855 259.257 216.763 260.846 214.043C262.434 211.323 264.715 209.073 267.456 207.522C270.198 205.971 273.301 205.175 276.451 205.214C279.6 205.254 282.683 206.128 285.384 207.747L285.368 207.764Z" fill="#EBEBEB"/>
<path d="M214.869 135.142C216.209 126.886 210.603 119.108 202.348 117.768C194.092 116.428 186.314 122.034 184.974 130.289C183.634 138.545 189.24 146.323 197.495 147.663C205.75 149.003 213.529 143.397 214.869 135.142Z" fill="#E0E0E0"/>
<path d="M423.465 336.947H85.3306V349.114H423.465V336.947Z" fill="#EBEBEB"/>
<path d="M420.537 349.114H310.678V532.543H420.537V349.114Z" fill="#F5F5F5"/>
<path d="M199.37 349.114H89.5109V532.543H199.37V349.114Z" fill="#F5F5F5"/>
<path d="M93.2683 349.114H89.5109V532.543H93.2683V349.114Z" fill="#EBEBEB"/>
<path d="M314.435 349.114H310.678V532.543H314.435V349.114Z" fill="#EBEBEB"/>
<path d="M147.206 307.62H127.004L128.63 336.947H145.579L147.206 307.62Z" fill="#F0F0F0"/>
<path d="M322.6 324.227H217.051V336.947H322.6V324.227Z" fill="#F0F0F0"/>
<path d="M322.617 325.723H273.949V335.467H322.617V325.723Z" fill="#FAFAFA"/>
<path d="M406.646 606C580.824 606 722.024 597.756 722.024 587.587C722.024 577.418 580.824 569.174 406.646 569.174C232.467 569.174 91.2676 577.418 91.2676 587.587C91.2676 597.756 232.467 606 406.646 606Z" fill="#F5F5F5"/>
<path d="M554.194 473.694C582.653 473.694 605.724 450.623 605.724 422.164C605.724 393.705 582.653 370.634 554.194 370.634C525.734 370.634 502.663 393.705 502.663 422.164C502.663 450.623 525.734 473.694 554.194 473.694Z" fill="white"/>
<path d="M554.193 474.328C543.875 474.331 533.788 471.275 525.208 465.545C516.627 459.815 509.939 451.669 505.988 442.137C502.037 432.606 501.002 422.117 503.013 411.997C505.024 401.877 509.991 392.58 517.285 385.283C524.58 377.987 533.875 373.017 543.994 371.003C554.114 368.988 564.603 370.021 574.136 373.968C583.669 377.916 591.817 384.602 597.549 393.181C603.282 401.76 606.342 411.846 606.342 422.164C606.329 435.992 600.831 449.25 591.054 459.029C581.278 468.809 568.021 474.311 554.193 474.328ZM554.193 371.284C544.126 371.284 534.286 374.269 525.915 379.863C517.545 385.456 511.022 393.406 507.17 402.707C503.318 412.008 502.312 422.242 504.277 432.115C506.242 441.988 511.091 451.057 518.21 458.174C525.33 465.292 534.4 470.138 544.274 472.1C554.148 474.062 564.382 473.051 573.682 469.197C582.981 465.342 590.929 458.816 596.52 450.444C602.11 442.072 605.092 432.231 605.089 422.164C605.076 408.671 599.709 395.734 590.167 386.195C580.624 376.655 567.686 371.293 554.193 371.284Z" fill="#C8BFFF" fill-opacity="0.58"/>
<path d="M562.489 392.95H545.898V451.377H562.489V392.95Z" fill="#C8BFFF" fill-opacity="0.58"/>
<path d="M583.407 430.475V413.884H524.98V430.475H583.407Z" fill="#C8BFFF" fill-opacity="0.58"/>
<path d="M205.128 32.6456L204.022 31.4582C211.552 24.3403 221.106 19.7365 231.365 18.2828L231.593 19.9094C221.665 21.3096 212.417 25.7602 205.128 32.6456Z" fill="#C8BFFF" fill-opacity="0.58"/>
<path d="M193.092 50.4244L191.579 49.8388C193.221 45.6951 195.409 41.7893 198.085 38.225L199.387 39.2009C196.806 42.6503 194.69 46.4237 193.092 50.4244Z" fill="#C8BFFF" fill-opacity="0.58"/>
<path d="M238.473 112.739C263.124 112.739 283.107 92.7555 283.107 68.1051C283.107 43.4548 263.124 23.4717 238.473 23.4717C213.823 23.4717 193.84 43.4548 193.84 68.1051C193.84 92.7555 213.823 112.739 238.473 112.739Z" fill="#C8BFFF" fill-opacity="0.58"/>
<path d="M265.133 48.0005C263.414 46.216 261.357 44.792 259.081 43.812C256.805 42.832 254.357 42.3155 251.879 42.2928C249.401 42.2701 246.944 42.7416 244.65 43.6797C242.357 44.6178 240.274 46.0038 238.522 47.7565C236.772 46.0043 234.69 44.6187 232.398 43.6807C230.106 42.7428 227.65 42.2714 225.174 42.2941C222.697 42.3168 220.25 42.8332 217.976 43.813C215.701 44.7929 213.645 46.2165 211.928 48.0005C208.562 51.6416 206.748 56.4518 206.873 61.4088C206.997 66.3659 209.05 71.0789 212.595 74.5464L233.74 95.692C234.375 96.3264 235.128 96.8297 235.957 97.1731C236.785 97.5164 237.674 97.6932 238.571 97.6932C239.468 97.6932 240.357 97.5164 241.186 97.1731C242.015 96.8297 242.768 96.3264 243.402 95.692L264.548 74.5464C268.081 71.0682 270.119 66.3492 270.228 61.3923C270.338 56.4354 268.51 51.6312 265.133 48.0005Z" fill="white"/>
<path d="M238.473 87.6079C238.146 87.5967 237.829 87.4866 237.565 87.2921C237.3 87.0976 237.101 86.8278 236.993 86.5181L227.575 58.98L223.639 70.4962C223.527 70.8162 223.318 71.0933 223.041 71.2887C222.764 71.4841 222.433 71.5881 222.094 71.586H206.332C205.901 71.586 205.487 71.4147 205.182 71.1096C204.877 70.8046 204.706 70.3908 204.706 69.9594C204.706 69.5281 204.877 69.1143 205.182 68.8093C205.487 68.5042 205.901 68.3329 206.332 68.3329H220.971L226.079 53.4171C226.189 53.0975 226.397 52.8203 226.672 52.6241C226.948 52.4279 227.278 52.3225 227.616 52.3225C227.954 52.3225 228.284 52.4279 228.559 52.6241C228.835 52.8203 229.042 53.0975 229.153 53.4171L238.734 81.4431L248.038 59.533C248.155 59.2538 248.349 59.0129 248.596 58.8376C248.843 58.6623 249.134 58.5595 249.437 58.5408C249.741 58.5233 250.045 58.5918 250.312 58.7385C250.579 58.8852 250.8 59.1042 250.949 59.3704L255.862 68.3166H270.68C271.111 68.3166 271.525 68.488 271.83 68.793C272.135 69.0981 272.306 69.5118 272.306 69.9432C272.306 70.3746 272.135 70.7883 271.83 71.0933C271.525 71.3984 271.111 71.5698 270.68 71.5698H254.918C254.627 71.5722 254.341 71.4965 254.089 71.3506C253.837 71.2046 253.629 70.9939 253.487 70.7402L249.632 63.8435L239.97 86.6157C239.845 86.9097 239.637 87.1605 239.371 87.337C239.105 87.5134 238.793 87.6076 238.473 87.6079Z" fill="#C8BFFF" fill-opacity="0.58"/>
<path d="M486.121 530.592H316.354C313.588 530.622 310.846 530.077 308.301 528.991C305.757 527.904 303.467 526.301 301.576 524.281C299.685 522.262 298.235 519.871 297.318 517.261C296.401 514.651 296.037 511.879 296.25 509.121L323.69 102.475C324.17 96.6673 326.791 91.2454 331.044 87.2624C335.298 83.2795 340.88 81.0198 346.706 80.9226H516.505C519.279 80.8909 522.029 81.4382 524.579 82.5294C527.129 83.6207 529.423 85.232 531.316 87.2604C533.208 89.2887 534.656 91.6895 535.567 94.3092C536.479 96.9289 536.834 99.71 536.61 102.475L509.121 509.121C508.626 514.912 506 520.314 501.751 524.281C497.502 528.247 491.933 530.496 486.121 530.592Z" fill="#263238"/>
<path d="M523.76 246.525H519.482C518.707 246.535 517.939 246.382 517.227 246.077C516.515 245.773 515.874 245.323 515.346 244.756C514.818 244.19 514.413 243.519 514.159 242.787C513.905 242.056 513.807 241.279 513.87 240.507L519.124 162.772C519.246 161.147 519.974 159.626 521.164 158.512C522.354 157.397 523.919 156.77 525.549 156.754H529.827C530.602 156.745 531.37 156.897 532.082 157.202C532.794 157.506 533.435 157.956 533.963 158.523C534.491 159.089 534.896 159.76 535.15 160.492C535.404 161.224 535.502 162 535.439 162.772L530.185 240.507C530.063 242.132 529.335 243.653 528.145 244.768C526.955 245.882 525.39 246.509 523.76 246.525Z" fill="#263238"/>
<path d="M321.218 194.67H316.956C316.326 194.678 315.7 194.555 315.119 194.309C314.539 194.063 314.015 193.7 313.583 193.241C313.15 192.782 312.817 192.238 312.606 191.644C312.394 191.05 312.308 190.419 312.353 189.79L314.256 161.715C314.376 160.397 314.979 159.17 315.949 158.269C316.918 157.369 318.187 156.858 319.51 156.835H323.788C324.416 156.832 325.039 156.958 325.616 157.205C326.194 157.453 326.714 157.817 327.145 158.275C327.575 158.733 327.907 159.275 328.118 159.867C328.33 160.459 328.417 161.088 328.375 161.715L326.472 189.79C326.355 191.109 325.753 192.338 324.783 193.24C323.812 194.141 322.542 194.651 321.218 194.67Z" fill="#C8BFFF" fill-opacity="0.58"/>
<path d="M317.834 244.801H313.557C312.927 244.807 312.304 244.683 311.725 244.436C311.146 244.189 310.625 243.824 310.194 243.366C309.763 242.907 309.432 242.365 309.221 241.772C309.01 241.179 308.925 240.549 308.97 239.921L310.873 211.846C310.993 210.528 311.596 209.301 312.565 208.4C313.535 207.5 314.803 206.989 316.127 206.967H320.437C321.065 206.963 321.688 207.089 322.266 207.337C322.843 207.584 323.364 207.949 323.794 208.407C324.224 208.865 324.556 209.406 324.768 209.998C324.979 210.59 325.066 211.219 325.024 211.846L323.121 239.921C323.004 241.246 322.397 242.48 321.42 243.382C320.443 244.284 319.164 244.79 317.834 244.801Z" fill="#C8BFFF" fill-opacity="0.58"/>
<path d="M482.526 530.592H312.76C309.993 530.622 307.251 530.077 304.707 528.991C302.163 527.904 299.872 526.301 297.981 524.281C296.091 522.262 294.641 519.871 293.724 517.261C292.807 514.651 292.443 511.879 292.655 509.121L320.112 102.475C320.608 96.6653 323.247 91.2479 327.516 87.2765C331.785 83.3051 337.379 81.0635 343.209 80.9877H512.911C515.678 80.9568 518.422 81.5024 520.968 82.5897C523.513 83.6771 525.804 85.2824 527.695 87.3036C529.586 89.3247 531.036 91.7174 531.952 94.3293C532.868 96.9413 533.23 99.7153 533.015 102.475L505.542 509.121C505.047 514.915 502.419 520.319 498.167 524.286C493.914 528.253 488.341 530.5 482.526 530.592Z" fill="#C8BFFF" fill-opacity="0.58"/>
<path opacity="0.3" d="M294.444 504.566L321.25 107.745H531.177L504.371 504.566H294.444Z" fill="white"/>
<path opacity="0.1" d="M377.319 504.566L452.239 107.745H499.264L424.343 504.566H377.319Z" fill="white"/>
<path opacity="0.1" d="M341.794 504.566L416.714 107.745H440.544L365.623 504.566H341.794Z" fill="white"/>
<path d="M406.874 90.9586H447.815C448.156 90.9528 448.496 91.0188 448.81 91.1524C449.125 91.286 449.408 91.4842 449.641 91.7341C449.874 91.9841 450.052 92.2802 450.163 92.6034C450.275 92.9265 450.317 93.2695 450.287 93.6099C450.231 94.3266 449.91 94.9967 449.387 95.4897C448.863 95.9828 448.176 96.2636 447.457 96.2775H406.516C406.173 96.2811 405.834 96.2129 405.519 96.0775C405.205 95.9421 404.922 95.7423 404.689 95.4911C404.456 95.2399 404.278 94.9428 404.167 94.6188C404.056 94.2948 404.014 93.9512 404.043 93.6099C404.1 92.8949 404.422 92.2267 404.945 91.7363C405.469 91.2458 406.156 90.9685 406.874 90.9586Z" fill="white"/>
<path d="M398.35 569.711L384.004 571.077L378.831 537.976L393.178 536.594L398.35 569.711Z" fill="#FFB573"/>
<path d="M382.361 564.067L397.391 559.399C397.65 559.308 397.934 559.323 398.183 559.438C398.431 559.553 398.626 559.761 398.724 560.017L403.604 571.939C403.726 572.259 403.779 572.6 403.762 572.942C403.745 573.283 403.657 573.617 403.504 573.923C403.351 574.228 403.137 574.499 402.874 574.718C402.611 574.936 402.306 575.098 401.978 575.193C396.545 576.819 391.372 577.193 384.817 580.072C377.156 583.326 373.952 587.685 365.705 587.685C359.8 587.685 358.467 582.268 360.971 581.52C372.358 578.072 370.861 575.241 379.124 566.344C379.983 565.313 381.1 564.527 382.361 564.067Z" fill="#263238"/>
<path opacity="0.2" d="M378.831 537.976L381.499 555.055L395.862 553.673L393.194 536.594L378.831 537.976Z" fill="black"/>
<path d="M389.209 119.716C370.389 117.504 351.667 118.985 332.88 122.628C329.75 123.236 326.894 124.825 324.727 127.164C322.56 129.504 321.194 132.473 320.827 135.641C318.794 153.631 316.468 193.954 325.544 254.105L402.449 247.598C402.596 236.684 394.837 186.959 401.246 135.364C401.508 133.543 401.403 131.687 400.936 129.907C400.47 128.127 399.651 126.459 398.529 125C397.407 123.542 396.005 122.323 394.404 121.415C392.803 120.508 391.037 119.93 389.209 119.716Z" fill="white"/>
<path d="M344.429 135.137L347.178 140.634C347.306 140.912 347.51 141.147 347.766 141.314C348.022 141.481 348.32 141.572 348.626 141.578L351.602 141.741C352.133 141.764 352.656 141.603 353.082 141.285L358.206 137.463L351.879 132.859L344.429 135.137Z" fill="#263238"/>
<path d="M351.7 140.163C350.615 139.66 349.386 139.562 348.235 139.886C345.812 148.426 343.16 172.938 342.884 183.804C350.236 205.226 352.643 207.389 352.643 207.389L356.368 181.608C356.368 181.608 352.188 155.241 351.7 140.163Z" fill="#263238"/>
<path d="M372.927 82.6304C371.17 93.2357 369.674 112.608 377.286 119.456C371.707 125.312 364.403 132.095 351.879 132.859C339.354 133.624 341.29 124.954 344.462 120.318C356.157 117.195 355.587 108.477 353.294 100.328L372.927 82.6304Z" fill="#FFB573"/>
<path d="M380.474 118.529C379.588 118.147 378.667 117.847 377.725 117.635C377.495 117.574 377.251 117.59 377.03 117.681C376.81 117.772 376.626 117.933 376.505 118.139C375.302 120.188 371.626 129.346 351.879 132.859C355.132 134.779 359.442 140.732 361.297 143.595C367.218 140.521 382.621 131.33 381.157 119.44C381.128 119.244 381.05 119.058 380.93 118.899C380.811 118.74 380.654 118.613 380.474 118.529Z" fill="#F5F5F5"/>
<path d="M344.575 120.806C344.617 120.621 344.612 120.429 344.56 120.246C344.508 120.064 344.412 119.897 344.279 119.761C344.147 119.626 343.982 119.525 343.801 119.469C343.62 119.413 343.428 119.403 343.242 119.44C342.558 119.573 341.884 119.752 341.225 119.977C341.072 120.036 340.93 120.119 340.802 120.221C339.289 121.62 331.042 133.526 338.769 143.156C340.395 140.537 346.007 134.6 351.879 132.859C346.316 130.355 343.583 125.686 344.575 120.806Z" fill="#F5F5F5"/>
<path opacity="0.2" d="M364.924 89.8525L353.31 100.328C353.87 102.22 354.262 104.157 354.481 106.118C358.971 105.354 365.005 100.263 365.331 95.5456C365.551 93.6391 365.413 91.7084 364.924 89.8525Z" fill="black"/>
<path d="M349.406 50.5706C339.387 54.4906 338.736 62.7211 339.647 71.7161C340.558 80.7112 350.35 74.7579 352.529 69.1299C354.709 63.5019 363.281 45.1378 349.406 50.5706Z" fill="#263238"/>
<path d="M381.369 68.5118C378.587 82.6793 377.66 91.0888 369.56 97.6114C357.344 107.371 340.802 98.9452 339.338 84.3384C338.02 71.1794 342.786 50.1802 357.377 46.0812C360.559 45.1444 363.93 45.054 367.157 45.819C370.385 46.5839 373.357 48.1778 375.78 50.4431C378.203 52.7084 379.993 55.5666 380.973 58.7355C381.953 61.9044 382.09 65.2741 381.369 68.5118Z" fill="#FFB573"/>
<path d="M380.783 80.2394C368.86 80.8737 371.382 74.1071 373.545 70.2196C375.708 66.3321 371.3 59.9071 374.179 56.5726C369.039 58.6221 363.623 56.9304 356.742 52.1483C351.407 48.4234 344.722 63.3066 338.215 55.8406C332.067 48.7975 337.776 38.1759 352.546 36.468C367.315 34.7601 369.999 45.2028 379.693 44.2756C389.388 43.3484 386.021 51.335 384.118 52.9616C392.251 53.4983 396.691 61.2734 380.783 80.2394Z" fill="#263238"/>
<path d="M382.247 53.9538C384.113 52.9306 385.671 51.4276 386.76 49.6002C387.85 47.7728 388.431 45.6875 388.444 43.5599C391.665 49.2042 391.324 55.6129 382.247 53.9538Z" fill="#263238"/>
<path d="M351.342 83.6388C352.638 83.8631 353.966 83.8232 355.246 83.5213C356.527 83.2194 357.733 82.6618 358.792 81.8821C358.824 81.8517 358.849 81.8151 358.867 81.7746C358.884 81.7341 358.893 81.6904 358.893 81.6463C358.893 81.6021 358.884 81.5585 358.867 81.5179C358.849 81.4774 358.824 81.4408 358.792 81.4104C358.728 81.3498 358.644 81.3159 358.556 81.3159C358.468 81.3159 358.384 81.3498 358.32 81.4104C357.134 82.2513 355.769 82.8051 354.332 83.0281C352.895 83.2511 351.426 83.1372 350.041 82.6954C349.953 82.6734 349.859 82.6844 349.778 82.7263C349.697 82.7682 349.635 82.8382 349.602 82.9231C349.576 83.0094 349.586 83.1022 349.629 83.1814C349.671 83.2606 349.743 83.3197 349.829 83.346C350.324 83.4887 350.83 83.5867 351.342 83.6388Z" fill="#263238"/>
<path d="M384.248 84.5824C382.021 87.4525 378.755 89.3334 375.155 89.82C370.422 90.4381 368.844 86.03 370.828 81.9148C372.634 78.2061 377.335 73.424 381.694 74.709C386.053 75.994 386.98 81.0039 384.248 84.5824Z" fill="#FFB573"/>
<path d="M379.547 392.609C380.116 350.138 385.549 248.981 385.549 248.981L325.593 254.04C325.593 254.04 337.516 358.288 344.706 401.62C352.188 446.66 375.139 552.176 375.139 552.176L399.538 550.094C399.538 550.094 390.624 425.449 379.547 392.609Z" fill="#263238"/>
<path d="M373.675 552.843L402.612 550.387L401.473 541.051L371.316 543.067L373.675 552.843Z" fill="#C8BFFF" fill-opacity="0.58"/>
<path d="M359.997 69.3586C359.85 70.514 359.102 71.3927 358.369 71.3113C357.637 71.23 357.133 70.221 357.295 69.0494C357.458 67.8777 358.19 67.0153 358.923 67.0966C359.655 67.178 360.159 68.2032 359.997 69.3586Z" fill="#263238"/>
<path d="M346.724 68.3174C346.577 69.4891 345.829 70.3515 345.096 70.2702C344.364 70.1888 343.86 69.1799 344.022 68.0245C344.185 66.8691 344.917 65.9904 345.65 66.0718C346.382 66.1531 346.886 67.0969 346.724 68.3174Z" fill="#263238"/>
<path d="M350.464 69.6827C348.504 72.6928 346.152 75.4279 343.469 77.8157C345.194 79.6212 348.756 79.1332 348.756 79.1332L350.464 69.6827Z" fill="#ED893E"/>
<path opacity="0.4" d="M338.329 68.6094C338.085 70.4637 339.956 72.0089 342.542 72.3343C345.129 72.6596 347.52 71.2444 347.747 69.3901" fill="#C8BFFF" fill-opacity="0.58"/>
<path opacity="0.4" d="M353.701 70.3335C353.343 72.1715 355.148 73.8307 357.686 74.3186C360.223 74.8066 362.712 73.5053 363.053 71.6836" fill="#C8BFFF" fill-opacity="0.58"/>
<path d="M358.694 74.8228C358.402 74.839 358.108 74.839 357.816 74.8228C356.566 74.6733 355.391 74.1455 354.449 73.3101C354.038 72.9587 353.717 72.5139 353.513 72.013C353.309 71.5121 353.229 70.9696 353.278 70.431C352.452 70.0716 351.573 69.8517 350.675 69.7804C349.773 69.5552 348.829 69.5552 347.926 69.7804C347.699 71.7648 345.226 73.1312 342.461 72.7896C341.21 72.6529 340.033 72.1298 339.094 71.2931C338.685 70.9401 338.366 70.495 338.162 69.9945C337.958 69.494 337.876 68.9524 337.923 68.4141L338.704 68.5117C338.671 68.9276 338.738 69.3453 338.899 69.7301C339.06 70.1149 339.311 70.4556 339.631 70.7238C340.45 71.445 341.473 71.894 342.559 72.0088C344.901 72.3179 346.983 71.2281 347.194 69.6015C347.308 68.6906 349.195 68.7556 350.757 68.9508C352.318 69.146 354.172 69.5852 354.01 70.4798C353.975 70.8959 354.042 71.3141 354.203 71.6991C354.365 72.0841 354.616 72.4246 354.937 72.692C355.766 73.4036 356.786 73.8567 357.87 73.9954C358.954 74.1342 360.055 73.9525 361.037 73.4727C361.415 73.2964 361.746 73.0314 362.001 72.7001C362.256 72.3688 362.427 71.9811 362.5 71.5696V71.1793L382.572 73.7655L382.475 74.5463L363.151 72.0576C363.011 72.5104 362.78 72.9299 362.472 73.2906C362.164 73.6513 361.787 73.9457 361.362 74.1559C360.54 74.591 359.624 74.8198 358.694 74.8228Z" fill="#263238"/>
<path d="M365.103 64.2502C365.219 64.2505 365.332 64.2165 365.428 64.1526C365.586 64.0606 365.702 63.9103 365.751 63.734C365.8 63.5576 365.777 63.3692 365.689 63.2091C365.184 62.2631 364.454 61.4562 363.563 60.8603C362.672 60.2644 361.648 59.8979 360.581 59.7933C360.398 59.7844 360.219 59.8475 360.082 59.9692C359.945 60.0908 359.862 60.2613 359.849 60.444C359.84 60.6225 359.902 60.7975 360.02 60.9313C360.139 61.0651 360.305 61.1471 360.483 61.1596C361.328 61.2587 362.135 61.5624 362.835 62.0443C363.535 62.5262 364.107 63.1717 364.501 63.9248C364.563 64.0284 364.651 64.1133 364.757 64.1705C364.863 64.2278 364.983 64.2553 365.103 64.2502Z" fill="#263238"/>
<path d="M342.428 62.4121C342.541 62.4231 342.655 62.4067 342.759 62.3642C342.864 62.3217 342.957 62.2544 343.03 62.1681C343.556 61.4793 344.236 60.9234 345.016 60.5449C345.796 60.1664 346.653 59.9758 347.52 59.9885C347.609 59.9974 347.7 59.9885 347.786 59.9622C347.873 59.936 347.953 59.8929 348.023 59.8354C348.092 59.7779 348.15 59.7072 348.192 59.6274C348.234 59.5476 348.26 59.4602 348.268 59.3704C348.279 59.2827 348.273 59.1936 348.25 59.1084C348.226 59.0231 348.186 58.9433 348.132 58.8737C348.077 58.8041 348.009 58.746 347.932 58.7028C347.855 58.6596 347.77 58.6322 347.682 58.6221C346.59 58.5936 345.505 58.8214 344.517 59.2875C343.528 59.7536 342.662 60.4449 341.989 61.306C341.873 61.4443 341.817 61.6228 341.832 61.8026C341.847 61.9824 341.933 62.1489 342.071 62.2657C342.177 62.342 342.299 62.3922 342.428 62.4121Z" fill="#263238"/>
<path d="M429.499 385.761C417.056 321.804 414.258 271.786 402.449 247.501L344.364 254.008C344.364 254.008 378.961 349.309 395.862 389.99C413.412 432.281 448.059 504.534 448.059 504.534H477.077C477.077 504.534 449.994 414.893 429.499 385.761Z" fill="#263238"/>
<path d="M245.386 143.644L239.108 139.675C238.089 139.018 236.873 138.736 235.669 138.875C234.465 139.014 233.346 139.567 232.504 140.439L228.242 144.929C227.783 145.413 227.429 145.987 227.2 146.614C226.972 147.241 226.874 147.908 226.914 148.574C226.953 149.241 227.129 149.892 227.43 150.487C227.732 151.083 228.152 151.61 228.665 152.037L231.707 154.639C234.353 156.881 237.439 158.544 240.767 159.519L249.957 162.236L255.992 155.729C257.83 148.946 245.386 143.644 245.386 143.644Z" fill="#FFB573"/>
<path d="M338.329 140.602C336.052 146.165 333.824 151.337 331.4 156.624C328.977 161.91 326.52 167.132 323.804 172.32C321.088 177.509 318.192 182.665 314.907 187.838C313.28 190.408 311.474 192.978 309.425 195.564C307.222 198.416 304.713 201.018 301.943 203.323C300.114 204.818 298.096 206.065 295.941 207.032C295.257 207.292 294.623 207.552 293.875 207.78L292.736 208.089C292.163 208.23 291.582 208.333 290.996 208.398C289.013 208.621 287.006 208.478 285.075 207.975C282.661 207.299 280.367 206.251 278.276 204.868C276.71 203.891 275.215 202.804 273.803 201.615C269.109 197.517 264.782 193.016 260.871 188.163C257.082 183.609 253.503 179.038 250.071 174.37C246.639 169.702 243.337 165.115 239.954 160.219L257.944 148.605C263.621 157.769 269.903 166.545 276.747 174.874C279.893 178.732 283.359 182.318 287.108 185.593C287.834 186.188 288.601 186.731 289.402 187.22C290.004 187.627 290.605 187.789 290.182 187.643C289.611 187.485 289.012 187.452 288.426 187.545C288.189 187.567 287.955 187.611 287.726 187.675H287.596C287.515 187.675 287.515 187.675 287.499 187.675C287.869 187.434 288.222 187.167 288.556 186.878C290.041 185.531 291.387 184.038 292.574 182.421C293.956 180.567 295.339 178.485 296.656 176.322C299.349 171.824 301.804 167.187 304.008 162.431C306.286 157.551 308.482 152.671 310.515 147.596C312.548 142.521 314.484 137.365 316.127 132.437L338.329 140.602Z" fill="#C8BFFF" fill-opacity="0.58"/>
<g opacity="0.6">
<path opacity="0.6" d="M338.329 140.602C336.052 146.165 333.824 151.337 331.4 156.624C328.977 161.91 326.52 167.132 323.804 172.32C321.088 177.509 318.192 182.665 314.907 187.838C313.28 190.408 311.474 192.978 309.425 195.564C307.222 198.416 304.713 201.018 301.943 203.323C300.114 204.818 298.096 206.065 295.941 207.032C295.257 207.292 294.623 207.552 293.875 207.78L292.736 208.089C292.163 208.23 291.582 208.333 290.996 208.398C289.013 208.621 287.006 208.478 285.075 207.975C282.661 207.299 280.367 206.251 278.276 204.868C276.71 203.891 275.215 202.804 273.803 201.615C269.109 197.517 264.782 193.016 260.871 188.163C257.082 183.609 253.503 179.038 250.071 174.37C246.639 169.702 243.337 165.115 239.954 160.219L257.944 148.605C263.621 157.769 269.903 166.545 276.747 174.874C279.893 178.732 283.359 182.318 287.108 185.593C287.834 186.188 288.601 186.731 289.402 187.22C290.004 187.627 290.605 187.789 290.182 187.643C289.611 187.485 289.012 187.452 288.426 187.545C288.189 187.567 287.955 187.611 287.726 187.675H287.596C287.515 187.675 287.515 187.675 287.499 187.675C287.869 187.434 288.222 187.167 288.556 186.878C290.041 185.531 291.387 184.038 292.574 182.421C293.956 180.567 295.339 178.485 296.656 176.322C299.349 171.824 301.804 167.187 304.008 162.431C306.286 157.551 308.482 152.671 310.515 147.596C312.548 142.521 314.484 137.365 316.127 132.437L338.329 140.602Z" fill="white"/>
</g>
<path d="M380.913 115.634C374.814 127.02 353.099 170.401 350.464 197.175C340.851 172.776 342.949 118.806 342.949 118.806C336.098 119.473 329.377 121.117 322.991 123.685C320.933 124.531 319.149 125.93 317.837 127.727C316.525 129.525 315.736 131.65 315.557 133.868C313.685 161.793 314.568 189.836 318.192 217.588C324.943 270.127 331.205 351.83 331.205 351.83C331.205 351.83 384.964 349.585 426.441 340.834C421.383 300.674 404.076 233.366 403.913 215.343C403.718 192.148 404.255 146.799 404.987 127.866C405.11 125.193 404.272 122.564 402.625 120.455C400.978 118.345 398.631 116.895 396.008 116.366C391.032 115.444 385.955 115.198 380.913 115.634Z" fill="#C8BFFF" fill-opacity="0.58"/>
<path opacity="0.7" d="M380.913 115.634C374.814 127.02 353.099 170.401 350.464 197.174C340.851 172.776 342.949 118.806 342.949 118.806C336.098 119.473 329.377 121.117 322.991 123.685C320.933 124.531 319.149 125.93 317.837 127.727C316.525 129.524 315.736 131.65 315.557 133.868C313.685 161.793 314.568 189.836 318.192 217.588C324.943 270.127 331.205 351.83 331.205 351.83C331.205 351.83 384.964 349.585 426.441 340.834C421.383 300.674 404.076 233.366 403.913 215.343C403.718 192.148 404.255 146.783 404.987 127.849C405.141 125.258 404.375 122.695 402.825 120.612C401.274 118.529 399.039 117.06 396.512 116.463C391.377 115.457 386.126 115.178 380.913 115.634Z" fill="white"/>
<path d="M368.242 343.112C358.906 291.598 351.505 216.01 350.903 206.918H351.732C352.334 216.01 359.751 291.5 369.072 343.014L368.242 343.112Z" fill="white"/>
<path d="M363.59 251.47H314.012C313.011 251.425 312.051 251.056 311.277 250.42C310.503 249.784 309.956 248.913 309.718 247.94L293.143 170.889C293.021 170.468 293.002 170.025 293.085 169.595C293.169 169.165 293.353 168.761 293.623 168.417C293.893 168.072 294.241 167.797 294.638 167.613C295.035 167.429 295.471 167.342 295.908 167.359H345.47C346.474 167.401 347.437 167.768 348.215 168.404C348.992 169.041 349.542 169.913 349.78 170.889L366.355 247.94C366.477 248.361 366.497 248.804 366.413 249.234C366.33 249.664 366.145 250.067 365.875 250.412C365.605 250.757 365.257 251.032 364.86 251.216C364.463 251.4 364.028 251.487 363.59 251.47Z" fill="white"/>
<path d="M362.045 252.121H311.621C310.601 252.073 309.625 251.698 308.836 251.05C308.048 250.402 307.49 249.517 307.245 248.526L290.378 170.173C290.257 169.744 290.239 169.292 290.326 168.855C290.413 168.417 290.603 168.007 290.878 167.656C291.154 167.306 291.509 167.025 291.914 166.838C292.319 166.651 292.762 166.562 293.208 166.579H343.632C344.651 166.626 345.628 167.002 346.417 167.65C347.205 168.297 347.763 169.183 348.008 170.173L364.859 248.526C364.983 248.954 365.004 249.406 364.919 249.843C364.834 250.281 364.647 250.692 364.372 251.043C364.097 251.394 363.743 251.675 363.338 251.862C362.934 252.05 362.49 252.138 362.045 252.121Z" fill="#C8BFFF" fill-opacity="0.58"/>
<path d="M367.819 207.91L355.278 207.438C353.771 207.386 352.269 207.652 350.87 208.219L344.364 210.821C343.754 211.063 343.198 211.426 342.731 211.887C342.264 212.349 341.895 212.9 341.646 213.507C341.397 214.115 341.273 214.766 341.282 215.423C341.29 216.079 341.431 216.727 341.696 217.328L344.299 222.956C344.824 224.047 345.709 224.925 346.805 225.44C347.901 225.956 349.142 226.078 350.317 225.786L357.491 223.997C357.491 223.997 370.959 222.923 371.447 215.864L367.819 207.91Z" fill="#FFB573"/>
<path d="M402.449 122.612C405.556 127.492 408.403 131.948 411.2 136.731C413.998 141.513 416.747 146.246 419.333 151.191C421.92 156.136 424.376 161.243 426.604 166.708C427.761 169.571 428.75 172.498 429.565 175.476C430.613 179.105 431.096 182.874 430.996 186.65V187.285C431.002 187.393 431.002 187.502 430.996 187.61C430.996 188.196 430.833 188.781 430.719 189.367C430.606 189.952 430.459 190.408 430.296 190.993C430.134 191.579 429.955 191.888 429.776 192.343C429.154 193.751 428.356 195.074 427.401 196.28C426.072 197.94 424.561 199.446 422.896 200.769C420.337 202.784 417.617 204.585 414.763 206.153C409.741 208.899 404.572 211.364 399.278 213.538C394.154 215.717 389.046 217.702 383.906 219.572C378.766 221.443 373.708 223.249 368.356 225.038L362.159 204.543C367.039 203.209 372.016 201.566 376.879 199.907C381.743 198.248 386.639 196.394 391.258 194.458C395.792 192.585 400.213 190.451 404.499 188.066C406.308 187.063 408.032 185.915 409.655 184.633C410.082 184.31 410.464 183.933 410.794 183.511C410.654 183.669 410.543 183.851 410.468 184.048C410.468 184.194 410.387 184.292 410.306 184.471C410.242 184.662 410.193 184.858 410.159 185.056C410.091 185.306 410.047 185.562 410.029 185.821C410.029 185.918 410.029 185.935 410.029 185.902V185.788C409.916 184.245 409.615 182.721 409.135 181.25C408.484 179.121 407.713 177.03 406.825 174.988C404.836 170.486 402.588 166.103 400.091 161.861C397.553 157.502 394.853 153.143 391.958 148.849C389.063 144.554 386.102 140.277 383.126 136.373L402.449 122.612Z" fill="#C8BFFF" fill-opacity="0.58"/>
<g opacity="0.7">
<path opacity="0.7" d="M402.449 122.612C405.556 127.492 408.403 131.948 411.2 136.731C413.998 141.513 416.747 146.246 419.333 151.191C421.92 156.136 424.376 161.243 426.604 166.708C427.761 169.571 428.75 172.498 429.565 175.476C430.613 179.105 431.096 182.874 430.996 186.65V187.285C431.002 187.393 431.002 187.502 430.996 187.61C430.996 188.196 430.833 188.781 430.719 189.367C430.606 189.952 430.459 190.408 430.296 190.993C430.134 191.579 429.955 191.888 429.776 192.343C429.154 193.751 428.356 195.074 427.401 196.28C426.072 197.94 424.561 199.446 422.896 200.769C420.337 202.784 417.617 204.585 414.763 206.153C409.741 208.899 404.572 211.364 399.278 213.538C394.154 215.717 389.046 217.702 383.906 219.572C378.766 221.443 373.708 223.249 368.356 225.038L362.159 204.543C367.039 203.209 372.016 201.566 376.879 199.907C381.743 198.248 386.639 196.394 391.258 194.458C395.792 192.585 400.213 190.451 404.499 188.066C406.308 187.063 408.032 185.915 409.655 184.633C410.082 184.31 410.464 183.933 410.794 183.511C410.654 183.669 410.543 183.851 410.468 184.048C410.468 184.194 410.387 184.292 410.306 184.471C410.242 184.662 410.193 184.858 410.159 185.056C410.091 185.306 410.047 185.562 410.029 185.821C410.029 185.918 410.029 185.935 410.029 185.902V185.788C409.916 184.245 409.615 182.721 409.135 181.25C408.484 179.121 407.713 177.03 406.825 174.988C404.836 170.486 402.588 166.103 400.091 161.861C397.553 157.502 394.853 153.143 391.958 148.849C389.063 144.554 386.102 140.277 383.126 136.373L402.449 122.612Z" fill="white"/>
</g>
<path d="M385.988 179.054C385.88 179.053 385.774 179.024 385.68 178.97C385.586 178.916 385.507 178.838 385.451 178.745C385.404 178.674 385.371 178.594 385.355 178.51C385.339 178.426 385.34 178.34 385.358 178.256C385.377 178.173 385.411 178.094 385.461 178.024C385.511 177.954 385.574 177.895 385.647 177.851L388.184 176.224C390.553 174.73 392.412 172.553 393.515 169.979C394.619 167.406 394.915 164.558 394.365 161.813L389.258 135.95C388.884 134.016 387.869 132.265 386.376 130.98C384.884 129.695 383.001 128.95 381.034 128.868C379.066 128.785 377.127 129.368 375.532 130.524C373.937 131.679 372.779 133.339 372.244 135.234L365.005 160.593C364.215 163.273 364.258 166.131 365.13 168.786C366.001 171.441 367.66 173.769 369.885 175.46L372.292 177.281C372.428 177.387 372.516 177.543 372.537 177.713C372.559 177.884 372.512 178.056 372.406 178.192C372.355 178.259 372.292 178.315 372.219 178.357C372.146 178.398 372.066 178.425 371.983 178.436C371.9 178.446 371.815 178.44 371.734 178.418C371.653 178.396 371.578 178.358 371.512 178.306L369.234 176.501C366.788 174.659 364.96 172.116 363.993 169.211C363.025 166.306 362.964 163.175 363.818 160.235L371.072 134.876C371.695 132.711 373.027 130.818 374.855 129.5C376.683 128.183 378.9 127.517 381.152 127.611C383.403 127.705 385.557 128.552 387.269 130.017C388.981 131.482 390.151 133.48 390.591 135.69L395.699 161.569C396.302 164.568 395.979 167.68 394.774 170.492C393.568 173.304 391.537 175.683 388.949 177.314L386.395 178.941C386.338 178.986 386.273 179.02 386.203 179.039C386.133 179.059 386.06 179.064 385.988 179.054Z" fill="#263238"/>
<path d="M389.892 136.487L371.626 135.722C371.54 135.718 371.456 135.697 371.379 135.66C371.302 135.624 371.232 135.572 371.175 135.509C371.117 135.445 371.073 135.371 371.044 135.291C371.016 135.21 371.003 135.124 371.007 135.039C371.024 134.869 371.103 134.712 371.229 134.597C371.356 134.483 371.52 134.42 371.691 134.421L389.941 135.185C390.026 135.19 390.11 135.211 390.188 135.247C390.265 135.284 390.334 135.335 390.392 135.399C390.449 135.462 390.493 135.536 390.522 135.617C390.551 135.698 390.563 135.783 390.559 135.869C390.557 135.953 390.538 136.037 390.503 136.114C390.468 136.191 390.418 136.261 390.356 136.318C390.294 136.376 390.221 136.421 390.141 136.449C390.061 136.478 389.977 136.491 389.892 136.487Z" fill="#263238"/>
<path d="M381.011 128.907C380.842 128.903 380.682 128.835 380.561 128.718C380.44 128.6 380.369 128.441 380.36 128.272C380.36 125.019 379.352 119.375 376.31 118.139C376.226 118.111 376.148 118.065 376.082 118.006C376.016 117.947 375.963 117.874 375.926 117.794C375.889 117.713 375.869 117.626 375.867 117.537C375.865 117.448 375.881 117.36 375.914 117.278C375.948 117.195 375.997 117.121 376.061 117.058C376.124 116.996 376.199 116.947 376.282 116.915C376.365 116.883 376.453 116.868 376.542 116.872C376.631 116.875 376.718 116.897 376.798 116.935C381.304 118.789 381.678 127.28 381.678 128.321C381.678 128.493 381.612 128.657 381.494 128.782C381.376 128.906 381.215 128.98 381.043 128.988L381.011 128.907Z" fill="#263238"/>
<path d="M325.138 151.012H325.008C324.84 150.977 324.693 150.877 324.598 150.733C324.504 150.59 324.47 150.416 324.503 150.247C326.65 139.561 335.532 122.693 343.355 117.716C343.427 117.671 343.506 117.642 343.589 117.628C343.672 117.615 343.757 117.618 343.839 117.638C343.921 117.657 343.998 117.693 344.065 117.743C344.133 117.793 344.19 117.855 344.234 117.927C344.281 117.997 344.314 118.076 344.33 118.158C344.345 118.241 344.344 118.326 344.326 118.409C344.308 118.491 344.273 118.568 344.223 118.637C344.174 118.705 344.111 118.762 344.039 118.806C336.475 123.588 327.854 139.951 325.772 150.475C325.746 150.625 325.668 150.76 325.552 150.858C325.436 150.956 325.289 151.01 325.138 151.012Z" fill="#263238"/>
<path d="M330.473 152.688C329.464 155.274 327.22 156.835 325.593 156.168C323.967 155.502 323.332 152.915 324.341 150.264C325.349 147.613 327.594 146.116 329.221 146.799C330.847 147.482 331.498 150.101 330.473 152.688Z" fill="white"/>
<path d="M373.416 177.884C373.416 179.088 372.668 180.048 371.87 180.016C371.073 179.983 370.454 178.974 370.503 177.754C370.552 176.533 371.252 175.573 372.049 175.622C372.847 175.671 373.465 176.664 373.416 177.884Z" fill="white"/>
<path d="M387.437 178.47C387.437 179.674 386.705 180.634 385.891 180.602C385.078 180.569 384.492 179.56 384.541 178.34C384.589 177.119 385.273 176.175 386.168 176.208C387.063 176.24 387.486 177.298 387.437 178.47Z" fill="white"/>
<path d="M663.272 155.908L661.646 155.811C661.916 152.347 661.464 148.866 660.318 145.587C659.172 142.308 657.356 139.303 654.987 136.762C652.618 134.222 649.747 132.202 646.556 130.83C643.365 129.458 639.923 128.764 636.45 128.793V127.166C640.146 127.135 643.808 127.872 647.205 129.331C650.601 130.79 653.657 132.939 656.179 135.641C658.701 138.343 660.634 141.541 661.855 145.029C663.076 148.518 663.558 152.223 663.272 155.908Z" fill="#C8BFFF" fill-opacity="0.58"/>
<path d="M664.13 162.728L663.187 176.196L664.814 176.31L665.756 162.842L664.13 162.728Z" fill="#C8BFFF" fill-opacity="0.58"/>
<path d="M636.45 132.859H524.215C518.086 132.96 512.214 135.337 507.74 139.528C503.266 143.719 500.512 149.424 500.012 155.534L498.987 170.645C498.754 173.553 499.13 176.477 500.09 179.231C501.049 181.986 502.572 184.51 504.562 186.643C506.551 188.777 508.963 190.472 511.644 191.621C514.325 192.771 517.216 193.349 520.133 193.32H632.367L654.131 206.739L657.579 155.534C657.814 152.627 657.441 149.703 656.483 146.949C655.525 144.195 654.004 141.67 652.016 139.536C650.027 137.403 647.616 135.707 644.936 134.558C642.256 133.408 639.366 132.83 636.45 132.859Z" fill="#C8BFFF" fill-opacity="0.58"/>
<path d="M630.757 154.509H526.802V158.283H630.757V154.509Z" fill="white"/>
<path d="M629.846 167.896H552.664V171.67H629.846V167.896Z" fill="white"/>
<path d="M467.61 213.701H582.317C585.299 213.668 588.256 214.258 590.997 215.433C593.739 216.607 596.205 218.34 598.239 220.521C600.273 222.702 601.83 225.283 602.811 228.1C603.792 230.917 604.174 233.907 603.934 236.88L602.893 252.332C602.378 258.576 599.561 264.405 594.989 268.688C590.417 272.971 584.417 275.403 578.153 275.511H463.43L439.324 289.256L442.87 236.88C443.382 230.635 446.198 224.803 450.77 220.519C455.343 216.235 461.345 213.805 467.61 213.701Z" fill="white"/>
<path opacity="0.15" d="M467.61 213.701H582.317C585.299 213.668 588.256 214.258 590.997 215.433C593.739 216.607 596.205 218.34 598.239 220.521C600.273 222.702 601.83 225.283 602.811 228.1C603.792 230.917 604.174 233.907 603.934 236.88L602.893 252.332C602.378 258.576 599.561 264.405 594.989 268.688C590.417 272.971 584.417 275.403 578.153 275.511H463.43L439.324 289.256L442.87 236.88C443.382 230.635 446.198 224.803 450.77 220.519C455.343 216.235 461.345 213.805 467.61 213.701Z" fill="#C8BFFF" fill-opacity="0.58"/>
<path opacity="0.5" d="M576.494 235.839H470.18V239.71H576.494V235.839Z" fill="#C8BFFF" fill-opacity="0.58"/>
<path opacity="0.5" d="M511.268 249.518H469.253V253.389H511.268V249.518Z" fill="#C8BFFF" fill-opacity="0.58"/>
<path opacity="0.5" d="M548.403 249.518H521.564V253.389H548.403V249.518Z" fill="#C8BFFF" fill-opacity="0.58"/>
</svg>
